<?xml version="1.0" encoding="UTF-8" standalone="no"?>
<!-- Generated by IcoMoon.io -->

<svg
   version="1.1"
   width="117"
   height="100"
   viewBox="0 0 117 100"
   id="svg2833"
   sodipodi:docname="sl-logo-completo.svg"
   inkscape:version="1.1.2 (b8e25be8, 2022-02-05)"
   xmlns:inkscape="http://www.inkscape.org/namespaces/inkscape"
   xmlns:sodipodi="http://sodipodi.sourceforge.net/DTD/sodipodi-0.dtd"
   xmlns="http://www.w3.org/2000/svg"
   xmlns:svg="http://www.w3.org/2000/svg">
  <defs
     id="defs2837" />
  <sodipodi:namedview
     id="namedview2835"
     pagecolor="#ffffff"
     bordercolor="#666666"
     borderopacity="1.0"
     inkscape:pageshadow="2"
     inkscape:pageopacity="0.0"
     inkscape:pagecheckerboard="0"
     showgrid="false"
     fit-margin-top="0"
     fit-margin-left="0"
     fit-margin-right="0"
     fit-margin-bottom="0"
     inkscape:zoom="3.106234"
     inkscape:cx="141.16773"
     inkscape:cy="57.787019"
     inkscape:window-width="1312"
     inkscape:window-height="1081"
     inkscape:window-x="989"
     inkscape:window-y="25"
     inkscape:window-maximized="0"
     inkscape:current-layer="svg2833"
     showguides="true"
     inkscape:guide-bbox="true" />
  <g
     id="icomoon-ignore"
     transform="translate(0.18897662,0.25593753)" />
  <path
     d="m 90.283081,38.278946 q -0.968625,-1.452941 -2.663717,-0.968626 -0.484317,0.12107 -0.968633,0.363235 -0.605389,-0.484312 -1.210781,-0.605393 -1.210784,-0.484312 -2.300488,0.242173 0.847546,-2.421568 1.452939,-5.206369 0.484315,-2.784801 0.726472,-4.237741 1.089703,0 1.816174,-0.968627 1.089709,-1.45294 0.121067,-2.784801 -0.968624,-1.45294 -2.663723,-0.968627 -1.816174,0.484313 -1.816174,2.300488 0,1.695097 1.695097,2.300488 l 0.242173,0.121078 q -0.484315,3.753428 -1.574019,7.022543 -1.452941,4.600979 -3.75343,7.627937 -0.12107,0.12107 -0.302708,0.423773 -0.181607,0.302708 -0.423773,0.423773 -0.121071,-1.331861 -0.363235,-2.058331 -0.726469,-3.390191 -2.784804,-5.569603 1.57402,0 2.905881,-0.726469 1.331861,-0.84755 2.058333,-2.30049 0.605393,-0.968626 0.847547,-3.511271 0.242173,-3.511272 -0.726469,-8.596563 -0.121071,-0.72647 -0.484312,-3.026958 0.726469,-0.242157 1.210781,-0.847548 1.089708,-1.45294 0,-2.784802 -0.968627,-1.45294 -2.663722,-1.089705 -1.695097,0.605392 -1.695097,2.421567 0,1.695096 1.574019,2.300488 0.605393,0.121078 1.089704,0.121078 0,0.121076 0.121071,0.544852 0.121071,0.423774 0.121071,0.665931 0.484312,2.784801 0.605392,5.81176 0.121071,2.300488 0,4.35882 -0.242142,2.17941 -1.089707,3.390193 -1.089704,1.695096 -3.269115,1.937253 -1.452938,0 -2.663722,-0.363235 0.242141,-0.72647 0.363234,-1.695097 0.121071,-1.695096 -0.363234,-3.390193 0,-0.121076 0.12107,-0.121076 h 0.242142 q 0.363234,-0.121078 0.968627,-0.121078 0,0.121078 -0.06053,0.242158 l -0.06053,0.121077 q 0,0.847548 0.544853,1.452939 0.544851,0.605393 1.27132,0.605393 1.816176,0.242157 2.300489,-1.574019 0.484314,-1.695096 -1.331862,-2.421567 -1.695096,-0.605391 -2.542642,1.089706 h -0.363239 q -0.726469,-0.121078 -1.33186,0 -0.484275,-1.574034 -1.089667,-2.663739 -0.726469,-1.210784 -2.421565,-3.511272 0.484312,-0.242157 0.726469,-0.484313 h 0.121071 q 1.816177,-1.089705 3.269115,-0.968627 0.84755,0.121077 1.574019,0.605392 -0.363235,0.363235 -0.605393,0.72647 -0.242173,0.363235 -0.242173,0.968626 0,0.72647 0.544854,1.331862 0.544854,0.605392 1.271323,0.72647 1.816176,0.121078 2.300488,-1.574018 0.484315,-1.816175 -1.331862,-2.421567 -0.726469,-0.363235 -1.452938,0 -0.84755,-0.72647 -1.816177,-0.968626 -0.968626,-0.121078 -2.05833,0.121077 1.816173,-2.300489 2.300488,-5.327447 0.363235,-1.816175 0.121071,-3.995586 0,-0.121077 -0.06053,-0.423774 -0.06054,-0.302696 -0.06054,-0.4237744 1.089704,-0.3632352 1.452938,-1.5740186 0.484315,-1.6950966 -1.210784,-2.4215665 -1.816173,-0.6053917 -2.663722,0.9686267 -0.121071,0.4843134 -0.121071,0.9686264 0,0.8475486 0.484312,1.4529398 0.484315,0.6053922 1.210784,0.6053922 h 0.484315 q 0.363235,4.1166644 -0.968627,7.1436234 -0.726456,1.816176 -2.300472,3.148037 -0.726473,0.484313 -1.695099,0.968627 -1.089705,-1.45294 -1.574016,-2.542645 l -0.121075,-0.121078 q -0.363244,-1.089705 0.242142,-2.542645 0.12107,-0.363235 0.484311,-0.847549 0.363235,0.363235 0.968627,0.363235 1.816177,0.242158 2.300488,-1.574019 0.363244,-1.695097 -1.331855,-2.421566 -1.816173,-0.605392 -2.542642,1.089705 -0.242173,0.363235 -0.242173,0.847549 0,0.847548 0.605392,1.45294 -0.242173,0.242157 -0.605392,0.72647 -0.242174,0.484313 -0.484315,1.331861 -1.210781,-2.784801 -1.210781,-6.174995 0,-1.9372543 0.242141,-3.1480376 1.331862,0.1210771 2.179411,-0.9686268 1.089704,-1.4529398 0.121071,-2.7848015 -0.968627,-1.4529401 -2.663722,-0.9686268 -1.816174,0.4843134 -1.816174,2.3004885 0,1.6950967 1.695096,2.3004881 h 0.121071 q -0.121071,0.1210772 -0.181606,0.4237742 -0.06053,0.3026961 -0.06053,0.4237742 -0.363234,1.6950977 -0.242142,3.8745067 0.121071,4.116665 2.300488,7.991171 0.363235,0.605392 0.968627,1.574018 -0.121071,0 -0.423776,0.18162 -0.302677,0.181619 -0.544851,0.302695 -4.358821,2.17941 -6.659309,4.964212 l -0.968615,1.210782 v -4.843134 q 0.242142,-0.72647 0.605392,-1.45294 0.484315,-0.847548 1.210784,-1.331861 0.484313,0.847548 1.574019,0.968626 1.816174,0.121078 2.179409,-1.574018 0.484314,-1.816175 -1.210782,-2.421566 -1.816176,-0.605392 -2.663722,0.968626 -0.121071,0.363235 -0.121071,0.968627 0,0.242157 0.121071,0.484313 -0.968627,0.605392 -1.6951,1.331862 l -0.121081,0.121077 v -0.847547 q -0.121074,-4.116663 -0.242177,-6.174995 v -4.479899 q 0.121071,0 0.484315,-0.121077 1.695096,-0.4843136 1.695096,-2.300489 0,-1.9372533 -1.816176,-2.3004883 -1.695096,-0.6053918 -2.663723,0.9686267 -0.968627,1.4529398 0.121071,2.784801 0.605389,0.8475496 1.695096,0.9686276 v 0.121077 q 0,0.363235 -0.06053,1.150244 -0.06053,0.787009 -0.06053,1.150245 0,0.847549 -0.06053,2.482106 -0.06053,1.634558 -0.06053,2.482106 -0.12107,2.663723 -0.12107,3.995585 -0.726473,-0.847549 -1.6951,-1.331862 0.121071,-0.363235 0.121071,-0.605391 0,-0.363235 -0.242173,-0.847549 -0.726469,-1.695096 -2.542645,-0.968626 -0.72647,0.242157 -1.089704,0.908087 -0.363235,0.665931 -0.242173,1.513479 0.484315,1.816175 2.300488,1.45294 0.968626,0 1.452941,-0.968627 0.72647,0.605392 1.089705,1.210784 0.605391,0.968626 0.605391,1.45294 0.242174,1.089705 0.121071,1.816175 v 1.574018 q 0,0 -0.121071,1.574019 -1.089666,-1.574019 -2.30045,-2.663724 -1.331861,-1.210783 -3.390195,-2.421567 -1.210781,-0.72647 -1.937254,-1.089705 -0.605389,-0.242156 -0.968626,-0.484313 0.847549,-1.210783 1.452941,-2.300488 1.937254,-3.874507 1.937254,-8.112249 0,-2.1794106 -0.484315,-3.7534291 h 0.12107 q 1.57402,-0.4843134 1.57402,-2.3004881 0,-1.9372535 -1.6951,-2.3004885 -1.695095,-0.6053917 -2.663722,0.9686268 -0.968627,1.45294 0,2.7848015 0.847549,1.0897052 2.179411,0.9686268 l 0.121071,0.2421575 q 0.242127,1.4529405 0.242127,3.7534291 -0.242141,2.784802 -1.210784,5.327447 L 50.56939,16.000533 q -0.363234,-0.72647 -0.605392,-1.089705 0.484312,-0.605392 0.484312,-1.45294 0,-0.605392 -0.121071,-0.847549 -0.84755,-1.695097 -2.663722,-1.089705 -0.72647,0.363234 -1.089704,1.029166 -0.363238,0.665931 -0.121071,1.3924 0.484315,1.816176 2.300488,1.574019 0.484315,0 0.847549,-0.363235 0.121071,0.121077 0.181607,0.302696 0.06053,0.181619 0.181606,0.302696 0.726469,1.45294 0.363235,2.784802 -0.121071,0.121077 -0.30271,0.484313 -0.181605,0.363235 -0.302708,0.484313 -0.121071,0.363235 -0.54485,0.908088 -0.423776,0.544853 -0.544854,0.787009 -1.816176,-0.968627 -3.026957,-2.421567 -1.089707,-1.45294 -1.574019,-3.63235 -0.484315,-1.937253 -0.363235,-4.116663 0,-0.484314 0.121071,-1.0897054 H 44.1522 q 0.726469,0 1.271323,-0.6053922 0.544853,-0.6053916 0.544853,-1.4529402 0,-0.3632349 -0.242142,-0.8475483 -0.726469,-1.6950966 -2.542645,-1.0897048 -0.72647,0.3632349 -1.089704,1.0291659 -0.363235,0.6659307 -0.242173,1.3924006 0.242173,1.2107838 1.452938,1.574019 -0.484311,3.3901934 0.242174,6.1749954 0.726469,2.300489 2.058334,3.995586 -0.726473,-0.242158 -1.816177,-0.121078 -1.210784,0.121078 -1.937253,0.968627 -0.84755,-0.363235 -1.574019,0 -0.72647,0.242157 -1.089705,0.968626 -0.363234,0.72647 -0.242141,1.45294 0.484315,1.816175 2.300488,1.574019 0.84755,-0.121078 1.331862,-0.72647 0.484315,-0.605392 0.484315,-1.331862 0,-0.605392 -0.242174,-0.968627 -0.12107,-0.363235 -0.605392,-0.72647 0.605392,-0.484313 1.331862,-0.605391 1.574019,-0.242158 3.632349,0.968626 0.242142,0.242158 0.84755,0.484314 -2.058331,2.784801 -2.90588,4.479898 -0.484312,0.968627 -0.72647,1.695097 h -0.847549 q -0.242174,0 -0.72647,0.121077 0,-0.121077 -0.12107,-0.121077 -0.84755,-1.574019 -2.542646,-0.968627 -0.726469,0.242157 -1.089707,0.968627 -0.363235,0.72647 -0.242142,1.45294 0.484312,1.816175 2.300488,1.574018 0.726469,-0.121077 1.271323,-0.72647 0.54485,-0.605392 0.54485,-1.331862 0,-0.242157 -0.121071,-0.363235 h 0.605393 q 0.363234,0 0.726469,0.121078 -0.605392,2.421566 -0.121071,4.479898 0,0.363235 0.121071,0.605392 -2.300488,0.726469 -3.995584,0.121076 -2.058331,-0.72647 -2.784803,-3.511271 -0.363235,-1.574019 -0.363235,-4.237742 0,-1.937253 0.242173,-4.35882 0.242142,-1.45294 0.605393,-4.35882 0.484311,0.121077 1.089704,-0.121077 1.695095,-0.484313 1.695095,-2.300488 0,-1.816175 -1.816173,-2.300489 -1.695096,-0.605392 -2.663722,0.968627 -0.968628,1.45294 0,2.784802 0.605388,0.72647 1.331861,0.847548 -0.242142,0.72647 -0.363235,1.937253 -0.84755,4.964212 -0.968626,7.870092 -0.121071,5.206369 2.300487,7.14362 1.452939,1.089708 3.51127,1.089708 -1.695097,1.816173 -2.421566,4.237741 -0.605411,1.816174 -0.726488,3.390192 -1.574018,-1.816173 -2.90588,-4.358818 -1.574019,-3.390196 -2.663724,-7.870093 -0.363235,-2.058332 -0.605392,-3.148037 0.121078,0 0.363235,-0.121077 1.695097,-0.484313 1.695097,-2.300488 0,-1.937253 -1.816175,-2.300488 -1.695097,-0.605392 -2.663723,0.968626 -0.968627,1.45294 0,2.784802 0.72647,0.968627 1.937253,0.968627 0.242157,2.05833 0.605392,3.995583 0.605391,3.026957 1.574018,5.448526 -0.968627,-0.605392 -1.937253,-0.363235 -0.72647,0.121077 -1.695097,0.72647 -0.363235,-0.242158 -0.847548,-0.484312 -1.695097,-0.484315 -2.663724,0.968623 -0.968626,1.452942 0,2.90588 1.089705,1.331865 2.784802,0.726473 1.695097,-0.484315 1.695097,-2.300489 0,-0.847549 -0.605392,-1.452941 0.363235,-0.242142 0.72647,-0.363234 1.210783,-0.484312 2.17941,0.242141 0.363235,0.242142 1.089704,1.331861 v 0.06053 q 0,0 0.121071,0.181607 0.72647,1.937253 1.816173,3.390192 -2.421566,-0.72647 -3.995584,0.484311 -1.695096,1.089708 -1.695096,3.269118 0,0.484312 0.121076,1.089705 -0.72647,0.242141 -1.089704,0.968626 -0.363235,0.726469 -0.121077,1.452938 0.363235,1.816177 2.17941,1.57402 0.847548,-0.121071 1.331861,-0.72647 0.484313,-0.605392 0.484313,-1.331861 0,-0.484315 -0.121076,-0.968627 -0.726463,-1.33183 -2.179403,-1.089676 V 47.4809 q -0.242157,-2.300489 1.089705,-3.269115 1.45294,-0.968627 2.905881,-0.665931 1.452938,0.302709 2.663722,1.513481 0,1.089703 0.121071,3.148034 0.121071,2.058334 0.605393,4.358822 -0.847547,0.242142 -1.331862,0.847546 -0.968626,1.574019 0,2.905881 1.089704,1.452941 2.784803,0.847549 1.695096,-0.605392 1.695096,-2.421568 0,-1.816174 -1.816176,-2.300489 -0.242141,-0.121071 -0.847546,-0.121071 -0.242174,-1.574018 -0.242174,-2.421565 -0.242173,-2.421568 -0.12107,-4.116664 l 0.242141,0.242173 q 3.148038,2.7848 7.264703,3.390192 5.085288,0.605392 7.506856,2.542646 0.242142,0.121071 1.089704,1.089703 -1.210784,-0.363234 -2.663723,-0.242173 -2.421568,0.363238 -3.995584,2.905881 -0.605392,-0.242142 -1.331862,0 -0.726472,0.363237 -1.150245,1.029168 -0.423773,0.665931 -0.181606,1.3924 0.484315,1.937253 2.300488,1.574019 0.726472,0 1.271322,-0.605392 0.544854,-0.605392 0.544854,-1.452942 0,-0.605389 -0.242173,-0.847547 -0.242141,-0.484315 -0.726469,-0.847549 0.242142,-0.363235 0.605392,-0.605392 1.452938,-1.210781 3.511272,-0.968627 1.816173,0.242174 2.663722,1.574019 0.363235,0.605392 0.72647,1.816176 0.121071,0.484313 0.121071,1.574019 -0.121071,0.968627 -0.181606,3.087496 -0.06053,2.118872 -0.06053,3.087499 0,0.847547 -0.06053,2.300488 -0.06053,1.452939 -0.06053,2.179409 0,0.363234 -0.06053,0.908088 -0.06053,0.544853 -0.06053,0.787011 h 4.479899 V 71.21226 q 0,-0.484312 -0.06053,-1.574019 -0.06053,-1.089705 -0.06053,-1.574019 -0.12107,-3.874507 -0.242141,-5.69068 v -4.600974 q 0.242141,-0.968627 0.605392,-1.816176 0.968627,-1.452938 2.663723,-1.695095 1.089704,-0.121071 1.937254,0.12107 0.847546,0.242173 1.574018,0.84755 l 0.726469,0.726469 q -0.484315,0.363235 -0.726469,0.84755 -0.242173,0.363234 -0.242173,0.847546 0,1.816176 1.816173,2.058334 1.816177,0.242141 2.300488,-1.57402 0.484315,-1.695095 -1.331861,-2.421568 -0.605392,-0.121071 -1.331861,0 l -0.726469,-0.968626 q -1.210785,-1.574016 -3.269115,-1.816174 -1.452939,-0.242173 -2.663724,0.121071 0.484312,-0.484312 1.089705,-0.968627 2.421568,-1.937253 7.143621,-2.663722 2.058331,-0.242142 3.995584,-0.968627 1.6951,-0.726469 3.390196,-2.05833 L 78.175287,45.7858 q 0.12107,0.726469 0.12107,2.300488 -0.12107,2.421566 -0.363234,4.358819 -0.484315,-0.12107 -0.968626,0.121071 -1.695097,0.484312 -1.695097,2.300489 0,1.695095 1.634557,2.300487 1.634558,0.605392 2.724262,-0.847549 1.089704,-1.452938 0.121071,-2.7848 -0.484312,-0.726473 -1.331862,-0.968627 l 0.484315,-3.148038 q 0.242174,-2.421565 0.121071,-4.358818 2.784803,-2.542646 5.327449,-0.968627 1.452938,0.847546 1.452938,2.90588 0,0.363235 -0.121071,0.726469 -1.452941,-0.242173 -2.058333,1.089704 -0.242141,0.363235 -0.242141,0.968627 0,0.726469 0.54485,1.331862 0.544853,0.605391 1.271322,0.726472 1.816177,0.121071 2.300493,-1.574019 0.484309,-1.816177 -1.331866,-2.421568 0.121071,-0.605393 0.121071,-0.847547 0.121071,-2.300488 -1.452941,-3.511272 -1.816174,-1.210784 -4.116665,-0.484315 0.968626,-1.331862 1.695099,-2.90588 0,-0.242142 0.121071,-0.423774 0.121071,-0.181606 0.121071,-0.302708 1.210784,-2.058331 2.90588,-1.695096 0.605392,0.12107 1.089705,0.484311 -0.605391,0.605393 -0.605391,1.574019 0,1.695099 1.6951,2.300489 1.695091,0.605391 2.7848,-0.847547 0.605391,-1.695096 -0.242175,-2.90588 z M 45.484099,33.435813 q -0.484311,-1.574019 -0.242141,-3.390193 0.363237,0.363234 1.029168,1.210783 0.665931,0.847548 1.029165,1.210782 0,0.121078 0.121071,0.302697 0.121071,0.181618 0.242173,0.181618 -0.363234,0.121078 -2.179411,0.484314 z m 2.90588,1.210784 q 2.300488,0 3.874508,0.968627 1.452938,0.968626 2.784802,2.663722 0.968627,1.574019 1.695097,3.63235 0.242173,0.605392 0.605391,1.695096 -1.695099,-1.816173 -6.417152,-4.722053 -3.511272,-2.179411 -4.722057,-3.995588 1.210785,-0.242141 2.179411,-0.242141 z m 17.072047,4.722053 q -3.632352,2.300489 -5.448525,4.358822 0.242173,-0.847549 0.363234,-1.210784 0.605392,-1.695096 1.331861,-3.148038 1.937254,-3.511272 4.964211,-4.358819 1.816177,-0.605391 4.479899,-0.121071 -1.089703,1.6951 -5.69068,4.479899 z m 6.296073,-5.932837 Q 70.668394,33.072578 69.578688,33.072578 L 69.82086,32.83042 q 0,0 0.121071,-0.242157 0.363235,-0.363235 1.089708,-1.210783 0.726469,-0.847549 1.089704,-1.331862 0.242173,1.937253 -0.363235,3.390193 z m -8.354407,-7.143622 q 1.331862,-1.331862 3.390196,-2.542645 0.363234,-0.242158 0.968626,-0.544853 0.605389,-0.302696 0.968627,-0.544852 2.058331,3.269115 2.7848,4.964211 0.242142,0.968627 0.363234,1.331862 l -2.421565,2.421567 q -1.574019,1.452939 -2.421568,1.695097 -0.121071,0 -0.242142,0.06054 -0.12107,0.06054 -0.242173,0.06054 -0.84755,0.121078 -1.816177,0.605392 0.121071,-0.363235 0.242142,-0.484313 0.242173,-0.847549 0.605393,-2.17941 h 0.12107 q 1.816176,0.121077 2.179411,-1.574019 0.484312,-1.816175 -1.210784,-2.421566 -1.816173,-0.605392 -2.663722,0.968626 -0.121071,0.484314 -0.121071,0.968627 0,1.331862 1.210781,1.816175 -0.60539,1.210783 -0.968627,1.574018 -0.726469,1.210784 -1.331862,2.058332 -0.121071,0.242173 -0.726469,0.84755 0,0.121071 -0.121071,0.242173 l -0.484315,0.484312 q -0.847546,0.847549 -1.21078,1.452942 -0.121071,0.242141 -0.484315,0.726469 v -0.968643 l -0.242145,-4.116664 q 0.363234,-3.63235 3.874506,-6.901465 z m -14.771555,-3.63235 q 2.300488,1.331861 3.148038,1.937253 1.93725,1.331862 3.148034,2.663723 1.574019,1.695097 2.179411,3.511272 0.484311,1.089705 0.605392,2.542645 -0.121071,0.847549 -0.121071,2.482106 0,1.634557 -0.12107,2.482106 v -0.121071 q -0.605393,-0.968623 -1.695096,-2.05833 l -0.121072,-0.242142 -0.242141,-0.121071 v -0.121071 q -0.121071,-0.121071 -0.242173,-0.121071 -0.242173,-0.363234 -0.605392,-0.968626 -0.72647,-0.968626 -1.331862,-1.816174 -0.363234,-0.605392 -0.968627,-1.816175 1.210784,-0.605392 1.210784,-1.937254 0,-0.363235 -0.242173,-0.847548 -0.726469,-1.695097 -2.542645,-0.968627 -0.72647,0.242158 -1.089704,0.968627 -0.363235,0.72647 -0.121071,1.45294 0.363238,1.816175 2.179411,1.45294 h 0.121071 q 0.242141,1.089705 0.605389,2.058332 0,0.121077 0.121071,0.302696 0.121071,0.181619 0.121071,0.302696 -0.121071,0 -0.242142,-0.06054 l -0.121071,-0.06054 Q 51.416937,33.19365 50.44831,33.072572 49.358606,32.709336 48.026745,31.377476 l -0.968627,-0.908088 q 0,0 -1.452939,-1.271322 0,-0.121078 -0.06053,-0.121078 -0.06053,0 -0.06053,-0.121077 0.363235,-1.45294 0.84755,-2.17941 0.605391,-1.45294 2.300487,-4.116664 z m -1.089704,25.305372 q -3.753429,-0.242141 -6.780387,-2.542645 -0.726472,-0.484315 -1.331862,-1.089707 0.121071,-0.242142 0.181606,-0.908085 0.06053,-0.665931 0.181607,-0.908088 1.089704,-4.722057 3.995584,-6.53823 l 0.726469,-0.363234 q 1.089708,2.058331 4.116665,4.237741 0.242142,0.242142 1.3924,0.968627 1.150246,0.726469 1.755637,1.210781 -1.816176,0 -3.632352,0.968626 -0.968627,-1.21078 -2.300488,-0.726469 -0.726469,0.242174 -1.150243,0.968627 -0.423776,0.72647 -0.181606,1.452942 0.484315,1.816173 2.300488,1.574015 0.726472,-0.121071 1.271323,-0.726469 0.544854,-0.605392 0.544854,-1.331861 0,-0.484312 -0.242174,-0.84755 0.121071,0 0.242174,-0.06053 l 0.12107,-0.06053 q 1.816177,-0.484312 3.390195,-0.121071 1.331862,0.242142 2.542643,1.331861 0.242173,0.121071 0.363238,0.242142 1.331861,1.574016 1.816172,3.390192 0.242174,1.210784 0.242174,3.026957 -0.847549,-0.726469 -1.937253,-1.331861 -3.026958,-1.695096 -7.627934,-1.816173 z M 73.08996,47.359822 q -1.574019,0.484311 -3.269115,0.605391 -1.937254,0 -3.75343,0.484313 -3.51127,0.726469 -5.811757,2.663722 -0.121071,-1.937253 0.242142,-3.026957 0,-0.121071 0.06053,-0.423773 0.06053,-0.302709 0.181607,-0.423776 0.605391,-1.452939 1.816175,-2.7848 h 0.121072 q 0.968627,-0.84755 2.421565,-1.331862 1.574019,-0.363235 3.269115,0 0.121071,0 0.302708,0.06053 0.181607,0.06053 0.302709,0.06053 -0.12107,0.484315 -0.12107,0.847549 0,0.847547 0.484311,1.452939 0.484315,0.605392 1.331864,0.605392 1.816174,0.242141 2.179409,-1.574019 0.484315,-1.695096 -1.210782,-2.421565 -1.574018,-0.484315 -2.421568,0.726469 -0.363234,-0.121071 -0.726469,-0.363234 -1.210784,-0.484315 -2.784804,-0.605393 0.242174,-0.121071 1.755639,-1.150246 1.513476,-1.029165 2.239949,-1.634557 1.816173,-1.331861 2.7848,-2.7848 0.242173,-0.363234 0.484315,-0.847549 2.663723,1.331862 3.874507,4.358821 0.847546,1.937255 1.089703,4.479897 -2.542645,2.179411 -4.843133,3.02696 z m -69.9832795,48.0681 1.2107834,-1.331867 q 1.6950965,1.331867 3.5112715,1.331867 2.0583325,0 2.0583325,-1.331867 0,-1.210783 -2.5426455,-1.816175 Q 5.407169,91.916647 4.4990815,91.19018 3.5909939,90.463706 3.5909939,89.010772 v -0.121075 q 0,-1.331858 1.0897051,-2.23995 1.0897054,-0.908084 2.7848014,-0.908084 2.3004885,0 3.9955866,1.331859 l -1.089706,1.452934 q -1.4529406,-1.089709 -3.0269586,-1.089709 -1.8161751,0 -1.8161751,1.331867 0,0.726467 0.5448521,1.0897 0.544853,0.363233 2.118871,0.726475 3.6323516,0.847541 3.6323516,3.269116 v 0.121067 q 0,1.574017 -1.089706,2.421567 -1.0897051,0.847558 -2.9058806,0.847558 -2.6637231,0 -4.7220549,-1.816175 z M 17.757161,85.741654 h 1.816176 l 4.964211,11.38136 h -2.058331 l -1.210784,-2.7848 h -5.327447 l -1.089705,2.7848 h -1.937254 z m 2.784802,6.901468 -1.937253,-4.4799 -1.937253,4.4799 z m 5.81176,-6.901468 h 1.816175 l 5.932838,7.870093 v -7.870093 h 2.058334 v 11.38136 h -1.695099 l -6.296073,-8.112242 v 8.112242 h -1.816175 z m 15.255869,1.937252 h -3.632349 v -1.937252 h 9.201952 v 1.937252 h -3.632349 v 9.444108 h -1.937254 z m 10.049502,-1.937252 h 1.816177 l 4.96421,11.38136 h -2.05833 l -1.210784,-2.7848 h -5.327446 l -1.089707,2.7848 h -2.058331 z m 2.784803,6.901468 -1.937253,-4.4799 -1.937254,4.4799 z m 10.412737,-6.901468 h 1.937254 v 9.565185 h 5.932837 v 1.816175 h -7.870091 z m 9.323029,6.538226 v -6.538226 h 1.937254 v 6.417151 q 0,3.269117 2.845342,3.269117 2.845342,0 2.845342,-3.148042 v -6.538226 h 1.937253 v 6.417151 q 0,2.421567 -1.271323,3.753425 -1.271323,1.331867 -3.571811,1.331867 -2.179411,0 -3.450733,-1.271325 -1.271324,-1.271325 -1.271324,-3.692892 z m 11.744598,-0.84755 q 0,-2.421558 1.634561,-4.116658 1.634559,-1.695099 4.1772,-1.695099 2.663725,0 4.358823,1.695099 l -1.331865,1.452942 q -1.574016,-1.331867 -3.148033,-1.331867 -1.574025,0 -2.603183,1.089709 -1.029167,1.089708 -1.029167,2.784799 v 0.121075 q 0,1.695092 1.029167,2.845342 1.029158,1.150242 2.603183,1.150242 1.695092,0 3.269117,-1.452942 l 1.331861,1.331858 q -1.937261,1.937267 -4.600978,1.937267 -2.421566,0 -4.056125,-1.6951 -1.634561,-1.695092 -1.634561,-4.116667 z m 12.228914,-5.690676 h 2.058335 v 11.260285 h -2.058335 z m 8.838695,0 h 1.93725 l 4.96421,11.38136 h -2.17941 l -1.0897,-2.7848 h -5.32745 l -1.21078,2.7848 h -1.93725 z m 2.90588,6.901468 -1.93725,-4.4799 -1.93726,4.4799 z"
     id="path2831"
     style="stroke-width:0.121078" />
</svg>
