<?xml version="1.0" encoding="UTF-8" standalone="no"?>
<!-- Created with Inkscape (http://www.inkscape.org/) -->

<svg
   width="107.3345mm"
   height="30.000006mm"
   viewBox="0 0 107.3345 30.000006"
   version="1.1"
   id="svg5"
   inkscape:version="1.1.2 (b8e25be8, 2022-02-05)"
   sodipodi:docname="sl-logo-completo-orizzontale.svg"
   xmlns:inkscape="http://www.inkscape.org/namespaces/inkscape"
   xmlns:sodipodi="http://sodipodi.sourceforge.net/DTD/sodipodi-0.dtd"
   xmlns="http://www.w3.org/2000/svg"
   xmlns:svg="http://www.w3.org/2000/svg">
  <sodipodi:namedview
     id="namedview7"
     pagecolor="#ffffff"
     bordercolor="#666666"
     borderopacity="1.0"
     inkscape:pageshadow="2"
     inkscape:pageopacity="0.0"
     inkscape:pagecheckerboard="0"
     inkscape:document-units="mm"
     showgrid="false"
     inkscape:zoom="0.78845947"
     inkscape:cx="-56.439172"
     inkscape:cy="381.12295"
     inkscape:window-width="1312"
     inkscape:window-height="1081"
     inkscape:window-x="710"
     inkscape:window-y="77"
     inkscape:window-maximized="0"
     inkscape:current-layer="layer1"
     fit-margin-top="0"
     fit-margin-left="0"
     fit-margin-right="0"
     fit-margin-bottom="0" />
  <defs
     id="defs2" />
  <g
     inkscape:label="Layer 1"
     inkscape:groupmode="layer"
     id="layer1"
     transform="translate(-1.3811509,-9.8565547)">
    <g
       id="g835"
       transform="matrix(0.02929688,0,0,0.02929688,1.4033761,9.8565547)">
      <g
         id="icomoon-ignore" />
      <path
         d="m 944,527 q -7,-10 -18,-14 -11,-4 -22,-1 -8,3 -13,7 -10,-7 -19,-10 -18,-6 -34,4 13,-37 21,-78 8,-41 10,-62 18,0 29,-14 7,-10 7,-21.5 0,-11.5 -7,-20.5 -6,-10 -17,-14 -11,-4 -23,-1 -11,3 -18.5,13 -7.5,10 -7.5,21 0,26 25,35 1,0 2.5,0.5 1.5,0.5 2.5,1.5 -9,56 -24,105 -22,67 -55,111 -2,3 -5.5,7.5 -3.5,4.5 -5.5,6.5 -3,-19 -6,-30 -11,-51 -41,-83 23,0 43,-12 20,-12 31,-33 9,-15 12,-53 3,-52 -11,-127 -2,-12 -8,-45 12,-4 18,-13 7,-9 7.5,-21 0.5,-12 -6.5,-21 -6,-10 -17.5,-14 -11.5,-4 -22.5,-1 -11,4 -18.5,13.5 -7.5,9.5 -7.5,21.5 0,25 25,34 8,3 16,2 0,3 1,9 1,6 2,9 7,42 9,87 2,35 -1,65 -3,31 -14,50 -18,26 -50,28 -22,1 -39,-5 3,-11 4,-24 3,-27 -4,-52 0,-1 2,-1 2,0 3,-1 h 14 l -0.5,2 q 0,0 -0.5,3 0,12 7.5,20.5 7.5,8.5 19,10 11.5,1.5 21.5,-5.5 10,-7 13,-17 2,-12 -3.5,-22 -5.5,-10 -16.5,-14.5 -11,-4.5 -22,0 -11,4.5 -16,14.5 0,1 -1,2 l -1.5,-0.5 q 0,0 -2.5,-0.5 -11,-1 -19,1 -9,-25 -18,-40 -11,-19 -35,-52 7,-5 10,-7 1,0 1.5,-0.5 L 650,279 q 28,-16 48,-15 14,2 25,10 -7,5 -9,10 -3,6 -3,14 0,12 7.5,21 7.5,9 19,10 11.5,1 21,-5.5 9.5,-6.5 12.5,-17.5 3,-12 -2.5,-22 -5.5,-10 -16.5,-14 -11,-5 -23,1 -11,-12 -27,-15 -13,-3 -30,1 27,-33 35,-78 4,-27 1,-60 0,-2 -0.5,-6.5 Q 707,108 707,106 723,101 728,84 731,72 725.5,62 720,52 709,47.5 698,43 687,47.5 676,52 671,62 q -3,6 -3,14 0,11 7.5,20 7.5,9 18.5,11 h 7 q 6,60 -14,105 -12,27 -36,46 -9,8 -23,16 -16,-22 -25,-39 l -1,-1 q -5,-17 4,-37 2,-5 7,-13 5,4 14,5 11,1 21,-5.5 10,-6.5 13,-17.5 3,-11 -2.5,-21.5 Q 653,134 642,130 631,126 619.5,130.5 608,135 603,145 q -3,6 -3,14 0,11 9,21 -3,4 -8,12 -4,7 -9,19 -17,-41 -18,-93 0,-28 5,-46 20,3 33,-14 7,-9 7,-21 0,-12 -7,-21 Q 606,7 595,3 584,-1 573,2 561,5 553.5,14.5 546,24 546,36 q 0,25 25,35 h 2 q -1,1 -2,5 -1,4 -2,6 -5,26 -3,59 2,60 35,119 4,9 14,22 -2,1 -4.5,2 -2.5,1 -5.5,2.5 -3,1.5 -4,2.5 -65,33 -100,74 -8,9 -14,18 0,-8 -0.5,-23.5 Q 486,342 486,334 q 0,-16 1,-24 3,-11 9,-23 7,-11 18,-20 8,14 23,15 11,1 20.5,-5.5 Q 567,270 570,259 573,248 567.5,237.5 562,227 551,223 q -11,-4 -22,0 -11,4 -16,15 -3,6 -3,13 0,4 1,9 -14,8 -24,18 l -1,1 -1,2 v -14 q -1,-59 -3,-90 -1,-37 -1,-55 v -12 q 2,0 8,-2 11,-3 18,-13 7,-10 7,-21 0,-13 -7.5,-22.5 Q 499,42 487,39 477,36 465.5,40 454,44 448,54 q -15,22 0,42 10,12 26,14 v 1 q 0,6 -0.5,17.5 -0.5,11.5 -0.5,17.5 0,12 -1,37 -1,25 -1,37 -2,40 -2,60 -10,-13 -25,-21 1,-5 1,-8 0,-7 -3,-14 -5,-10 -16,-14.5 -11,-4.5 -22,-0.5 -11,4 -16.5,14.5 -5.5,10.5 -2.5,21.5 3,12 12.5,18.5 9.5,6.5 20.5,4.5 15,-1 23,-14 9,8 16,18 7,14 9,22 3,15 2,26 -1,8 -1.5,23.5 -0.5,15.5 -0.5,23.5 -16,-24 -34,-40 -21,-18 -51,-36 -18,-11 -28,-16 -10,-4 -15,-7 12,-18 21,-35 29,-58 28,-120 0,-33 -7,-55 h 2 Q 393,67 399.5,57.5 406,48 406,36 406,24 399,14 392,4 380,2 q -11,-4 -22,0 -11,4 -18,14 -14,22 1,42 13,17 33,14 l 1,3 q 4,22 3,57 -2,40 -18,78 -2,-7 -6,-15 -6,-10 -10,-16 9,-8 9,-20 0,-9 -3,-14 -6,-10 -17,-14.5 -11,-4.5 -22,-0.5 -11,4 -16.5,14.5 -5.5,10.5 -2.5,21.5 3,12 12.5,18.5 9.5,6.5 21.5,4.5 7,-1 14,-5 0,1 1.5,4 1.5,3 2.5,4 12,23 6,42 -2,2 -4.5,7 -2.5,5 -4.5,8 -3,4 -8.5,12.5 -5.5,8.5 -8.5,12.5 -27,-14 -43,-36 -18,-23 -25,-55 -7,-28 -5,-61 0,-6 1,-15 h 6 q 12,-2 19.5,-11 7.5,-9 7.5,-20 0,-6 -3,-14 -5,-10 -16,-14.5 -11,-4.5 -22,0 -11,4.5 -16.5,15 Q 222,73 225,84 q 3,17 21,22 -8,51 4,93 9,33 30,58 -11,-3 -26,-2 -18,3 -30,16 -12,-6 -23,-1 -11,4 -16.5,14.5 -5.5,10.5 -2.5,21.5 3,11 12.5,18 9.5,7 20.5,5 12,-1 19.5,-10 7.5,-9 7.5,-21 0,-9 -3,-14 -3,-5 -9,-10 9,-7 20,-10 22,-3 54,15 3,3 11,8 -31,41 -42,65 -7,15 -11,27 -4,-1 -14,-1 -3,0 -10,1 l -1,-1 q -5,-10 -16,-14.5 -11,-4.5 -22,-0.5 -11,4 -17,14.5 -6,10.5 -3,21.5 3,12 13,18.5 10,6.5 21,4.5 11,-1 19,-10 8,-9 8,-20 0,-4 -1,-6 h 8 q 6,0 11,3 -8,36 -2,66 0,2 1,5 1,3 1,4 -33,11 -59,2 -32,-11 -41,-51 -5,-24 -5,-65 0,-28 3,-64 3,-22 9,-64 7,1 16,-2 11,-3 17.5,-13 6.5,-10 6.5,-22 0,-12 -7,-21.5 -7,-9.5 -19,-12.5 -11,-3 -22,1 -11,4 -17,14 -15,22 0,42 8,10 19,12 -3,10 -6,28 -13,74 -13,118 -2,76 33,105 22,17 53,17 -25,26 -37,62 -8,27 -10,52 -24,-28 -43,-65 -24,-50 -39,-119 -7,-30 -9,-45 2,0 5,-2 11,-3 17.5,-13 6.5,-10 6.5,-22 0,-12 -7,-21.5 -7,-9.5 -19,-12.5 -11,-3 -22,1 -11,4 -18,14 -14,22 1,42 10,13 28,14 4,29 10,59 8,44 22,81 -13,-9 -28,-6 -11,1 -25,11 -5,-4 -13,-7 -11,-3 -22.5,1 -11.5,4 -17.5,14 -14,22 1,42 7,9 18.5,12.5 Q 37,584 48,580 q 10,-3 17,-13 7,-10 7,-21 0,-13 -8,-23 5,-3 10,-5 18,-6 33,4 6,4 16,19 0,1 0.5,2 0.5,1 0.5,2 13,29 28,51 -36,-12 -60,7 -24,15 -24,49 0,6 2,16 -11,4 -16.5,14.5 Q 48,693 51,704 q 2,11 12,17.5 10,6.5 21,5.5 12,-2 19.5,-10.5 7.5,-8.5 7.5,-20.5 0,-6 -3,-14 -10,-19 -31,-17 v -1 q -3,-34 16,-49 21,-13 43,-8.5 22,4.5 40,21.5 0,15 1,46 2,31 8,65 -12,4 -19,14 -14,22 1,42 7,9 18.5,12.5 11.5,3.5 22.5,-0.5 11,-3 17.5,-13 6.5,-10 6.5,-21 0,-13 -7,-22.5 -7,-9.5 -19,-12.5 -4,-1 -13,-1 -3,-25 -4,-36 -2,-37 0,-62 l 1,1 1,2 1,1 q 46,41 107,49 76,11 112,38 l 17,17 q -18,-6 -39,-4 -38,6 -60,44 -10,-3 -21,0 -11,4 -16.5,14.5 -5.5,10.5 -2.5,21.5 3,12 12.5,18.5 9.5,6.5 21.5,4.5 11,-1 19,-10 8,-9 8,-20 0,-9 -4,-14 -3,-7 -10,-12 3,-5 8,-8 22,-20 52,-16 28,3 41,24 5,9 10,27 1,8 1,23 0,15 -1,46 -1,31 -2,47 0,11 -1,33 -1,22 -1,33 0,5 -0.5,13 -0.5,8 -0.5,12 h 66 v -7 q 0,-8 -0.5,-24 -0.5,-16 -0.5,-23 -2,-57 -3,-85 -1,-8 -1.5,-23 -0.5,-15 -0.5,-23 0,-15 2,-23 2,-13 9,-26 13,-21 39,-25 15,-3 27,1 14,4 24,13 4,4 12,11 -8,5 -11,12 -3,6 -3,14 0,11 7.5,19.5 7.5,8.5 19.5,10.5 11,1 21,-5.5 10,-6.5 12,-17.5 3,-11 -2.5,-21.5 Q 653,791 642,787 q -10,-3 -20,0 -5,-8 -10,-14 -19,-24 -49,-29 -21,-3 -39,3 6,-8 14,-14 36,-30 107,-40 31,-4 59,-15 25,-10 50,-30 3,-3 10,-9 1,11 1,33 -1,37 -5,65 -7,-1 -13,2 -12,3 -19.5,13 -7.5,10 -7.5,21 0,26 25,35 11,4 22.5,0.5 11.5,-3.5 18.5,-13 7,-9.5 7,-21 0,-11.5 -7,-21.5 -6,-10 -19,-13 5,-23 7,-46 4,-38 3,-65 17,-16 37.5,-21 20.5,-5 41.5,5 21,13 21,43 0,7 -1,11 -22,-3 -31,17 -3,6 -3,13 0,12 7.5,21 7.5,9 19,10 11.5,1 21,-5.5 Q 899,716 902,705 905,694 899.5,683.5 894,673 883,669 q 2,-9 2,-13 1,-34 -23,-51 -26,-19 -60,-7 14,-21 24,-45 l 5,-10 q 18,-31 43,-25 9,2 16,7 -9,10 -9,23 0,25 25,35 11,3 22.5,0 11.5,-3 18.5,-13 9,-25 -3,-43 z M 278,455 q -7,-23 -4,-50 l 30,36 q 1,2 3,4 l 3,3 q -6,1 -32,7 z m 43,18 q 34,0 58,15 22,14 40,40 16,23 27,54 3,8 8,25 l -8.5,-8.5 q 0,0 -8,-8.5 -8,-8.5 -9.5,-8.5 -1.5,0 -9,-7 -7.5,-7 -9.5,-7 -2,0 -9.5,-6.5 l -10.5,-7 q 0,0 -9.5,-6 -9.5,-6 -10.5,-6 -1,0 -10.5,-6 -53,-32 -71,-59 18,-4 33,-4 z m 254,71 q -54,33 -81,64 3,-12 6,-19 8,-24 20,-46 28,-51 72,-65 29,-8 67,0 -5,7 -11.5,14 -6.5,7 -11.5,11.5 -5,4.5 -15.5,12 -10.5,7.5 -14.5,9.5 -4,2 -16.5,10 -12.5,8 -14.5,9 z m 94,-88 q -16,-6 -32,-7 l 3,-3 q 0,0 2,-3 6,-6 16,-18.5 10,-12.5 15,-19.5 4,28 -4,51 z M 544,349 q 21,-20 52,-38 4,-2 13.5,-7 9.5,-5 13.5,-8 32,48 42,73 4,13 6,20 l -2,2 q -12,11 -35,34 -24,22 -36,26 h -6 q -13,3 -27,9 1,-5 2,-6 5,-13 10,-33 h 1 q 11,1 21,-5.5 10,-6.5 13,-17.5 2,-12 -3.5,-22 -5.5,-10 -16.5,-14 -11,-4 -22,0 -11,4 -16,14 -3,6 -3,14 0,20 18,28 -9,17 -13,23 l -20,30 q -3,4 -11,13 -1,1 -2.5,3 -1.5,2 -2.5,3 l -4,4 q -12,14 -18,22 -3,4 -7,11 0,-9 -1,-13 -1,-11 -1.5,-31.5 Q 488,462 487,451 493,398 544,349 Z M 325,296 q 34,18 46,27 29,21 47,41 23,25 33,51 7,18 8,38 0,13 -1,37.5 -1,24.5 -1,37.5 -1,0 -1,-1 0,-1 -1,-1 -9,-14 -23,-32 h -1 l -9,-9 q -4,-4 -10,-13 -11,-15 -18,-28 l -15,-27 q 18,-9 18,-28 0,-6 -3,-13 -5,-11 -16,-15 -11,-4 -22,0 -11,4 -16.5,14.5 -5.5,10.5 -3.5,21.5 3,12 13,18.5 10,6.5 21,4.5 h 1 q 4,16 9,29 1,2 2.5,5.5 1.5,3.5 1.5,4.5 -1,0 -3,-1 -2,-1 -3,-1 -12,-5 -27,-7 -15,-5 -35,-25 l -11,-11 q 0,0 -13,-12.5 -13,-12.5 -11,-9.5 -1,-1 -2,-1.5 -1,-0.5 -2,-1.5 6,-21 13,-33 9,-22 35,-60 z m -17,375 q -56,-3 -101,-37 -10,-8 -18,-16 0,-5 1.5,-14.5 1.5,-9.5 2.5,-14.5 16,-69 60,-96 3,-2 11,-6 16,31 60,63 5,3 21.5,14.5 16.5,11.5 25.5,18.5 -27,1 -53,14 -14,-18 -35,-11 -11,4 -16.5,14.5 -5.5,10.5 -2.5,21.5 3,12 12.5,18.5 9.5,6.5 20.5,4.5 12,-1 19.5,-10 7.5,-9 7.5,-20 0,-7 -2,-13 1,0 2.5,-0.5 1.5,-0.5 2.5,-0.5 26,-8 50,-2 20,4 38,20 l 4,4 q 20,24 28,50 4,17 3,45 -13,-11 -28,-20 -44,-25 -114,-27 z m 381,-10 q -24,8 -49,10 -29,1 -57,7 -52,11 -86,40 -1,-28 4,-46 0,-2 1.5,-5.5 1.5,-3.5 1.5,-5.5 9,-22 28,-42 h 1 q 15,-13 36,-20 23,-6 50,0 1,1 3.5,1.5 2.5,0.5 4.5,1.5 -2,5 -2,12 0,12 7.5,20.5 7.5,8.5 19,10 11.5,1.5 21,-5 9.5,-6.5 12.5,-17.5 3,-12 -2.5,-22 -5.5,-10 -16.5,-14 -22,-8 -35,10 -6,-3 -11,-5 -18,-9 -41,-10 2,-2 24.5,-17 22.5,-15 34.5,-24 26,-20 42,-42 1,-2 3.5,-5.5 2.5,-3.5 3.5,-5.5 38,19 57,63 13,30 17,67 -38,33 -72,44 z"
         id="path825" />
    </g>
    <g
       id="g889"
       transform="matrix(0.02623623,0,0,0.02929688,36.802142,21.292083)">
      <g
         id="icomoon-ignore-5" />
      <path
         d="m 0,244 29,-35 q 42,36 88,36 23,0 36.5,-9.5 Q 167,226 167,211 v -2 Q 167,194 154.5,185 142,176 105,167 56,156 33.5,138 11,120 11,84 V 83 Q 11,48 38,25.5 65,3 107,3 164,3 208,37 L 181,74 Q 144,46 106,46 85,46 72.5,55.5 60,65 60,79 v 1 q 0,17 13,25.5 13,8.5 53,18.5 46,11 68,29.5 22,18.5 22,52.5 v 1 q 0,38 -27.5,60.5 Q 161,290 116,290 50,288 0,244 Z M 363,4 h 46 L 531,285 H 479 L 451,217 H 319 l -28,68 H 241 Z M 432,174 383,63 336,174 Z M 575,5 h 44 L 769,198 V 5 h 48 V 285 H 776 L 622,86 V 285 H 575 Z M 954,51 H 864 V 5 h 226 v 46 h -88 V 285 H 954 Z M 1201,4 h 46 l 123,281 h -52 l -28,-68 h -132 l -28,68 h -50 z m 71,170 -49,-111 -47,111 z M 1530,5 h 48 v 235 h 147 v 45 h -195 z m 229,161 V 5 h 49 v 158 q 0,39 18.5,59.5 18.5,20.5 51.5,20.5 33,0 51.5,-20.5 Q 1948,202 1948,165 V 4 h 49 v 158 q 0,61 -32,93 -32,32 -88,32 -55,1 -86.5,-30.5 Q 1759,225 1759,166 Z m 290,-20 Q 2049,84 2089.5,42 2130,0 2194,0 q 65,0 108,43 l -32,36 q -39,-34 -78,-34 -40,0 -66,28 -26,28 -26,70 v 1 q 0,42 26.5,71 26.5,29 65.5,29 41,0 81,-36 l 32,32 q -48,50 -114,50 -61,-1 -101.5,-42.5 Q 2049,206 2049,146 Z M 2354,5 h 49 v 278 h -49 z m 219,-1 h 46 l 122,281 h -52 l -28,-68 h -132 l -28,68 h -50 z m 70,170 -49,-111 -47,111 z"
         id="path879" />
    </g>
  </g>
</svg>
