<?xml version="1.0" encoding="utf-8"?>
<!-- Generator: Adobe Illustrator 25.3.1, SVG Export Plug-In . SVG Version: 6.00 Build 0)  -->
<svg version="1.1" id="Livello_1" xmlns="http://www.w3.org/2000/svg" xmlns:xlink="http://www.w3.org/1999/xlink" x="0px" y="0px"
	 viewBox="0 0 140.2 45" style="enable-background:new 0 0 140.2 45;" xml:space="preserve">
<style type="text/css">
	.st0{fill:#FFFFFF;}
	.st1{fill:#034EA2;}
	.st2{fill:#FFF200;}
	.st3{fill:#68628B;}
</style>
<rect x="0.9" y="6.1" class="st0" width="47.5" height="32.3"/>
<rect x="1.3" y="6.3" class="st1" width="46.8" height="31.2"/>
<polygon class="st2" points="23.7,13.1 24.7,12.4 25.7,13.1 25.3,12 26.3,11.3 25.1,11.3 24.7,10.1 24.3,11.3 23.1,11.3 24.1,12 "/>
<polygon class="st2" points="18.6,14.5 19.6,13.8 20.6,14.5 20.2,13.3 21.2,12.6 19.9,12.6 19.6,11.4 19.2,12.6 18,12.6 19,13.3 "/>
<polygon class="st2" points="15.8,15.2 15.4,16.4 14.2,16.4 15.2,17.1 14.8,18.3 15.8,17.5 16.8,18.3 16.4,17.1 17.4,16.4 
	16.2,16.4 "/>
<polygon class="st2" points="14.5,22.6 15.4,23.4 15.1,22.2 16.1,21.5 14.8,21.5 14.5,20.3 14.1,21.5 12.8,21.5 13.8,22.2 
	13.5,23.4 "/>
<polygon class="st2" points="16.2,26.6 15.8,25.4 15.4,26.6 14.2,26.6 15.2,27.3 14.8,28.5 15.8,27.8 16.8,28.5 16.4,27.3 
	17.4,26.6 "/>
<polygon class="st2" points="20,30.3 19.6,29.2 19.2,30.3 18,30.3 19,31.1 18.6,32.2 19.6,31.5 20.6,32.2 20.2,31.1 21.2,30.3 "/>
<polygon class="st2" points="25.1,31.7 24.7,30.5 24.3,31.7 23.1,31.7 24.1,32.4 23.7,33.6 24.7,32.9 25.7,33.6 25.3,32.4 
	26.3,31.7 "/>
<polygon class="st2" points="30.2,30.3 29.8,29.2 29.4,30.3 28.2,30.3 29.2,31.1 28.8,32.2 29.8,31.5 30.8,32.2 30.4,31.1 
	31.4,30.3 "/>
<polygon class="st2" points="33.9,26.6 33.5,25.4 33.1,26.6 31.9,26.6 32.9,27.3 32.5,28.5 33.5,27.8 34.5,28.5 34.1,27.3 
	35.1,26.6 "/>
<polygon class="st2" points="36.5,21.5 35.3,21.5 34.9,20.3 34.5,21.5 33.3,21.5 34.3,22.2 33.9,23.4 34.9,22.6 35.9,23.4 
	35.5,22.2 "/>
<polygon class="st2" points="32.5,18.2 33.5,17.5 34.5,18.2 34.1,17.1 35.1,16.4 33.9,16.4 33.5,15.2 33.1,16.4 31.9,16.4 
	32.9,17.1 "/>
<polygon class="st2" points="29.8,11.4 29.4,12.6 28.2,12.6 29.2,13.4 28.8,14.5 29.8,13.8 30.8,14.5 30.4,13.4 31.4,12.6 
	30.2,12.6 "/>
<g>
	<g>
		<path class="st1" d="M55.6,8.2h3.7v1h-2.5V11h2.3v0.9h-2.3v2.7h-1.2V8.2z"/>
		<path class="st1" d="M61.6,8.6c0,0.3-0.2,0.6-0.7,0.6c-0.4,0-0.6-0.3-0.6-0.6c0-0.4,0.3-0.6,0.6-0.6C61.3,8,61.6,8.3,61.6,8.6z
			 M60.4,14.5V9.9h1.2v4.6C61.6,14.5,60.4,14.5,60.4,14.5z"/>
		<path class="st1" d="M62.8,11.3c0-0.5,0-1,0-1.4h1l0.1,0.7l0,0c0.2-0.4,0.7-0.8,1.5-0.8s1.6,0.5,1.6,2v2.7h-1.2v-2.6
			c0-0.7-0.2-1.2-0.9-1.2c-0.5,0-0.8,0.3-0.9,0.7c0,0.1-0.1,0.2-0.1,0.4v2.7h-1.2L62.8,11.3L62.8,11.3z"/>
		<path class="st1" d="M70.7,14.5L70.6,14l0,0c-0.3,0.4-0.8,0.6-1.4,0.6c-0.9,0-1.4-0.7-1.4-1.4c0-1.2,1-1.7,2.7-1.7v-0.1
			c0-0.3-0.1-0.8-0.9-0.8c-0.4,0-0.9,0.1-1.2,0.3l-0.2-0.7c0.3-0.2,0.9-0.4,1.7-0.4c1.5,0,1.9,0.9,1.9,1.9v1.7c0,0.4,0,0.8,0.1,1.1
			C71.9,14.5,70.7,14.5,70.7,14.5z M70.6,12.3c-0.8,0-1.6,0.2-1.6,0.9c0,0.4,0.3,0.7,0.7,0.7c0.5,0,0.8-0.3,0.9-0.6
			c0-0.1,0-0.2,0-0.3V12.3z"/>
		<path class="st1" d="M72.9,11.3c0-0.5,0-1,0-1.4h1l0.1,0.7l0,0c0.2-0.4,0.7-0.8,1.5-0.8s1.6,0.5,1.6,2v2.7h-1.2v-2.6
			c0-0.7-0.2-1.2-0.9-1.2c-0.5,0-0.8,0.3-0.9,0.7c0,0.1-0.1,0.2-0.1,0.4v2.7h-1.2L72.9,11.3L72.9,11.3z"/>
		<path class="st1" d="M77.9,13.8l1.7-2.2c0.2-0.3,0.4-0.5,0.7-0.8l0,0h-2.2V9.9h3.6v0.7L80,12.8c-0.2,0.3-0.4,0.5-0.7,0.8l0,0h2.4
			v0.9h-3.9L77.9,13.8L77.9,13.8z"/>
		<path class="st1" d="M83.8,8.6c0,0.3-0.2,0.6-0.7,0.6c-0.4,0-0.6-0.3-0.6-0.6c0-0.4,0.3-0.6,0.6-0.6C83.5,8,83.8,8.3,83.8,8.6z
			 M82.6,14.5V9.9h1.2v4.6C83.8,14.5,82.6,14.5,82.6,14.5z"/>
		<path class="st1" d="M87.5,14.5L87.4,14l0,0c-0.3,0.4-0.8,0.6-1.4,0.6c-0.9,0-1.4-0.7-1.4-1.4c0-1.2,1-1.7,2.7-1.7v-0.1
			c0-0.3-0.1-0.8-0.9-0.8c-0.4,0-0.9,0.1-1.2,0.3L85,10.2c0.3-0.2,0.9-0.4,1.7-0.4c1.5,0,1.9,0.9,1.9,1.9v1.7c0,0.4,0,0.8,0.1,1.1
			H87.5z M87.4,12.3c-0.8,0-1.6,0.2-1.6,0.9c0,0.4,0.3,0.7,0.7,0.7c0.5,0,0.8-0.3,0.9-0.6c0-0.1,0-0.2,0-0.3V12.3z"/>
		<path class="st1" d="M91.1,8.6v1.3h1.1v0.9h-1.1v2c0,0.6,0.1,0.8,0.6,0.8c0.2,0,0.3,0,0.5-0.1v0.9c-0.2,0.1-0.5,0.1-0.8,0.1
			c-0.4,0-0.8-0.1-1-0.4c-0.2-0.3-0.4-0.7-0.4-1.3v-2.2h-0.7V9.7H90v-1L91.1,8.6z"/>
		<path class="st1" d="M97.4,12.2c0,1.7-1.2,2.4-2.4,2.4c-1.3,0-2.3-0.9-2.3-2.4s1-2.4,2.4-2.4S97.4,10.8,97.4,12.2z M94,12.2
			c0,0.9,0.4,1.5,1.1,1.5s1.1-0.6,1.1-1.6c0-0.7-0.3-1.5-1.1-1.5C94.3,10.7,94,11.5,94,12.2z"/>
	</g>
</g>
<g>
	<g>
		<path class="st1" d="M59.8,19.1v5.4c0,0.5,0,1,0,1.3h-1l-0.1-0.7l0,0c-0.3,0.5-0.8,0.8-1.5,0.8c-1.1,0-2-0.9-2-2.3
			c0-1.5,1-2.4,2.1-2.4c0.6,0,1.1,0.3,1.3,0.6l0,0v-2.6L59.8,19.1L59.8,19.1z M58.6,23.1c0-0.1,0-0.2,0-0.3c-0.1-0.4-0.5-0.8-1-0.8
			c-0.7,0-1.2,0.7-1.2,1.5s0.4,1.5,1.1,1.5c0.5,0,0.9-0.3,1-0.8c0-0.1,0-0.2,0-0.3L58.6,23.1L58.6,23.1z"/>
		<path class="st1" d="M63.6,25.8l-0.1-0.5l0,0c-0.3,0.4-0.8,0.6-1.4,0.6c-0.9,0-1.4-0.7-1.4-1.4c0-1.2,1-1.7,2.7-1.7v-0.1
			c0-0.3-0.1-0.8-0.9-0.8c-0.4,0-0.9,0.1-1.2,0.3L61,21.5c0.3-0.2,0.9-0.4,1.7-0.4c1.5,0,1.9,0.9,1.9,1.9v1.7c0,0.4,0,0.8,0.1,1.1
			C64.7,25.8,63.6,25.8,63.6,25.8z M63.5,23.6c-0.8,0-1.6,0.2-1.6,0.9c0,0.4,0.3,0.7,0.7,0.7c0.5,0,0.8-0.3,0.9-0.6
			c0-0.1,0-0.2,0-0.3C63.5,24.3,63.5,23.6,63.5,23.6z"/>
		<path class="st1" d="M65.8,19.1H67v6.7h-1.2V19.1z"/>
		<path class="st1" d="M68.2,19.1h1.2v6.7h-1.2V19.1z"/>
		<path class="st1" d="M72,19.4c-0.3,0.9-0.7,1.8-1,2.4l-0.7,0.1c0.2-0.7,0.5-1.6,0.6-2.4L72,19.4z"/>
		<path class="st1" d="M74.1,19.5v3.7c0,1.2,0.5,1.8,1.3,1.8s1.3-0.6,1.3-1.8v-3.7h1.2v3.6c0,2-1,2.8-2.5,2.8S73,25.1,73,23.1v-3.6
			H74.1z"/>
		<path class="st1" d="M79.1,22.6c0-0.5,0-1,0-1.4h1l0.1,0.7l0,0c0.2-0.4,0.7-0.8,1.5-0.8s1.6,0.5,1.6,2v2.7h-1.2v-2.6
			c0-0.7-0.2-1.2-0.9-1.2c-0.5,0-0.8,0.3-0.9,0.7c0,0.1-0.1,0.2-0.1,0.4v2.7H79L79.1,22.6L79.1,22.6z"/>
		<path class="st1" d="M85.8,19.9c0,0.3-0.2,0.6-0.7,0.6c-0.4,0-0.6-0.3-0.6-0.6c0-0.4,0.3-0.6,0.6-0.6
			C85.5,19.3,85.8,19.6,85.8,19.9z M84.5,25.8v-4.6h1.2v4.6H84.5z"/>
		<path class="st1" d="M91.3,23.5c0,1.7-1.2,2.4-2.4,2.4c-1.3,0-2.3-0.9-2.3-2.4s1-2.4,2.4-2.4S91.3,22.1,91.3,23.5z M87.8,23.5
			c0,0.9,0.4,1.5,1.1,1.5s1.1-0.6,1.1-1.6c0-0.7-0.3-1.5-1.1-1.5C88.2,22,87.8,22.8,87.8,23.5z"/>
		<path class="st1" d="M92.3,22.6c0-0.5,0-1,0-1.4h1l0.1,0.7l0,0c0.2-0.4,0.7-0.8,1.5-0.8s1.6,0.5,1.6,2v2.7h-1.2v-2.6
			c0-0.7-0.2-1.2-0.9-1.2c-0.5,0-0.8,0.3-0.9,0.7c0,0.1-0.1,0.2-0.1,0.4v2.7h-1.2L92.3,22.6L92.3,22.6z"/>
		<path class="st1" d="M98.5,23.8c0,0.8,0.7,1.2,1.4,1.2c0.5,0,0.9-0.1,1.3-0.2l0.2,0.8c-0.4,0.2-0.9,0.3-1.6,0.3
			c-1.5,0-2.4-0.9-2.4-2.3c0-1.3,0.8-2.5,2.2-2.5c1.5,0,2,1.2,2,2.2c0,0.2,0,0.4,0,0.5H98.5z M100.5,23c0-0.4-0.2-1.1-1-1.1
			c-0.7,0-1,0.6-1.1,1.1H100.5z"/>
		<path class="st1" d="M105.3,23.8c0,0.8,0.7,1.2,1.4,1.2c0.5,0,0.9-0.1,1.3-0.2l0.2,0.8c-0.4,0.2-0.9,0.3-1.6,0.3
			c-1.5,0-2.4-0.9-2.4-2.3c0-1.3,0.8-2.5,2.2-2.5c1.5,0,2,1.2,2,2.2c0,0.2,0,0.4,0,0.5H105.3z M107.3,23c0-0.4-0.2-1.1-1-1.1
			c-0.7,0-1,0.6-1.1,1.1H107.3z"/>
		<path class="st1" d="M113.4,24.4c0,0.5,0,1,0,1.4h-1l-0.1-0.7l0,0c-0.2,0.3-0.6,0.8-1.5,0.8c-0.8,0-1.6-0.5-1.6-2v-2.7h1.2v2.5
			c0,0.8,0.2,1.2,0.9,1.2c0.5,0,0.8-0.3,0.9-0.6c0-0.1,0.1-0.2,0.1-0.4v-2.7h1.2L113.4,24.4L113.4,24.4z"/>
		<path class="st1" d="M114.7,22.7c0-0.6,0-1.1,0-1.5h1v0.9l0,0c0.2-0.6,0.8-1,1.3-1c0.1,0,0.2,0,0.3,0v1.1c-0.1,0-0.2,0-0.3,0
			c-0.6,0-0.9,0.4-1,0.9c0,0.1,0,0.2,0,0.3v2.4h-1.2v-3.1C114.8,22.7,114.7,22.7,114.7,22.7z"/>
		<path class="st1" d="M122.4,23.5c0,1.7-1.2,2.4-2.4,2.4c-1.3,0-2.3-0.9-2.3-2.4s1-2.4,2.4-2.4S122.4,22.1,122.4,23.5z M118.9,23.5
			c0,0.9,0.4,1.5,1.1,1.5s1.1-0.6,1.1-1.6c0-0.7-0.3-1.5-1.1-1.5C119.2,22,118.9,22.8,118.9,23.5z"/>
		<path class="st1" d="M123.3,22.7c0-0.6,0-1.1,0-1.5h1l0.1,0.7l0,0c0.3-0.5,0.9-0.8,1.6-0.8c1.1,0,1.9,0.9,1.9,2.3
			c0,1.7-1,2.5-2.1,2.5c-0.6,0-1.1-0.2-1.3-0.6l0,0v2.4h-1.2V22.7z M124.5,23.9c0,0.1,0,0.2,0,0.3c0.1,0.5,0.5,0.8,1,0.8
			c0.7,0,1.2-0.6,1.2-1.5c0-0.8-0.4-1.5-1.1-1.5c-0.5,0-0.9,0.3-1,0.9c0,0.1,0,0.2,0,0.3L124.5,23.9L124.5,23.9z"/>
		<path class="st1" d="M129.6,23.8c0,0.8,0.7,1.2,1.4,1.2c0.5,0,0.9-0.1,1.3-0.2l0.2,0.8c-0.4,0.2-0.9,0.3-1.6,0.3
			c-1.5,0-2.4-0.9-2.4-2.3c0-1.3,0.8-2.5,2.2-2.5c1.5,0,2,1.2,2,2.2c0,0.2,0,0.4,0,0.5H129.6z M131.7,23c0-0.4-0.2-1.1-1-1.1
			c-0.7,0-1,0.6-1.1,1.1H131.7z"/>
		<path class="st1" d="M136.3,25.8l-0.1-0.5l0,0c-0.3,0.4-0.8,0.6-1.4,0.6c-0.9,0-1.4-0.7-1.4-1.4c0-1.2,1-1.7,2.7-1.7v-0.1
			c0-0.3-0.1-0.8-0.9-0.8c-0.4,0-0.9,0.1-1.2,0.3l-0.2-0.8c0.3-0.2,0.9-0.4,1.7-0.4c1.5,0,1.9,0.9,1.9,1.9v1.7c0,0.4,0,0.8,0.1,1.1
			L136.3,25.8L136.3,25.8z M136.1,23.6c-0.8,0-1.6,0.2-1.6,0.9c0,0.4,0.3,0.7,0.7,0.7c0.5,0,0.8-0.3,0.9-0.6c0-0.1,0-0.2,0-0.3
			L136.1,23.6L136.1,23.6z"/>
	</g>
</g>
<g>
	<g>
		<path class="st3" d="M55.5,36.9v-5.1h1.1l1.3,2.2c0.3,0.6,0.6,1.2,0.9,1.7l0,0c-0.1-0.7-0.1-1.3-0.1-2.1v-1.8h0.9v5.1h-1l-1.3-2.2
			c-0.3-0.6-0.7-1.2-0.9-1.8l0,0c0,0.7,0,1.3,0,2.2v1.8H55.5z"/>
		<path class="st3" d="M61.2,35.3c0,0.7,0.5,1,1.1,1c0.4,0,0.7-0.1,1-0.2l0.1,0.6c-0.3,0.1-0.8,0.2-1.3,0.2c-1.2,0-1.9-0.7-1.9-1.9
			c0-1,0.6-2,1.8-2s1.6,1,1.6,1.8c0,0.2,0,0.3,0,0.4h-2.4C61.2,35.2,61.2,35.3,61.2,35.3z M62.8,34.6c0-0.3-0.1-0.9-0.8-0.9
			c-0.6,0-0.8,0.5-0.9,0.9H62.8z"/>
		<path class="st3" d="M65.1,33.2l0.4,0.7c0.1,0.2,0.2,0.4,0.3,0.6l0,0c0.1-0.2,0.2-0.4,0.3-0.6l0.4-0.7h1L66.3,35l1.3,1.9h-1.1
			l-0.4-0.7c-0.1-0.2-0.2-0.4-0.3-0.6l0,0c-0.1,0.2-0.2,0.4-0.3,0.6L65,36.9h-1l1.3-1.9L64,33.2H65.1z"/>
		<path class="st3" d="M69.3,32.1v1.1h0.9v0.7h-0.9v1.6c0,0.5,0.1,0.7,0.5,0.7c0.2,0,0.3,0,0.4,0v0.7C70.1,37,69.8,37,69.5,37
			s-0.6-0.1-0.8-0.3c-0.2-0.2-0.3-0.5-0.3-1V34h-0.5v-0.8h0.5v-0.8L69.3,32.1z"/>
		<path class="st3" d="M75.1,36.7c-0.3,0.1-1,0.3-1.6,0.3c-0.9,0-1.5-0.2-2-0.7c-0.5-0.4-0.7-1.1-0.7-1.9c0-1.6,1.2-2.7,2.8-2.7
			c0.6,0,1.1,0.1,1.4,0.2l-0.2,0.8c-0.3-0.1-0.6-0.2-1.2-0.2c-1.1,0-1.9,0.6-1.9,1.8s0.7,1.8,1.8,1.8c0.3,0,0.6,0,0.7-0.1v-1.3h-0.9
			V34h1.8L75.1,36.7L75.1,36.7z"/>
		<path class="st3" d="M76.7,35.3c0,0.7,0.5,1,1.1,1c0.4,0,0.7-0.1,1-0.2l0.1,0.6c-0.3,0.1-0.8,0.2-1.3,0.2c-1.2,0-1.9-0.7-1.9-1.9
			c0-1,0.6-2,1.8-2c1.2,0,1.6,1,1.6,1.8c0,0.2,0,0.3,0,0.4h-2.4C76.7,35.2,76.7,35.3,76.7,35.3z M78.3,34.6c0-0.3-0.1-0.9-0.8-0.9
			c-0.6,0-0.8,0.5-0.9,0.9H78.3z"/>
		<path class="st3" d="M80,34.3c0-0.4,0-0.8,0-1.1h0.8v0.6l0,0c0.2-0.3,0.6-0.6,1.2-0.6s1.3,0.4,1.3,1.6V37h-0.9v-2.1
			c0-0.5-0.2-0.9-0.7-0.9c-0.4,0-0.6,0.3-0.7,0.5c0,0.1,0,0.2,0,0.3V37h-0.9v-2.7H80z"/>
		<path class="st3" d="M84.9,35.3c0,0.7,0.5,1,1.1,1c0.4,0,0.7-0.1,1-0.2l0.1,0.6c-0.3,0.1-0.8,0.2-1.3,0.2c-1.2,0-1.9-0.7-1.9-1.9
			c0-1,0.6-2,1.8-2c1.2,0,1.6,1,1.6,1.8c0,0.2,0,0.3,0,0.4h-2.4C84.9,35.2,84.9,35.3,84.9,35.3z M86.6,34.6c0-0.3-0.1-0.9-0.8-0.9
			c-0.6,0-0.8,0.5-0.9,0.9H86.6z"/>
		<path class="st3" d="M88.2,34.4c0-0.5,0-0.9,0-1.2H89v0.7l0,0c0.2-0.5,0.6-0.8,1-0.8c0.1,0,0.1,0,0.2,0V34c-0.1,0-0.2,0-0.3,0
			c-0.4,0-0.8,0.3-0.8,0.7c0,0.1,0,0.2,0,0.3v1.9h-0.9C88.2,36.9,88.2,34.4,88.2,34.4z"/>
		<path class="st3" d="M92.9,36.9l-0.1-0.4l0,0c-0.2,0.3-0.6,0.5-1.1,0.5c-0.7,0-1.2-0.5-1.2-1.1c0-0.9,0.8-1.4,2.2-1.4v-0.1
			c0-0.2-0.1-0.6-0.7-0.6c-0.4,0-0.7,0.1-1,0.3l-0.2-0.6c0.3-0.2,0.8-0.3,1.3-0.3c1.2,0,1.5,0.7,1.5,1.6v1.3c0,0.3,0,0.7,0.1,0.9
			h-0.8V36.9z M92.8,35.1c-0.7,0-1.3,0.1-1.3,0.7c0,0.4,0.2,0.5,0.5,0.5c0.4,0,0.6-0.2,0.7-0.5c0-0.1,0-0.1,0-0.2v-0.5H92.8z"/>
		<path class="st3" d="M95.8,32.1v1.1h0.9v0.7h-0.9v1.6c0,0.5,0.1,0.7,0.5,0.7c0.2,0,0.3,0,0.4,0v0.7C96.6,37,96.3,37,96,37
			c-0.3,0-0.6-0.1-0.8-0.3c-0.2-0.2-0.3-0.5-0.3-1V34h-0.5v-0.8h0.5v-0.8L95.8,32.1z"/>
		<path class="st3" d="M98.4,32.2c0,0.3-0.2,0.5-0.5,0.5s-0.5-0.2-0.5-0.5s0.2-0.5,0.5-0.5C98.2,31.7,98.4,31.9,98.4,32.2z
			 M97.4,36.9v-3.7h0.9v3.7H97.4z"/>
		<path class="st3" d="M102.8,35c0,1.4-1,2-1.9,2c-1,0-1.8-0.7-1.8-1.9s0.8-2,1.9-2C102.1,33.1,102.8,33.9,102.8,35z M100,35
			c0,0.7,0.4,1.2,0.9,1.2s0.9-0.5,0.9-1.3c0-0.6-0.3-1.2-0.9-1.2C100.3,33.8,100,34.4,100,35z"/>
		<path class="st3" d="M103.6,34.3c0-0.4,0-0.8,0-1.1h0.8v0.6l0,0c0.2-0.3,0.6-0.6,1.2-0.6s1.3,0.4,1.3,1.6V37H106v-2.1
			c0-0.5-0.2-0.9-0.7-0.9c-0.4,0-0.6,0.3-0.7,0.5c0,0.1,0,0.2,0,0.3V37h-1C103.6,37,103.6,34.3,103.6,34.3z"/>
		<path class="st3" d="M110.8,34.6h-1.9v1.5h2.1v0.8h-3.1v-5.1h3v0.8h-2v1.3h1.9V34.6z"/>
		<path class="st3" d="M112.8,31.8v3c0,1,0.4,1.5,1,1.5c0.7,0,1.1-0.5,1.1-1.5v-3h0.9v2.9c0,1.6-0.8,2.3-2,2.3s-1.9-0.7-1.9-2.3
			v-2.9C111.9,31.8,112.8,31.8,112.8,31.8z"/>
	</g>
</g>
</svg>
