<?xml version="1.0" encoding="UTF-8" standalone="no"?>
<!-- Created with Inkscape (http://www.inkscape.org/) -->

<svg
   width="63.256672mm"
   height="36.327229mm"
   viewBox="0 0 63.256673 36.327232"
   version="1.1"
   id="svg3528"
   inkscape:version="1.1.2 (b8e25be8, 2022-02-05)"
   sodipodi:docname="logo-italia-domani-ver-dark.svg"
   xmlns:inkscape="http://www.inkscape.org/namespaces/inkscape"
   xmlns:sodipodi="http://sodipodi.sourceforge.net/DTD/sodipodi-0.dtd"
   xmlns:xlink="http://www.w3.org/1999/xlink"
   xmlns="http://www.w3.org/2000/svg"
   xmlns:svg="http://www.w3.org/2000/svg">
  <sodipodi:namedview
     id="namedview3530"
     pagecolor="#ffffff"
     bordercolor="#666666"
     borderopacity="1.0"
     inkscape:pageshadow="2"
     inkscape:pageopacity="0.0"
     inkscape:pagecheckerboard="0"
     inkscape:document-units="mm"
     showgrid="false"
     fit-margin-top="0"
     fit-margin-left="0"
     fit-margin-right="0"
     fit-margin-bottom="0"
     inkscape:zoom="1.7906609"
     inkscape:cx="127.32729"
     inkscape:cy="220.30972"
     inkscape:window-width="1312"
     inkscape:window-height="1081"
     inkscape:window-x="989"
     inkscape:window-y="25"
     inkscape:window-maximized="0"
     inkscape:current-layer="layer2"
     showguides="true"
     inkscape:guide-bbox="true" />
  <defs
     id="defs3525">
    <polygon
       id="path-1"
       points="27.381982,0 27.381982,25.397587 0,25.397587 0,0 " />
  </defs>
  <g
     inkscape:groupmode="layer"
     id="layer2"
     inkscape:label="bg"
     style="display:inline;mix-blend-mode:screen"
     transform="translate(0.52916688,12.768995)">
    <rect
       style="fill:none;fill-opacity:1;stroke:none;stroke-width:0.126337;stroke-linecap:round;stroke-opacity:0.80593"
       id="rect4601"
       width="63.256672"
       height="36.327229"
       x="-0.52916688"
       y="-12.768995" />
  </g>
  <g
     inkscape:label="Layer 1"
     inkscape:groupmode="layer"
     id="layer1"
     transform="translate(-15.446256,-45.871416)"
     sodipodi:insensitive="true">
    <rect
       id="Rectangle"
       fill-opacity="0"
       fill="#ffffff"
       x="15.975423"
       y="58.640411"
       width="62.517887"
       height="23.029072"
       style="fill-rule:evenodd;stroke:none;stroke-width:0.344402" />
    <path
       d="m 18.421351,76.050246 v -0.137583 c -0.155927,-0.0092 -0.27402,-0.02752 -0.354277,-0.05503 -0.08026,-0.02752 -0.134143,-0.08255 -0.16166,-0.1651 -0.02752,-0.08255 -0.04128,-0.206375 -0.04128,-0.371475 v 0 -3.412067 c 0,-0.169686 0.01376,-0.294658 0.04128,-0.374915 0.02752,-0.08026 0.0814,-0.13529 0.16166,-0.1651 0.08026,-0.02981 0.19835,-0.04701 0.354277,-0.05159 v 0 -0.137584 c -0.10548,0.0046 -0.237331,0.0092 -0.395552,0.01376 -0.15822,0.0046 -0.317588,0.0069 -0.478102,0.0069 -0.178858,0 -0.346251,-0.0023 -0.502179,-0.0069 -0.155928,-0.0046 -0.282046,-0.0092 -0.378354,-0.01376 v 0 0.137584 c 0.155928,0.0046 0.27402,0.02178 0.354277,0.05159 0.08026,0.02981 0.134144,0.08484 0.16166,0.1651 0.02752,0.08026 0.04127,0.205229 0.04127,0.374915 v 0 3.412067 c 0,0.1651 -0.01376,0.288925 -0.04127,0.371475 -0.02752,0.08255 -0.0814,0.137583 -0.16166,0.1651 -0.08026,0.02752 -0.198349,0.04586 -0.354277,0.05503 v 0 0.137583 c 0.09631,-0.0092 0.222426,-0.0149 0.378354,-0.0172 0.155928,-0.0023 0.323321,-0.0034 0.502179,-0.0034 0.160514,0 0.319882,0.0011 0.478102,0.0034 0.158221,0.0023 0.290072,0.008 0.395552,0.0172 z m 1.820157,0.09631 c 0.279753,0 0.487274,-0.09172 0.622565,-0.275167 0.13529,-0.183445 0.225866,-0.408164 0.271727,-0.674158 v 0 l -0.137584,-0.0344 c -0.07338,0.265994 -0.160514,0.455171 -0.261408,0.567531 -0.100895,0.11236 -0.220133,0.16854 -0.357717,0.16854 -0.137583,0 -0.245357,-0.04357 -0.32332,-0.130704 -0.07796,-0.08714 -0.116946,-0.238478 -0.116946,-0.454025 v 0 -2.662238 h 1.018116 v -0.137583 h -1.018116 v -1.148821 c -0.08714,0.0321 -0.183445,0.05503 -0.288925,0.06879 -0.105481,0.01376 -0.215548,0.02293 -0.3302,0.02752 v 0 1.052513 h -0.6604 v 0.137583 h 0.6604 v 2.304521 c 0,0.243064 0.01949,0.437973 0.05847,0.584729 0.03898,0.146755 0.10892,0.272874 0.209814,0.378354 0.07796,0.07338 0.167393,0.129558 0.268288,0.16854 0.100894,0.03898 0.229305,0.05847 0.385233,0.05847 z m 3.622498,-0.04815 c 0.146756,0 0.263702,-0.02408 0.350838,-0.07223 0.08714,-0.04815 0.178858,-0.10892 0.275166,-0.182298 v 0 l -0.07567,-0.116952 c -0.04586,0.04127 -0.09287,0.07567 -0.141023,0.103187 -0.04816,0.02752 -0.104334,0.04127 -0.16854,0.04127 -0.07796,0 -0.132997,-0.02637 -0.1651,-0.07911 -0.0321,-0.05274 -0.04815,-0.134144 -0.04815,-0.244211 v 0 -1.912408 c 0,-0.220133 -0.01834,-0.409311 -0.05503,-0.567531 -0.03669,-0.158221 -0.114653,-0.292365 -0.233892,-0.402432 -0.08714,-0.08255 -0.197203,-0.145609 -0.3302,-0.189177 -0.132997,-0.04357 -0.293511,-0.06535 -0.481542,-0.06535 -0.210961,0 -0.400138,0.02637 -0.567531,0.07911 -0.167393,0.05274 -0.30383,0.115799 -0.40931,0.189177 -0.09172,0.0642 -0.167394,0.132997 -0.227013,0.206375 -0.05962,0.07338 -0.08943,0.169686 -0.08943,0.288925 0,0.10548 0.03096,0.200642 0.09287,0.285485 0.06191,0.08484 0.159367,0.127265 0.292364,0.127265 0.114653,0 0.208668,-0.03325 0.282046,-0.09975 0.07338,-0.0665 0.110067,-0.157075 0.110067,-0.271727 0,-0.114653 -0.0321,-0.208668 -0.09631,-0.282046 -0.06421,-0.07338 -0.139876,-0.119239 -0.227012,-0.137584 0.07796,-0.100894 0.182298,-0.167393 0.313002,-0.199495 0.130704,-0.0321 0.253383,-0.04816 0.368035,-0.04816 0.119239,0 0.227013,0.0172 0.323321,0.05159 0.09631,0.0344 0.173126,0.102041 0.230452,0.202936 0.05733,0.100894 0.08599,0.24765 0.08599,0.440266 v 0 0.426509 c 0,0.10548 -0.04701,0.192616 -0.141023,0.261408 -0.09401,0.06879 -0.214401,0.130704 -0.361156,0.185738 -0.146756,0.05503 -0.301537,0.111213 -0.464344,0.168539 -0.162807,0.05733 -0.317588,0.126118 -0.464344,0.206375 -0.146755,0.08026 -0.267141,0.183445 -0.361156,0.309563 -0.09401,0.126118 -0.141023,0.285485 -0.141023,0.478102 0,0.24765 0.06764,0.445999 0.202936,0.595048 0.13529,0.149048 0.351983,0.223573 0.650081,0.223573 0.201789,0 0.395552,-0.04127 0.581289,-0.123825 0.185738,-0.08255 0.351984,-0.245358 0.49874,-0.488421 0,0.160513 0.03898,0.302683 0.116946,0.426508 0.07796,0.123825 0.236185,0.185738 0.474662,0.185738 z m -1.368954,-0.275167 c -0.155928,0 -0.286632,-0.05159 -0.392112,-0.154781 -0.105481,-0.103188 -0.158221,-0.260262 -0.158221,-0.471223 0,-0.22472 0.05503,-0.397846 0.1651,-0.519377 0.110066,-0.121532 0.241917,-0.217841 0.395552,-0.288925 0.153635,-0.07108 0.302683,-0.136437 0.447146,-0.196057 0.144462,-0.05962 0.251089,-0.139876 0.319881,-0.24077 v 0 1.348316 c -0.114653,0.188031 -0.238478,0.322174 -0.371475,0.402431 -0.132997,0.08026 -0.268288,0.120386 -0.405871,0.120386 z m 3.821994,0.227012 v -0.144462 c -0.18803,0 -0.322174,-0.0344 -0.402431,-0.103188 -0.08026,-0.06879 -0.120386,-0.199495 -0.120386,-0.392112 v 0 -4.753504 c -0.100894,0.0321 -0.212107,0.05618 -0.333639,0.07223 -0.121532,0.01605 -0.248797,0.02408 -0.381794,0.02408 -0.137583,0 -0.279753,-0.0069 -0.426508,-0.02064 v 0 0.144462 c 0.201789,0 0.339372,0.0493 0.41275,0.147902 0.07338,0.0986 0.110066,0.25109 0.110066,0.457465 v 0 3.928004 c 0,0.192617 -0.04013,0.323321 -0.120385,0.392112 -0.08026,0.06879 -0.214401,0.103188 -0.402431,0.103188 v 0 0.144462 c 0.07796,-0.0046 0.197203,-0.01032 0.357716,-0.0172 0.160514,-0.0069 0.318735,-0.01032 0.474663,-0.01032 0.160514,0 0.319881,0.0034 0.478102,0.01032 0.158221,0.0069 0.276313,0.01261 0.354277,0.0172 z m 1.139119,-4.382029 c 0.11924,0 0.222427,-0.04357 0.309562,-0.130704 0.08714,-0.08714 0.130705,-0.190324 0.130705,-0.309563 0,-0.119238 -0.04357,-0.222426 -0.130705,-0.309562 -0.08714,-0.08714 -0.190322,-0.130704 -0.309562,-0.130704 -0.119238,0 -0.222426,0.04357 -0.309562,0.130704 -0.08714,0.08714 -0.130704,0.190324 -0.130704,0.309562 0,0.119239 0.04357,0.222427 0.130704,0.309563 0.08714,0.08714 0.190324,0.130704 0.309562,0.130704 z m 0.880533,4.382029 v -0.144462 c -0.188029,0 -0.322172,-0.0344 -0.402431,-0.103188 -0.08026,-0.06879 -0.120385,-0.199495 -0.120385,-0.392112 v 0 -2.978679 c -0.100894,0.0321 -0.212109,0.05618 -0.33364,0.07223 -0.121532,0.01605 -0.248796,0.02408 -0.381793,0.02408 -0.137584,0 -0.279753,-0.0069 -0.426509,-0.02064 v 0 0.144463 c 0.201789,0 0.339373,0.0493 0.41275,0.147902 0.07338,0.0986 0.110067,0.25109 0.110067,0.457465 v 0 2.153179 c 0,0.192617 -0.04013,0.323321 -0.120385,0.392112 -0.08026,0.06879 -0.214401,0.103188 -0.402432,0.103188 v 0 0.144462 c 0.07796,-0.0046 0.197203,-0.01032 0.357717,-0.0172 0.160514,-0.0069 0.318735,-0.01032 0.474662,-0.01032 0.160515,0 0.319881,0.0034 0.478102,0.01032 0.158221,0.0069 0.276315,0.01261 0.354277,0.0172 z m 2.94834,0.04815 c 0.146756,0 0.263702,-0.02408 0.350837,-0.07223 0.08714,-0.04815 0.178858,-0.10892 0.275167,-0.182298 v 0 l -0.07567,-0.116945 c -0.04586,0.04127 -0.09287,0.07567 -0.141023,0.103187 -0.04815,0.02752 -0.104333,0.04127 -0.16854,0.04127 -0.07796,0 -0.132995,-0.02637 -0.1651,-0.07911 -0.0321,-0.05274 -0.04815,-0.134144 -0.04815,-0.244211 v 0 -1.912408 c 0,-0.220133 -0.01834,-0.409311 -0.05503,-0.567531 -0.03669,-0.158221 -0.114652,-0.292365 -0.233892,-0.402432 -0.08714,-0.08255 -0.197202,-0.145609 -0.3302,-0.189177 -0.132995,-0.04357 -0.29351,-0.06535 -0.481541,-0.06535 -0.210961,0 -0.400138,0.02637 -0.567532,0.07911 -0.167391,0.05274 -0.303829,0.115799 -0.40931,0.189177 -0.09172,0.0642 -0.167391,0.132997 -0.227012,0.206375 -0.05962,0.07338 -0.08943,0.169686 -0.08943,0.288925 0,0.10548 0.03096,0.200642 0.09287,0.285485 0.06191,0.08484 0.159369,0.127265 0.292365,0.127265 0.114654,0 0.208669,-0.03325 0.282045,-0.09975 0.07338,-0.0665 0.110067,-0.157075 0.110067,-0.271727 0,-0.114653 -0.0321,-0.208668 -0.09631,-0.282046 -0.0642,-0.07338 -0.139875,-0.119239 -0.227013,-0.137584 0.07796,-0.100894 0.182298,-0.167393 0.313002,-0.199495 0.130705,-0.0321 0.253384,-0.04816 0.368036,-0.04816 0.11924,0 0.227012,0.0172 0.323321,0.05159 0.09631,0.0344 0.173127,0.102041 0.230452,0.202936 0.05733,0.100894 0.08599,0.24765 0.08599,0.440266 v 0 0.426509 c 0,0.10548 -0.04701,0.192616 -0.141023,0.261408 -0.09401,0.06879 -0.214399,0.130704 -0.361156,0.185738 -0.146754,0.05503 -0.301535,0.111213 -0.464344,0.168539 -0.162806,0.05733 -0.317587,0.126118 -0.464343,0.206375 -0.146754,0.08026 -0.26714,0.183445 -0.361157,0.309563 -0.09401,0.126118 -0.141022,0.285485 -0.141022,0.478102 0,0.24765 0.06765,0.445999 0.202935,0.595048 0.135292,0.149048 0.351986,0.223573 0.650081,0.223573 0.20179,0 0.395552,-0.04127 0.58129,-0.123825 0.185737,-0.08255 0.351986,-0.245358 0.498739,-0.488421 0,0.160513 0.03898,0.302683 0.116946,0.426508 0.07796,0.123825 0.236186,0.185738 0.474663,0.185738 z m -1.368955,-0.275167 c -0.155926,0 -0.286631,-0.05159 -0.392112,-0.154781 -0.105479,-0.103188 -0.158221,-0.260262 -0.158221,-0.471223 0,-0.22472 0.05503,-0.397846 0.1651,-0.519377 0.110067,-0.121532 0.241919,-0.217841 0.395552,-0.288925 0.153636,-0.07108 0.302684,-0.136437 0.447146,-0.196057 0.144463,-0.05962 0.25109,-0.139876 0.319881,-0.24077 v 0 1.348316 c -0.114652,0.188031 -0.238477,0.322174 -0.371475,0.402431 -0.132995,0.08026 -0.268287,0.120386 -0.405871,0.120386 z m 3.670655,0.323321 c 0.24765,0 0.448291,-0.06306 0.601927,-0.189177 0.122907,-0.100895 0.218665,-0.239212 0.287274,-0.414952 l 0.0048,-0.01367 2.65e-4,0.590285 c 0.113734,-0.02935 0.235543,-0.05137 0.365421,-0.06604 l 0.09892,-0.0096 c 0.167391,-0.01376 0.347398,-0.02064 0.540014,-0.02064 0.142169,0 0.284337,0.0069 0.426509,0.02064 v 0 -0.144462 c -0.1651,0 -0.279755,-0.0493 -0.343959,-0.147902 -0.06421,-0.0986 -0.09631,-0.25109 -0.09631,-0.457465 v 0 -4.629679 c -0.142171,0.0321 -0.298098,0.05618 -0.467783,0.07223 -0.169688,0.01605 -0.348546,0.02408 -0.536575,0.02408 -0.137584,0 -0.279755,-0.0069 -0.426509,-0.02064 v 0 0.144462 c 0.169686,0 0.285486,0.0493 0.347398,0.147902 0.06191,0.0986 0.09287,0.25109 0.09287,0.457465 v 0 l -2.65e-4,1.165489 -0.0049,-0.0055 c -0.05186,-0.05164 -0.110294,-0.09444 -0.175292,-0.128411 l -0.04998,-0.02382 c -0.153636,-0.0665 -0.331349,-0.09975 -0.533136,-0.09975 -0.293513,0 -0.556067,0.06879 -0.787664,0.206375 -0.231601,0.137583 -0.413899,0.342812 -0.546894,0.615685 -0.132998,0.272874 -0.199496,0.617979 -0.199496,1.035315 0,0.440267 0.05962,0.79913 0.178858,1.076589 0.119238,0.27746 0.285486,0.482689 0.49874,0.615686 0.213254,0.132997 0.455171,0.199496 0.725752,0.199496 z m 0.282046,-0.295804 c -0.128413,0 -0.241919,-0.05045 -0.340519,-0.151342 -0.0986,-0.100895 -0.174273,-0.267141 -0.227012,-0.49874 -0.05274,-0.231598 -0.07911,-0.542307 -0.07911,-0.932127 -0.0046,-0.568678 0.06191,-0.989453 0.199496,-1.262327 0.137583,-0.272874 0.323321,-0.40931 0.557212,-0.40931 0.110067,0 0.2144,0.02408 0.313003,0.07223 0.07043,0.0344 0.130913,0.08459 0.181453,0.150569 l 0.0075,0.01109 v 2.414059 l -0.0052,0.03933 c -0.02246,0.135474 -0.07304,0.249599 -0.151686,0.342377 l -0.03543,0.03845 c -0.123825,0.123825 -0.263703,0.185738 -0.41963,0.185738 z m 4.110918,0.295804 c 0.334786,0 0.628296,-0.06191 0.880534,-0.185738 0.252235,-0.123825 0.449437,-0.322174 0.591608,-0.595048 0.142169,-0.272873 0.213254,-0.636323 0.213254,-1.090348 0,-0.454025 -0.07109,-0.81862 -0.213254,-1.093787 -0.142171,-0.275167 -0.339373,-0.474663 -0.591608,-0.598488 -0.252238,-0.123825 -0.545748,-0.185737 -0.880534,-0.185737 -0.325614,0 -0.615685,0.06191 -0.870214,0.185737 -0.254529,0.123825 -0.454025,0.323321 -0.598488,0.598488 -0.144462,0.275167 -0.216693,0.639762 -0.216693,1.093787 0,0.454025 0.07223,0.817475 0.216693,1.090348 0.144463,0.272874 0.343959,0.471223 0.598488,0.595048 0.254529,0.123825 0.5446,0.185738 0.870214,0.185738 z m 0,-0.137584 c -0.183446,0 -0.337079,-0.13529 -0.460904,-0.40587 -0.123825,-0.270581 -0.185737,-0.713141 -0.185737,-1.32768 0,-0.614539 0.06191,-1.058245 0.185737,-1.331118 0.123825,-0.272874 0.277458,-0.409311 0.460904,-0.409311 0.188032,0 0.34281,0.136437 0.464344,0.409311 0.121531,0.272873 0.182298,0.716579 0.182298,1.331118 0,0.614539 -0.06077,1.057099 -0.182298,1.32768 -0.121534,0.27058 -0.276312,0.40587 -0.464344,0.40587 z m 8.087077,0.04127 v -0.144462 c -0.160515,0 -0.274021,-0.0344 -0.340519,-0.103188 -0.0665,-0.06879 -0.09975,-0.199495 -0.09975,-0.392112 v 0 -1.850496 c 0,-0.229306 -0.01606,-0.413897 -0.04815,-0.553773 -0.0321,-0.139876 -0.08484,-0.253383 -0.158221,-0.340519 -0.07338,-0.08255 -0.169685,-0.147902 -0.288925,-0.196056 -0.119239,-0.04815 -0.275166,-0.07223 -0.467783,-0.07223 -0.233892,0 -0.452879,0.04815 -0.65696,0.144462 -0.204081,0.09631 -0.368036,0.282046 -0.491861,0.557213 l 0.0078,-0.01693 -0.0034,-0.02139 v 0 l -0.0113,-0.05455 c -0.0321,-0.139877 -0.08484,-0.253383 -0.158221,-0.340519 -0.07338,-0.08255 -0.169685,-0.147902 -0.288925,-0.196056 -0.11924,-0.04815 -0.275167,-0.07223 -0.467783,-0.07223 -0.224719,0 -0.431094,0.0493 -0.619125,0.147902 -0.188032,0.0986 -0.33708,0.262554 -0.447146,0.49186 v 0 -0.619125 c -0.142169,0.0321 -0.29695,0.05618 -0.464344,0.07223 -0.167394,0.01605 -0.347398,0.02408 -0.540015,0.02408 -0.137583,0 -0.279751,-0.0069 -0.426508,-0.02064 v 0 0.144462 c 0.169685,0 0.285485,0.0493 0.347398,0.147902 0.06191,0.0986 0.09287,0.25109 0.09287,0.457465 v 0 2.166938 c 0,0.192616 -0.03325,0.32332 -0.09975,0.392112 -0.0665,0.06879 -0.180004,0.103188 -0.340519,0.103188 v 0 0.144462 c 0.09172,-0.0046 0.229307,-0.01032 0.41275,-0.0172 0.183444,-0.0069 0.362302,-0.01032 0.536575,-0.01032 0.160515,0 0.317587,0.0034 0.471223,0.01032 0.153636,0.0069 0.267142,0.01261 0.340519,0.0172 v 0 -0.144462 c -0.11924,0 -0.204081,-0.0344 -0.254529,-0.103188 -0.05045,-0.06879 -0.07567,-0.199496 -0.07567,-0.392112 v 0 -1.912409 c 0,-0.151341 0.03096,-0.287778 0.09287,-0.40931 0.06191,-0.121532 0.143317,-0.216694 0.244211,-0.285486 0.100893,-0.06879 0.21096,-0.103187 0.3302,-0.103187 0.105481,0 0.184592,0.02408 0.237331,0.07223 0.05274,0.04815 0.08828,0.114653 0.106627,0.199496 0.01834,0.08484 0.02752,0.184591 0.02752,0.299244 v 0 2.139421 c 0,0.192616 -0.02408,0.32332 -0.07223,0.392112 -0.04816,0.06879 -0.134144,0.103188 -0.257969,0.103188 v 0 0.144462 c 0.08255,-0.0046 0.204081,-0.01032 0.364596,-0.0172 0.160514,-0.0069 0.323321,-0.01032 0.488421,-0.01032 0.160514,0 0.324466,0.0034 0.49186,0.01032 0.167394,0.0069 0.292365,0.01261 0.374915,0.0172 v 0 -0.144462 c -0.146757,0 -0.249944,-0.0344 -0.309563,-0.103188 -0.05962,-0.06879 -0.08943,-0.199496 -0.08943,-0.392112 v 0 -1.850496 c 0,-0.02866 -2.51e-4,-0.05663 -7.94e-4,-0.08389 l -0.0013,-0.0394 0.0056,-0.0513 c 0.02119,-0.150563 0.07384,-0.283709 0.157946,-0.399439 l 0.03797,-0.04853 c 0.132998,-0.158221 0.288925,-0.237331 0.467783,-0.237331 0.11924,0 0.207521,0.02408 0.264848,0.07223 0.05733,0.04815 0.09631,0.114653 0.116946,0.199496 0.02064,0.08484 0.03096,0.184591 0.03096,0.299244 v 0 2.139421 c 0,0.192616 -0.02408,0.32332 -0.07223,0.392112 -0.04815,0.06879 -0.134144,0.103188 -0.257969,0.103188 v 0 0.144462 c 0.08255,-0.0046 0.204081,-0.01032 0.364596,-0.0172 0.160515,-0.0069 0.323321,-0.01032 0.488421,-0.01032 0.169685,0 0.341664,0.0034 0.515937,0.01032 0.174274,0.0069 0.304978,0.01261 0.392113,0.0172 z m 2.865789,0.04815 c 0.15593,0 0.296953,-0.02178 0.423069,-0.06535 0.126119,-0.04357 0.237331,-0.106627 0.33364,-0.189177 v 0 l -0.06879,-0.116945 c -0.03669,0.0321 -0.07567,0.05962 -0.116946,0.08255 -0.04127,0.02293 -0.08484,0.0344 -0.130704,0.0344 -0.05503,0 -0.09401,-0.02293 -0.116946,-0.06879 -0.02294,-0.04586 -0.0344,-0.123825 -0.0344,-0.233892 v 0 -1.871133 c 0,-0.233892 -0.01606,-0.427655 -0.04815,-0.58129 -0.0321,-0.153635 -0.100893,-0.283192 -0.206375,-0.388673 -0.114652,-0.114653 -0.25682,-0.193763 -0.426508,-0.237331 -0.169685,-0.04357 -0.360008,-0.06535 -0.570971,-0.06535 -0.21096,0 -0.407016,0.02064 -0.588169,0.06191 -0.181149,0.04127 -0.33593,0.0986 -0.464343,0.171979 -0.119237,0.07796 -0.212106,0.160514 -0.278607,0.247651 -0.0665,0.08714 -0.09975,0.197202 -0.09975,0.3302 0,0.146755 0.04242,0.271727 0.127264,0.374914 0.08484,0.103188 0.209815,0.154781 0.374915,0.154781 0.146756,0 0.274021,-0.04586 0.381793,-0.137583 0.107776,-0.09172 0.161661,-0.215547 0.161661,-0.371475 0,-0.119239 -0.03554,-0.225866 -0.106627,-0.319881 -0.07108,-0.09402 -0.170831,-0.163954 -0.299244,-0.209815 0.05962,-0.05962 0.135292,-0.102041 0.227012,-0.127264 0.09172,-0.02522 0.183447,-0.03784 0.275167,-0.03784 0.128413,0 0.232746,0.02522 0.313002,0.07567 0.08026,0.05045 0.139878,0.122678 0.178859,0.216694 0.03898,0.09401 0.05847,0.200642 0.05847,0.319881 v 0 0.536575 c 0,0.10548 -0.04471,0.192617 -0.134143,0.261408 -0.08943,0.06879 -0.206375,0.129558 -0.350838,0.182298 -0.144462,0.05274 -0.295804,0.105481 -0.454025,0.158221 -0.158221,0.05274 -0.308414,0.119239 -0.450585,0.199496 -0.142169,0.08026 -0.257969,0.182298 -0.347398,0.306123 -0.08943,0.123825 -0.134144,0.284339 -0.134144,0.481542 0,0.229305 0.06879,0.424215 0.206375,0.584729 0.137584,0.160513 0.360011,0.240771 0.667279,0.240771 0.224722,0 0.420778,-0.04586 0.588169,-0.137584 0.167394,-0.09172 0.308417,-0.231599 0.423069,-0.419629 0.0046,0.146755 0.05159,0.276313 0.141023,0.388673 0.08943,0.11236 0.271727,0.16854 0.546893,0.16854 z M 47.76311,75.658134 c -0.119237,0 -0.220133,-0.04242 -0.302683,-0.127265 -0.08255,-0.08484 -0.123825,-0.225866 -0.123825,-0.423068 0,-0.183445 0.0344,-0.3302 0.103187,-0.440267 0.06879,-0.110067 0.154782,-0.200643 0.257969,-0.271727 0.103188,-0.07108 0.204084,-0.137584 0.302683,-0.199496 0.0986,-0.06191 0.175419,-0.13873 0.230452,-0.230452 v 0 1.410229 c -0.07338,0.10548 -0.147902,0.178858 -0.223572,0.220133 -0.07567,0.04127 -0.157073,0.06191 -0.244211,0.06191 z m 6.098998,0.392112 v -0.144462 c -0.160512,0 -0.274019,-0.0344 -0.340519,-0.103188 -0.0665,-0.06879 -0.09975,-0.199495 -0.09975,-0.392112 v 0 -1.850496 c 0,-0.233892 -0.0172,-0.419629 -0.05159,-0.557212 -0.0344,-0.137584 -0.08828,-0.249944 -0.161657,-0.33708 -0.06879,-0.08255 -0.163955,-0.147902 -0.285488,-0.196056 -0.121531,-0.04815 -0.278607,-0.07223 -0.471223,-0.07223 -0.243062,0 -0.463196,0.04815 -0.6604,0.144462 -0.197202,0.09631 -0.353129,0.261409 -0.467784,0.4953 v 0 -0.619125 c -0.142168,0.0321 -0.296949,0.05618 -0.464343,0.07223 -0.167392,0.01605 -0.347398,0.02408 -0.540015,0.02408 -0.137583,0 -0.279752,-0.0069 -0.426508,-0.02064 v 0 0.144463 c 0.169688,0 0.285485,0.0493 0.347398,0.147902 0.06191,0.0986 0.09287,0.251089 0.09287,0.457464 v 0 2.166938 c 0,0.192617 -0.03325,0.323321 -0.09975,0.392112 -0.0665,0.06879 -0.180004,0.103188 -0.340518,0.103188 v 0 0.144462 c 0.09172,-0.0046 0.229306,-0.01032 0.41275,-0.0172 0.183446,-0.0069 0.362304,-0.01032 0.536575,-0.01032 0.169688,0 0.333639,0.0034 0.49186,0.01032 0.158221,0.0069 0.278606,0.01261 0.361159,0.0172 v 0 -0.144462 c -0.132998,0 -0.228161,-0.0344 -0.285488,-0.103188 -0.05733,-0.06879 -0.08599,-0.199495 -0.08599,-0.392112 v 0 -1.912408 c 0,-0.229306 0.06535,-0.41963 0.196057,-0.570971 0.130704,-0.151342 0.292364,-0.227013 0.484981,-0.227013 0.11924,0 0.208669,0.02408 0.268287,0.07223 0.05962,0.04816 0.100897,0.114653 0.123825,0.199496 0.02294,0.08484 0.0344,0.184591 0.0344,0.299244 v 0 2.139421 c 0,0.192617 -0.02752,0.323321 -0.08255,0.392112 -0.05504,0.06879 -0.151344,0.103188 -0.288928,0.103188 v 0 0.144462 c 0.08714,-0.0046 0.214403,-0.01032 0.381794,-0.0172 0.167394,-0.0069 0.338227,-0.01032 0.512498,-0.01032 0.169688,0 0.341667,0.0034 0.515937,0.01032 0.174273,0.0069 0.304978,0.01261 0.392113,0.0172 z m 1.152879,-4.271962 c 0.192617,0 0.345104,-0.04701 0.457465,-0.141023 0.112358,-0.09401 0.168539,-0.223573 0.168539,-0.388673 0,-0.1651 -0.05618,-0.294658 -0.168539,-0.388673 -0.112361,-0.09401 -0.264848,-0.141023 -0.457465,-0.141023 -0.192616,0 -0.345106,0.04701 -0.457464,0.141023 -0.112361,0.09401 -0.16854,0.223573 -0.16854,0.388673 0,0.1651 0.05618,0.294658 0.16854,0.388673 0.112358,0.09401 0.264848,0.141023 0.457464,0.141023 z m 0.976842,4.271962 v -0.144462 c -0.160515,0 -0.274021,-0.0344 -0.340519,-0.103188 -0.0665,-0.06879 -0.09975,-0.199495 -0.09975,-0.392112 v 0 -2.992438 c -0.142171,0.0321 -0.296952,0.05618 -0.464343,0.07223 -0.167394,0.01605 -0.347398,0.02408 -0.540015,0.02408 -0.137583,0 -0.279755,-0.0069 -0.426508,-0.02064 v 0 0.144463 c 0.169685,0 0.285485,0.0493 0.347398,0.147902 0.06191,0.0986 0.09287,0.251089 0.09287,0.457464 v 0 2.166938 c 0,0.192617 -0.03325,0.323321 -0.09975,0.392112 -0.0665,0.06879 -0.180006,0.103188 -0.340518,0.103188 v 0 0.144462 c 0.09172,-0.0046 0.229303,-0.01032 0.41275,-0.0172 0.183443,-0.0069 0.364596,-0.01032 0.543454,-0.01032 0.178858,0 0.355423,0.0034 0.529696,0.01032 0.17427,0.0069 0.302683,0.01261 0.385233,0.0172 z"
       id="Italiadomani"
       fill="#000000"
       fill-rule="nonzero"
       style="fill:#ffffff;stroke:none;stroke-width:0.264583" />
    <path
       d="m 17.393489,80.799613 v -0.739775 h 0.5588 c 0.467783,0 0.701675,-0.249766 0.701675,-0.7493 0,-0.239183 -0.05715,-0.416983 -0.17145,-0.5334 -0.1143,-0.116416 -0.291042,-0.174625 -0.530225,-0.174625 v 0 h -0.803275 v 2.1971 z m 0.555625,-0.955675 h -0.555625 v -1.025525 h 0.555625 c 0.15875,0 0.274108,0.03969 0.346075,0.119063 0.07197,0.07937 0.10795,0.203729 0.10795,0.373062 0,0.3556 -0.151342,0.5334 -0.454025,0.5334 z m 1.32715,0.955675 v -2.1971 h -0.244475 v 2.1971 z m 0.5842,0 0.15875,-0.56515 h 0.9398 l 0.15875,0.56515 h 0.2413 l -0.60325,-2.1971 h -0.5334 l -0.60325,2.1971 z m 1.044575,-0.784225 h -0.83185 l 0.333375,-1.203325 h 0.1651 z m 1.044575,0.784225 v -1.9812 h 0.06032 l 0.854075,1.9812 h 0.447675 v -2.1971 h -0.2413 v 1.9812 h -0.06668 l -0.841375,-1.9812 h -0.4572 v 2.1971 z m 2.681287,0.03175 c 0.329142,0 0.556154,-0.08784 0.681038,-0.263525 0.124883,-0.175683 0.187325,-0.459316 0.187325,-0.8509 0,-0.391583 -0.06403,-0.680508 -0.192088,-0.866775 -0.128058,-0.186266 -0.354012,-0.2794 -0.677862,-0.2794 -0.32385,0 -0.549275,0.09366 -0.676275,0.280988 -0.127,0.187325 -0.1905,0.474133 -0.1905,0.860425 0,0.386291 0.06244,0.669396 0.187325,0.849312 0.124883,0.179917 0.351896,0.269875 0.681037,0.269875 z m 0,-0.2159 c -0.242358,0 -0.405871,-0.07038 -0.490537,-0.211137 -0.08467,-0.140759 -0.127,-0.372004 -0.127,-0.693738 0,-0.321733 0.04286,-0.556154 0.128587,-0.703262 0.08572,-0.147109 0.24765,-0.220663 0.485775,-0.220663 0.238125,0 0.400579,0.07408 0.487363,0.22225 0.08678,0.148167 0.130175,0.384175 0.130175,0.708025 0,0.32385 -0.0418,0.554567 -0.125413,0.69215 -0.08361,0.137584 -0.246591,0.206375 -0.48895,0.206375 z m 2.259013,0.18415 v -1.9812 h 0.06032 l 0.854075,1.9812 h 0.447675 v -2.1971 h -0.2413 v 1.9812 h -0.06668 l -0.841375,-1.9812 h -0.4572 v 2.1971 z m 1.94945,0 0.15875,-0.56515 h 0.9398 l 0.15875,0.56515 h 0.2413 l -0.60325,-2.1971 h -0.5334 l -0.60325,2.1971 z m 1.044575,-0.784225 h -0.83185 l 0.333375,-1.203325 h 0.1651 z m 2.0955,0.7874 v -0.219075 h -1.14935 v -0.0635 l 1.14935,-1.63195 v -0.28575 h -1.42875 v 0.2159 h 1.146175 v 0.06985 l -1.146175,1.63195 v 0.282575 z m 0.650875,-0.0032 v -2.1971 h -0.244475 v 2.1971 z m 1.316038,0.03175 c 0.329141,0 0.556154,-0.08784 0.681037,-0.263525 0.124884,-0.175683 0.187325,-0.459316 0.187325,-0.8509 0,-0.391583 -0.06403,-0.680508 -0.192087,-0.866775 -0.128059,-0.186266 -0.354013,-0.2794 -0.677863,-0.2794 -0.32385,0 -0.549275,0.09366 -0.676275,0.280988 -0.127,0.187325 -0.1905,0.474133 -0.1905,0.860425 0,0.386291 0.06244,0.669396 0.187325,0.849312 0.124884,0.179917 0.351896,0.269875 0.681038,0.269875 z m 0,-0.2159 c -0.242359,0 -0.405871,-0.07038 -0.490538,-0.211137 -0.08467,-0.140759 -0.127,-0.372004 -0.127,-0.693738 0,-0.321733 0.04286,-0.556154 0.128588,-0.703262 0.08573,-0.147109 0.24765,-0.220663 0.485775,-0.220663 0.238125,0 0.400579,0.07408 0.487362,0.22225 0.08678,0.148167 0.130175,0.384175 0.130175,0.708025 0,0.32385 -0.0418,0.554567 -0.125412,0.69215 -0.08361,0.137584 -0.246592,0.206375 -0.48895,0.206375 z m 1.560512,0.18415 v -1.9812 h 0.06032 l 0.854075,1.9812 h 0.447675 v -2.1971 h -0.2413 v 1.9812 h -0.06667 l -0.841375,-1.9812 h -0.4572 v 2.1971 z m 1.94945,0 0.15875,-0.56515 h 0.9398 l 0.15875,0.56515 h 0.2413 l -0.60325,-2.1971 h -0.5334 l -0.60325,2.1971 z m 1.044575,-0.784225 h -0.83185 l 0.333375,-1.203325 h 0.1651 z m 2.009775,0.784225 v -0.219075 h -0.9652 v -1.978025 h -0.244475 v 2.1971 z m 1.647825,0 v -0.2159 h -1.0922 v -0.79375 h 0.9017 v -0.212725 h -0.9017 v -0.758825 h 1.0922 v -0.2159 h -1.336675 v 2.1971 z m 1.901825,0 c 0.156633,0 0.289983,-0.02858 0.40005,-0.08573 0.275167,-0.143933 0.41275,-0.492125 0.41275,-1.044575 0,-0.264583 -0.03387,-0.478366 -0.1016,-0.64135 -0.116417,-0.283633 -0.353483,-0.42545 -0.7112,-0.42545 v 0 h -0.784225 v 2.1971 z m 0,-0.2159 h -0.53975 v -1.7653 h 0.53975 c 0.110067,0 0.2032,0.02117 0.2794,0.0635 0.188383,0.103717 0.282575,0.366184 0.282575,0.7874 0,0.6096 -0.187325,0.9144 -0.561975,0.9144 z m 1.508125,0.2159 v -2.1971 h -0.244475 v 2.1971 z m 1.47955,0 v -0.841375 h 0.6223 l 0.396875,0.841375 h 0.269875 l -0.422275,-0.892175 c 0.268817,-0.08678 0.403225,-0.299508 0.403225,-0.638175 0,-0.2286 -0.05874,-0.396875 -0.176212,-0.504825 -0.117475,-0.10795 -0.29263,-0.161925 -0.525463,-0.161925 v 0 h -0.8128 v 2.1971 z m 0.5715,-1.057275 h -0.5715 v -0.923925 h 0.568325 c 0.300567,0 0.45085,0.153988 0.45085,0.461963 0,0.307975 -0.149225,0.461962 -0.447675,0.461962 z m 1.3843,1.057275 v -2.1971 h -0.244475 v 2.1971 z m 0.78105,0 v -0.739775 h 0.5588 c 0.467783,0 0.701675,-0.249766 0.701675,-0.7493 0,-0.239183 -0.05715,-0.416983 -0.17145,-0.5334 -0.1143,-0.116416 -0.291042,-0.174625 -0.530225,-0.174625 v 0 h -0.803275 v 2.1971 z m 0.555625,-0.955675 h -0.555625 v -1.025525 h 0.555625 c 0.15875,0 0.274108,0.03969 0.346075,0.119063 0.07197,0.07937 0.10795,0.203729 0.10795,0.373062 0,0.3556 -0.151342,0.5334 -0.454025,0.5334 z m 1.32715,0.955675 v -0.841375 h 0.6223 l 0.396875,0.841375 h 0.269875 l -0.422275,-0.892175 c 0.268817,-0.08678 0.403225,-0.299508 0.403225,-0.638175 0,-0.2286 -0.05874,-0.396875 -0.176213,-0.504825 -0.117475,-0.10795 -0.292629,-0.161925 -0.525462,-0.161925 v 0 h -0.8128 v 2.1971 z m 0.5715,-1.057275 h -0.5715 v -0.923925 h 0.568325 c 0.300567,0 0.45085,0.153988 0.45085,0.461963 0,0.307975 -0.149225,0.461962 -0.447675,0.461962 z m 2.4765,1.057275 v -0.2159 h -1.0922 v -0.79375 h 0.9017 v -0.212725 h -0.9017 v -0.758825 h 1.0922 v -0.2159 h -1.336675 v 2.1971 z m 1.016,0.02857 c 0.467783,0 0.701675,-0.225425 0.701675,-0.676275 0,-0.182033 -0.04657,-0.312737 -0.1397,-0.392112 -0.09313,-0.07937 -0.251354,-0.143934 -0.474663,-0.193675 -0.223308,-0.04974 -0.371475,-0.09948 -0.4445,-0.149225 -0.07303,-0.04974 -0.109537,-0.141288 -0.109537,-0.274638 0,-0.239183 0.15875,-0.358775 0.47625,-0.358775 0.122767,0 0.331258,0.01799 0.625475,0.05397 v 0 l 0.02223,-0.206375 -0.10795,-0.01588 c -0.2159,-0.03175 -0.401108,-0.04762 -0.555625,-0.04762 -0.472017,0 -0.708025,0.19685 -0.708025,0.59055 0,0.19685 0.05186,0.337079 0.155575,0.420688 0.103717,0.08361 0.2794,0.151871 0.52705,0.204787 0.188383,0.03598 0.316971,0.0799 0.385762,0.131763 0.06879,0.05186 0.103188,0.137054 0.103188,0.255587 0,0.294217 -0.156633,0.441325 -0.4699,0.441325 -0.150283,0 -0.369358,-0.01905 -0.657225,-0.05715 v 0 l -0.0254,0.2032 0.1143,0.01588 c 0.232833,0.03598 0.426508,0.05397 0.581025,0.05397 z m 1.171575,-0.02857 0.15875,-0.56515 h 0.9398 l 0.15875,0.56515 h 0.2413 l -0.60325,-2.1971 h -0.5334 l -0.60325,2.1971 z m 1.044575,-0.784225 h -0.83185 l 0.333375,-1.203325 h 0.1651 z m 2.835275,0.784225 v -0.2159 h -1.0922 v -0.79375 h 0.9017 v -0.212725 h -0.9017 v -0.758825 h 1.0922 v -0.2159 h -1.336675 v 2.1971 z m 1.362075,0 v -0.841375 h 0.6223 l 0.396875,0.841375 h 0.269875 l -0.422275,-0.892175 c 0.268817,-0.08678 0.403225,-0.299508 0.403225,-0.638175 0,-0.2286 -0.05874,-0.396875 -0.176213,-0.504825 -0.117475,-0.10795 -0.292629,-0.161925 -0.525462,-0.161925 v 0 h -0.8128 v 2.1971 z m 0.5715,-1.057275 h -0.5715 v -0.923925 h 0.568325 c 0.300567,0 0.45085,0.153988 0.45085,0.461963 0,0.307975 -0.149225,0.461962 -0.447675,0.461962 z m 2.4765,1.057275 v -0.2159 h -1.0922 v -0.79375 h 0.9017 v -0.212725 h -0.9017 v -0.758825 h 1.0922 v -0.2159 h -1.336675 v 2.1971 z m 1.016,0.02857 c 0.467783,0 0.701675,-0.225425 0.701675,-0.676275 0,-0.182033 -0.04657,-0.312737 -0.1397,-0.392112 -0.09313,-0.07937 -0.251354,-0.143934 -0.474663,-0.193675 -0.223308,-0.04974 -0.371475,-0.09948 -0.4445,-0.149225 -0.07303,-0.04974 -0.109537,-0.141288 -0.109537,-0.274638 0,-0.239183 0.15875,-0.358775 0.47625,-0.358775 0.122766,0 0.331258,0.01799 0.625475,0.05397 v 0 l 0.02223,-0.206375 -0.10795,-0.01588 c -0.2159,-0.03175 -0.401109,-0.04762 -0.555625,-0.04762 -0.472017,0 -0.708025,0.19685 -0.708025,0.59055 0,0.19685 0.05186,0.337079 0.155575,0.420688 0.103716,0.08361 0.2794,0.151871 0.52705,0.204787 0.188383,0.03598 0.316971,0.0799 0.385762,0.131763 0.06879,0.05186 0.103188,0.137054 0.103188,0.255587 0,0.294217 -0.156634,0.441325 -0.4699,0.441325 -0.150284,0 -0.369359,-0.01905 -0.657225,-0.05715 v 0 l -0.0254,0.2032 0.1143,0.01588 c 0.232833,0.03598 0.426508,0.05397 0.581025,0.05397 z m 1.368425,-0.02857 v -2.1971 h -0.244475 v 2.1971 z m 1.74625,0 v -0.219075 h -0.9652 v -1.978025 h -0.244475 v 2.1971 z m 0.555625,0 v -2.1971 h -0.244475 v 2.1971 z m 1.87325,0 v -0.2159 h -1.0922 v -0.79375 h 0.9017 v -0.212725 h -0.9017 v -0.758825 h 1.0922 v -0.2159 h -1.336675 v 2.1971 z m 0.663575,0 v -1.9812 h 0.06033 l 0.854075,1.9812 h 0.447675 v -2.1971 h -0.2413 v 1.9812 h -0.06667 l -0.841375,-1.9812 h -0.4572 v 2.1971 z m 3.197225,0.0032 v -0.219075 h -1.14935 v -0.0635 l 1.14935,-1.63195 v -0.28575 h -1.42875 v 0.2159 h 1.146175 v 0.06985 l -1.146175,1.63195 v 0.282575 z m 0.454025,-0.0032 0.15875,-0.56515 h 0.9398 l 0.15875,0.56515 h 0.2413 l -0.60325,-2.1971 h -0.5334 l -0.60325,2.1971 z m 1.044575,-0.784225 h -0.83185 l 0.333375,-1.203325 h 0.1651 z"
       id="PIANONAZIONALEDIRIPRESAERESILIENZA"
       fill="#000000"
       fill-rule="nonzero"
       style="fill:#ffffff;stroke:none;stroke-width:0.264583" />
    <g
       id="Group-22"
       transform="matrix(0.54954395,0,0,0.54954395,32.222304,47.114081)"
       style="fill:none;fill-rule:evenodd;stroke:none;stroke-width:1">
      <path
         d="M 47.918469,2.6309323 C 43.369515,1.7539549 38.820562,0.87697743 34.271608,0 c 0,3.8942611 0,7.7880765 0,11.682338 1.1505,0.09224 2.300553,0.184486 3.451053,0.276729 0,5.266766 0,10.533532 0,15.800745 3.398454,-0.262915 6.797354,-0.52583 10.195808,-0.788745 0,-8.113379 0,-16.226757 0,-24.3401347"
         id="Fill-1"
         fill="#d8242a" />
      <path
         d="m 34.271608,11.682338 c -2.296542,-0.184487 -4.593084,-0.368527 -6.889626,-0.552568 0,8.210078 0,16.41971 0,24.629787 -1.150054,0.163988 -2.300553,0.32753 -3.451053,0.491072 0,1.916605 0,3.832765 0,5.749371 4.597095,-0.886781 9.194637,-1.773117 13.791732,-2.659006 0,-3.860394 0,-7.720788 0,-11.581182 -1.1505,0.08868 -2.300553,0.177801 -3.451053,0.266479 0,-5.447687 0,-10.89582 0,-16.343953"
         id="Fill-2"
         fill="#e6e6e0" />
      <path
         d="m 34.271608,11.682338 c 0,5.448133 0,10.896266 0,16.343953 1.1505,-0.08868 2.300553,-0.177801 3.451053,-0.266479 0,-5.267213 0,-10.533979 0,-15.800745 -1.1505,-0.09224 -2.300553,-0.184486 -3.451053,-0.276729"
         id="Fill-3"
         fill="#932327" />
      <path
         d="m 27.381982,11.12977 c 0,-1.8582291 0,-3.7164587 0,-5.5746884 C 22.784887,4.9548334 18.187791,4.3545851 13.59025,3.7538912 c 0,11.3236148 0,22.6463378 0,33.9695068 3.447042,-0.491072 6.894083,-0.981698 10.340679,-1.472769 0,-8.465863 0,-16.931725 0,-25.397588 1.1505,0.09224 2.300999,0.184487 3.451053,0.276729"
         id="Fill-4"
         fill="#198b53" />
      <g
         id="Group-8"
         transform="translate(0,10.853041)">
        <mask
           id="mask-2"
           fill="#ffffff">
          <use
             xlink:href="#path-1"
             id="use3625"
             x="0"
             y="0"
             width="100%"
             height="100%" />
        </mask>
        <g
           id="Clip-6" />
        <path
           d="M 27.381982,0.27672916 C 26.231928,0.18448611 25.081429,0.09224305 23.930929,0 c 0,8.4658624 0,16.931725 0,25.397587 1.1505,-0.163542 2.300999,-0.327084 3.451053,-0.491071 0,-8.210078 0,-16.4197095 0,-24.62978684"
           id="Fill-5"
           fill="#45ae59"
           mask="url(#mask-2)" />
        <path
           d="M 3.3289159,4.0096763 C 2.2105107,3.9686794 1.0916597,3.9276825 -0.02674544,3.8862399 c 0,-1.1737594 0,-2.3479644 0,-3.52216949 1.11840514,0.0655059 2.23725614,0.13056625 3.35566134,0.19607219 0,1.1501416 0,2.2998377 0,3.4495337"
           id="Fill-7"
           fill="#198b53"
           mask="url(#mask-2)" />
      </g>
      <path
         d="m 7.3661402,19.003851 c -1.1184052,-0.01248 -2.2368104,-0.02451 -3.3556614,-0.03699 0,-1.14524 0,-2.290034 0,-3.434828 1.118851,0.03654 2.2372562,0.07308 3.3556614,0.109622 0,1.120731 0,2.241462 0,3.362192"
         id="Fill-9"
         fill="#198b53" />
      <path
         d="m 15.44148,19.09253 c -1.118851,-0.01248 -2.237702,-0.02451 -3.356107,-0.03699 0,-1.086418 0,-2.173282 0,-3.2597 1.118405,0.03654 2.237256,0.07308 3.356107,0.109622 0,1.062355 0,2.12471 0,3.187065"
         id="Fill-10"
         fill="#198b53" />
      <path
         d="m 15.44148,10.373556 c -1.118851,-0.07888 -2.237702,-0.157304 -3.356107,-0.236178 0,-1.0864183 0,-2.1732821 0,-3.2597003 1.118405,0.1029379 2.237256,0.2058758 3.356107,0.3088137 0,1.0623548 0,2.1247095 0,3.1870646"
         id="Fill-11"
         fill="#45ae59" />
      <path
         d="M 3.3761662,23.05497 C 2.257761,23.07146 1.13891,23.08795 0.02050484,23.10443 c 0,-1.17376 0,-2.347519 0,-3.521278 1.11840516,0.008 2.23725616,0.0156 3.35566136,0.02317 0,1.149696 0,2.298946 0,3.448642"
         id="Fill-12"
         fill="#45ae59" />
      <path
         d="m 11.40381,26.824904 c -1.118405,0.04545 -2.2372559,0.09091 -3.3556611,0.136359 0,-1.115829 0,-2.231658 0,-3.347487 1.1184052,-0.02094 2.2372561,-0.04189 3.3556611,-0.06328 0,1.09132 0,2.183086 0,3.274406"
         id="Fill-13"
         fill="#198b53" />
      <path
         d="m 15.44148,30.446001 c -1.118851,0.07397 -2.237702,0.148391 -3.356107,0.222363 0,-1.086864 0,-2.173282 0,-3.259254 1.118405,-0.05035 2.237256,-0.100265 3.356107,-0.149728 0,1.061909 0,2.124264 0,3.186619"
         id="Fill-14"
         fill="#45ae59" />
      <path
         d="m 7.3661402,34.973931 c -1.1184052,0.102938 -2.2368104,0.205876 -3.3556614,0.308368 0,-1.144794 0,-2.289588 0,-3.434828 1.118851,-0.07843 2.2372562,-0.157303 3.3556614,-0.236178 0,1.121177 0,2.241462 0,3.362638"
         id="Fill-15"
         fill="#45ae59" />
      <path
         d="m 15.345197,34.239552 c -1.118851,0.102938 -2.237256,0.206321 -3.356107,0.308814 0,-1.08731 0,-2.174619 0,-3.261929 1.118851,-0.07843 2.237256,-0.157303 3.356107,-0.236178 0,1.063246 0,2.126492 0,3.189293"
         id="Fill-16"
         fill="#198b53" />
      <path
         d="m 29.298739,4.3661712 c 0,-0.8480122 0,-1.6964701 0,-2.5444823 -0.831338,-0.1163065 -1.663121,-0.2321673 -2.494458,-0.3484738 0,0.8729669 0,1.7459338 0,2.6189006 0.831337,0.091352 1.66312,0.1827037 2.494458,0.2740555"
         id="Fill-17"
         fill="#d8242a" />
      <path
         d="m 32.261242,7.6481523 c 0,-0.819047 0,-1.6380941 0,-2.4571411 -0.831337,-0.08645 -1.66312,-0.1729 -2.494458,-0.2589044 0,0.8435561 0,1.6871121 0,2.5306681 0.831338,0.061495 1.663121,0.1234364 2.494458,0.1853774"
         id="Fill-18"
         fill="#d8242a" />
      <path
         d="m 32.261242,13.56062 c 0,-0.819047 0,-1.638094 0,-2.457141 -0.831337,-0.02718 -1.66312,-0.05437 -2.494458,-0.08155 0,0.844002 0,1.687558 0,2.531114 0.831338,0.0027 1.663121,0.0053 2.494458,0.0076"
         id="Fill-19"
         fill="#932327" />
      <path
         d="m 33.59896,20.476175 c 0,-0.805678 0,-1.611802 0,-2.417481 -0.831783,0.04322 -1.663566,0.08645 -2.494904,0.129675 0,0.830633 0,1.661267 0,2.491454 0.831338,-0.06773 1.663121,-0.135914 2.494904,-0.203648"
         id="Fill-20"
         fill="#932327" />
      <path
         d="m 35.224191,5.051087 c 0,-0.7900818 0,-1.579718 0,-2.3697998 -0.831783,-0.1154152 -1.66312,-0.2312761 -2.494904,-0.3466913 0,0.8141452 0,1.6287361 0,2.4433269 0.831784,0.090906 1.663121,0.182258 2.494904,0.2731642"
         id="Fill-21"
         fill="#932327" />
      <path
         d="m 35.224191,16.420155 c 0,-0.789636 0,-1.579718 0,-2.369355 -0.831783,0.0027 -1.66312,0.0049 -2.494904,0.0076 0,0.814591 0,1.628736 0,2.443327 0.831784,-0.02718 1.663121,-0.05437 2.494904,-0.08155"
         id="Fill-22"
         fill="#d8242a" />
      <path
         d="m 35.203687,24.975141 c 0,-0.790082 0,-1.580164 0,-2.3698 -0.831784,0.09135 -1.663567,0.182704 -2.49535,0.274055 0,0.814591 0,1.629182 0,2.443773 0.831783,-0.115861 1.663566,-0.232167 2.49535,-0.348028"
         id="Fill-23"
         fill="#d8242a" />
    </g>
  </g>
</svg>
