<?xml version="1.0" encoding="UTF-8" standalone="no"?>
<!-- Created with Inkscape (http://www.inkscape.org/) -->

<svg
   width="56.132999mm"
   height="28.207563mm"
   viewBox="0 0 56.132999 28.207563"
   version="1.1"
   id="svg36764"
   inkscape:version="1.1.2 (b8e25be8, 2022-02-05)"
   sodipodi:docname="atbci_logo_v1.svg"
   xmlns:inkscape="http://www.inkscape.org/namespaces/inkscape"
   xmlns:sodipodi="http://sodipodi.sourceforge.net/DTD/sodipodi-0.dtd"
   xmlns="http://www.w3.org/2000/svg"
   xmlns:svg="http://www.w3.org/2000/svg">
  <sodipodi:namedview
     id="namedview36766"
     pagecolor="#ffffff"
     bordercolor="#666666"
     borderopacity="1.0"
     inkscape:pageshadow="2"
     inkscape:pageopacity="0.0"
     inkscape:pagecheckerboard="0"
     inkscape:document-units="mm"
     showgrid="false"
     fit-margin-top="0"
     fit-margin-left="0"
     fit-margin-right="0"
     fit-margin-bottom="0"
     inkscape:zoom="0.98631343"
     inkscape:cx="148.53291"
     inkscape:cy="331.03068"
     inkscape:window-width="1312"
     inkscape:window-height="1081"
     inkscape:window-x="941"
     inkscape:window-y="87"
     inkscape:window-maximized="0"
     inkscape:current-layer="layer5" />
  <defs
     id="defs36761">
    <inkscape:path-effect
       effect="fillet_chamfer"
       id="path-effect32596"
       is_visible="true"
       lpeversion="1"
       satellites_param="F,0,1,1,0,0.7,0,1 @ F,0,1,1,0,0.7,0,1 @ F,0,1,1,0,1,0,1 @ F,0,1,1,0,0.5,0,1 @ F,0,0,1,0,0,0,1 @ F,0,0,1,0,0,0,1 @ F,0,1,1,0,0.5,0,1 @ F,0,1,1,0,1,0,1 | F,0,1,1,0,1,0,1 @ F,0,0,1,0,0,0,1 @ F,0,0,1,0,0,0,1"
       unit="mm"
       method="auto"
       mode="F"
       radius="1"
       chamfer_steps="1"
       flexible="false"
       use_knot_distance="true"
       apply_no_radius="true"
       apply_with_radius="true"
       only_selected="true"
       hide_knots="false" />
    <inkscape:path-effect
       effect="fillet_chamfer"
       id="path-effect32594"
       is_visible="true"
       lpeversion="1"
       satellites_param="F,0,0,1,0,0,0,1 @ F,0,1,1,0,1,0,1 @ F,0,1,1,0,1,0,1 @ F,0,1,1,0,1,0,1 @ F,0,1,1,0,1,0,1 @ F,0,0,1,0,0,0,1 @ F,0,1,1,0,1,0,1 @ F,0,1,1,0,1,0,1"
       unit="mm"
       method="auto"
       mode="F"
       radius="1"
       chamfer_steps="1"
       flexible="false"
       use_knot_distance="true"
       apply_no_radius="true"
       apply_with_radius="true"
       only_selected="true"
       hide_knots="false" />
    <inkscape:path-effect
       effect="fillet_chamfer"
       id="path-effect32598"
       is_visible="true"
       lpeversion="1"
       satellites_param="F,0,0,1,0,1,0,1 @ F,0,0,1,0,0,0,1 @ F,0,0,1,0,0,0,1 @ F,0,0,1,0,0,0,1 @ F,0,0,1,0,0,0,1 @ F,0,0,1,0,0,0,1 @ F,0,0,1,0,0,0,1 @ F,0,1,1,0,0,0,1 @ F,0,1,1,0,0,0,1 @ F,0,0,1,0,0,0,1 @ F,0,0,1,0,0,0,1 @ F,0,0,1,0,0,0,1 @ F,0,0,1,0,0,0,1 @ F,0,0,1,0,0,0,1 @ F,0,0,1,0,0,0,1 @ F,0,0,1,0,0,0,1 @ F,0,0,1,0,0,0,1 @ F,0,0,1,0,1,0,1 | F,0,0,1,0,0,0,1 @ F,0,0,1,0,0,0,1 @ F,0,0,1,0,0,0,1 @ F,0,0,1,0,0,0,1 @ F,0,0,1,0,0,0,1 @ F,0,0,1,0,0,0,1 @ F,0,0,1,0,0,0,1 @ F,0,0,1,0,0,0,1 @ F,0,0,1,0,0,0,1 @ F,0,0,1,0,0,0,1 @ F,0,0,1,0,0,0,1 | F,0,0,1,0,0,0,1 @ F,0,0,1,0,0,0,1 @ F,0,0,1,0,0,0,1 @ F,0,0,1,0,0,0,1 @ F,0,0,1,0,0,0,1 @ F,0,0,1,0,0,0,1 @ F,0,0,1,0,0,0,1 @ F,0,0,1,0,0,0,1 @ F,0,0,1,0,0,0,1 @ F,0,0,1,0,0,0,1 @ F,0,0,1,0,0,0,1"
       unit="mm"
       method="auto"
       mode="F"
       radius="0"
       chamfer_steps="1"
       flexible="false"
       use_knot_distance="true"
       apply_no_radius="true"
       apply_with_radius="true"
       only_selected="true"
       hide_knots="false" />
    <inkscape:path-effect
       effect="fillet_chamfer"
       id="path-effect32638"
       is_visible="true"
       lpeversion="1"
       satellites_param="F,0,1,1,0,0.7,0,1 @ F,0,0,1,0,0,0,1 @ F,0,0,1,0,0,0,1 @ F,0,0,1,0,0,0,1 @ F,0,0,1,0,0,0,1 @ F,0,0,1,0,0,0,1 @ F,0,0,1,0,0,0,1 @ F,0,0,1,0,0,0,1 @ F,0,0,1,0,0,0,1 @ F,0,0,1,0,0,0,1 @ F,0,0,1,0,0,0,1 @ F,0,0,1,0,0,0,1 @ F,0,1,1,0,0.7,0,1 @ F,0,1,1,0,1,0,1 @ F,0,0,1,0,0,0,1 @ F,0,0,1,0,0,0,1 @ F,0,0,1,0,0,0,1 @ F,0,0,1,0,0,0,1 @ F,0,0,1,0,0,0,1 @ F,0,0,1,0,0,0,1 @ F,0,0,1,0,0,0,1 @ F,0,0,1,0,0,0,1 @ F,0,0,1,0,0,0,1 @ F,0,0,1,0,0,0,1 @ F,0,0,1,0,0,0,1 @ F,0,0,1,0,0,0,1 @ F,0,0,1,0,0,0,1 @ F,0,1,1,0,1,0,1"
       unit="mm"
       method="auto"
       mode="F"
       radius="1"
       chamfer_steps="1"
       flexible="false"
       use_knot_distance="true"
       apply_no_radius="true"
       apply_with_radius="true"
       only_selected="true"
       hide_knots="false" />
    <inkscape:path-effect
       effect="fillet_chamfer"
       id="path-effect32678"
       is_visible="true"
       lpeversion="1"
       satellites_param="F,0,0,1,0,1,0,1 @ F,0,0,1,0,1,0,1 @ F,0,0,1,0,1,0,1 @ F,0,0,1,0,1,0,1"
       unit="mm"
       method="auto"
       mode="F"
       radius="1"
       chamfer_steps="1"
       flexible="false"
       use_knot_distance="true"
       apply_no_radius="true"
       apply_with_radius="true"
       only_selected="false"
       hide_knots="false" />
  </defs>
  <g
     inkscape:groupmode="layer"
     id="layer5"
     inkscape:label="bg"
     style="display:none">
    <rect
       style="fill:#000000;stroke:none;stroke-width:0;stroke-linecap:round;stroke-opacity:0.80593"
       id="rect36941"
       width="56.133003"
       height="28.207563"
       x="-4.4465516e-09"
       y="1.4277699e-09" />
  </g>
  <g
     inkscape:label="Layer 1"
     inkscape:groupmode="layer"
     id="layer1"
     transform="translate(-0.17061681,-0.52508813)">
    <g
       id="g36708"
       inkscape:export-filename="/Users/febo/Downloads/atbci_logo.png"
       inkscape:export-xdpi="299.88397"
       inkscape:export-ydpi="299.88397"
       style="display:inline"
       transform="translate(-149.26043,-185.85991)">
      <path
         id="rect23904-7"
         style="fill:#499adc;fill-opacity:1;stroke:#4942dc;stroke-width:0;stroke-linecap:round;stroke-miterlimit:4;stroke-dasharray:none;stroke-opacity:0.80593"
         d="m 162.60543,188.05782 c -4.18964,0.0291 -6.10859,2.59819 -6.83937,3.38119 -0.38068,0.40786 -0.57864,0.88311 -0.79117,1.43919 -0.21253,0.55607 -0.40346,1.18626 -0.58188,1.81849 -0.35683,1.26444 -0.6884,2.59073 -0.86919,3.04271 -0.17525,0.43813 -0.74242,1.33761 -1.25212,2.11357 -0.25485,0.38798 -0.49546,0.75472 -0.68368,1.07229 -0.0941,0.15877 -0.17496,0.3029 -0.24392,0.45681 -0.0689,0.15392 -0.20051,0.25373 -0.12298,0.71882 0.10244,0.61466 0.41995,0.71864 0.63045,0.86507 0.21049,0.14643 0.42816,0.26536 0.64492,0.38705 0.34872,0.19577 0.6903,0.4283 0.83819,0.54519 0.005,0.045 0.0705,0.21667 0.0837,0.43718 0.0208,0.34784 0.0173,0.82425 0.0212,1.33015 0.004,0.50589 0.0159,1.0426 0.0879,1.55857 0.072,0.51596 0.17802,1.02998 0.555,1.49396 0.36457,0.4487 0.88878,0.64517 1.32809,0.71882 0.43931,0.0737 0.84228,0.0609 1.20871,0.0646 0.73286,0.007 1.18996,0.0505 1.5136,0.40824 0.78686,0.86967 0.23255,1.89446 0.23255,1.89446 a 0.86598002,0.86598002 0 0 0 0.38705,1.1622 0.86598002,0.86598002 0 0 0 1.16169,-0.38706 c 0,0 1.03008,-2.14328 -0.49764,-3.8318 -0.83365,-0.92141 -1.98978,-0.96878 -2.77968,-0.97669 -0.39495,-0.004 -0.73161,-0.006 -0.93948,-0.0408 -0.20786,-0.0349 -0.23995,-0.0668 -0.2713,-0.10542 -0.0189,-0.0233 -0.13169,-0.26975 -0.18345,-0.64079 -0.0517,-0.37105 -0.0666,-0.84832 -0.0703,-1.33222 -0.004,-0.48389 0.003,-0.97175 -0.0238,-1.41955 -0.0268,-0.4478 0.0169,-0.84498 -0.38861,-1.35186 -0.43716,-0.54645 -0.98147,-0.79323 -1.41593,-1.03714 -0.0899,-0.0505 -0.1329,-0.0788 -0.20877,-0.12299 0.15179,-0.25026 0.35108,-0.56121 0.58394,-0.91571 0.51055,-0.77726 1.10184,-1.64199 1.41387,-2.42207 0.30649,-0.76621 0.58396,-1.99922 0.92759,-3.21686 0.17182,-0.60883 0.35372,-1.19978 0.5333,-1.66967 0.17959,-0.46988 0.392,-0.82644 0.4377,-0.87539 0.97471,-1.04435 2.03948,-2.80521 5.58571,-2.82981 1.88641,-0.0131 3.24456,0.39182 4.25865,1.03095 v -1.91151 c -1.16059,-0.53719 -2.57101,-0.86392 -4.27002,-0.85215 z m 4.27054,15.56236 c -0.0748,0.10293 -0.1496,0.20574 -0.22117,0.30696 -0.76531,1.08238 -1.39323,2.15492 -1.31258,3.44527 0.12854,2.05674 0.68316,4.9785 0.68316,4.9785 a 0.86598002,0.86598002 0 0 0 0.85059,0.6997 z" />
      <path
         id="rect913-5-3-7"
         style="fill:#499adc;fill-opacity:1;stroke-width:0.987995"
         d="m 628.99609,710.76758 c -0.0132,0 -0.0259,0.002 -0.0391,0.002 h -14.38476 v 5.31445 h 8.76757 c -0.003,0.0733 -0.0117,0.14474 -0.0117,0.21875 v 1.10938 2.87305 5.84179 c 1.825,0.45998 3.25838,1.22435 4.30274,2.04102 1.60796,1.25737 2.44531,2.90039 2.44531,2.90039 a 2.9347561,3.152693 0 0 1 -1.30469,4.23047 2.9347561,3.152693 0 0 1 -3.9375,-1.40235 c 0,0 0.014,-0.10173 -0.66015,-0.6289 -0.21772,-0.17027 -0.49311,-0.35609 -0.84571,-0.5332 v 6.1582 c 1.825,0.46217 3.25838,1.22825 4.30274,2.04492 1.60796,1.25737 2.44531,2.89453 2.44531,2.89453 a 2.9347561,3.152693 0 0 1 -1.30469,4.23633 2.9347561,3.152693 0 0 1 -3.9375,-1.40234 c 0,0 0.014,-0.10756 -0.66015,-0.63477 -0.21775,-0.17027 -0.49306,-0.35802 -0.84571,-0.53516 v 1.40625 52.82032 c 0,3.06584 2.52719,5.5332 5.66797,5.5332 h 43.3125 c 3.14079,0 5.66993,-2.46736 5.66993,-5.5332 v -83.41993 c 0,-3.06583 -2.52914,-5.53515 -5.66993,-5.53515 z m -5.66797,34.72851 v -6.60351 c -0.98482,-0.2494 -2.0841,-0.40928 -3.29882,-0.44141 -4.53423,-0.11981 -7.45537,3.35553 -9.80469,5.91211 -2.34935,2.55655 -4.22046,4.13414 -5.20117,4.12695 -2.09636,-0.0151 -3.20076,-0.66799 -3.87696,-1.21875 -0.67615,-0.55079 -0.74804,-0.7832 -0.74804,-0.7832 a 2.9347561,3.152693 0 0 0 -3.96485,-1.3125 2.9347561,3.152693 0 0 0 -1.22265,4.25781 c 0,0 0.81879,1.58496 2.39062,2.86524 1.57187,1.28031 4.06954,2.46991 7.38672,2.49414 4.43278,0.034 7.10553,-3.48782 9.41406,-6 2.3085,-2.51218 4.15784,-4.0741 5.48438,-4.03906 1.62147,0.043 2.70223,0.37089 3.4414,0.74218 z m 0,-12.76171 v -6.60743 c -0.98481,-0.24822 -2.0841,-0.40734 -3.29882,-0.43945 -4.53423,-0.11981 -7.45537,3.35556 -9.80469,5.91211 -2.34935,2.55659 -4.22046,4.13413 -5.20117,4.12695 -2.09636,-0.0151 -3.20076,-0.66796 -3.87696,-1.21875 -0.67615,-0.55075 -0.74804,-0.78125 -0.74804,-0.78125 a 2.9347561,3.152693 0 0 0 -3.96485,-1.32226 2.9347561,3.152693 0 0 0 -1.22265,4.25976 c 0,0 0.81879,1.59078 2.39062,2.8711 1.57187,1.28031 4.06954,2.47186 7.38672,2.49609 4.43278,0.034 7.10553,-3.48981 9.41406,-6.00195 2.3085,-2.51218 4.15784,-4.0741 5.48438,-4.03907 1.62156,0.043 2.70224,0.37283 3.4414,0.74415 z m 20.22266,-4.29102 h 0.002 v 0.002 l 20.37696,0.0723 c 1.47794,0.004 2.66797,1.20169 2.66797,2.69336 v 11.55468 c 0,4.64814 -3.89963,7.75366 -7.60157,7.7461 l -2.91406,-0.008 c -0.21732,0.22072 -5.51397,5.60005 -8.83984,9.07812 -0.87428,0.77877 -1.3359,0.8204 -1.43946,-0.23242 -0.29858,-3.18739 -0.72303,-8.7058 -0.73437,-8.86719 l -6.47852,-0.0117 c -1.47798,-0.003 -2.66502,-1.20169 -2.66796,-2.69336 l -0.0234,-11.65429 c -0.008,-4.05445 3.67473,-7.69103 7.65234,-7.67969 z m -0.63086,39.98242 c 0.0808,-0.003 0.16435,-5e-4 0.25,0.008 1.02784,0.10092 2.39139,0.98862 3.77149,1.81641 1.84013,1.10374 3.68134,2.20681 5.52148,3.31055 1.84014,1.10373 3.67936,2.20677 5.51953,3.31054 0,0 4.08568,2.26383 4.11524,3.27149 0.0302,1.00766 -4.11524,3.35156 -4.11524,3.35156 l -5.52148,3.30859 c 0,0 -3.83065,2.27575 -5.51953,3.31055 -1.68889,1.0348 -3.82835,2.37772 -4.75782,1.7832 -0.92946,-0.59448 -0.76378,-3.99016 -0.76367,-5.09375 8e-5,-1.10354 -1.9e-4,-4.41396 0,-6.62109 1.9e-4,-2.20717 0.002,-4.41396 0.002,-6.62109 1.8e-4,-2.20713 -0.17952,-4.24406 0.84374,-4.9336 0.19191,-0.12926 0.41176,-0.19181 0.6543,-0.20117 z"
         transform="scale(0.26458333)" />
      <path
         d="m 187.16587,188.04665 0.90213,0 a 1.1035966,1.1035966 32.386537 0 1 0.99834,0.63324 l 4.77202,10.12868 a 0.63428973,0.63428973 122.38654 0 1 -0.5738,0.90463 l -1.64089,0 a 0.76655765,0.76655765 33.11507 0 1 -0.70153,-0.45759 l -0.88708,-2.01414 h -4.90764 l -0.85696,2.01173 a 0.75646538,0.75646538 146.53654 0 1 -0.69595,0.46 l -1.5695,0 a 0.63604904,0.63604904 57.541639 0 1 -0.57606,-0.90569 l 4.74017,-10.12688 a 1.1005441,1.1005441 147.54164 0 1 0.99675,-0.63398 z m -0.0191,4.31538 -1.14489,2.70432 h 3.08735 l -1.15891,-2.70596 a 0.4258157,0.4258157 179.88059 0 0 -0.78355,0.002 z"
         id="path27933-3"
         style="font-weight:800;font-size:19.05px;line-height:1.25;font-family:Avenir;-inkscape-font-specification:'Avenir, Ultra-Bold';fill:#215c94;fill-opacity:1;stroke-width:0.238172"
         inkscape:path-effect="#path-effect32596"
         inkscape:original-d="m 186.46587,188.04665 h 2.30213 l 5.49656,11.66655 h -3.14089 l -1.08861,-2.47173 h -4.90764 l -1.05291,2.47173 h -3.0695 z m 1.07076,3.3945 -1.53475,3.6252 h 3.08735 z" />
      <path
         d="M 196.44003,190.32063 H 192.935 a 1,1 45 0 1 -1,-1 v -0.27398 a 1,1 135 0 1 1,-1 h 9.69338 a 1,1 45 0 1 1,1 v 0.27398 a 1,1 135 0 1 -1,1 H 199.224 v 8.39257 a 1,1 135 0 1 -1,1 h -0.78397 a 1,1 45 0 1 -1,-1 z"
         id="path27930-2"
         style="font-weight:800;font-size:19.05px;line-height:1.25;font-family:Avenir;-inkscape-font-specification:'Avenir, Ultra-Bold';fill:#499adc;fill-opacity:1;stroke-width:0.238172"
         inkscape:path-effect="#path-effect32594"
         inkscape:original-d="M 196.44003,190.32063 H 191.935 v -2.27398 h 11.69338 v 2.27398 H 199.224 v 9.39257 h -2.78397 z"
         sodipodi:nodetypes="ccccccccc" />
      <path
         d="m 182.20019,201.37595 h 3.2644 c 0.49536,0 0.99072,0.0385 1.48608,0.11535 0.50613,0.0659 0.95841,0.20874 1.35685,0.42843 0.39844,0.20873 0.7215,0.50533 0.96918,0.88982 0.24768,0.38449 0.37152,0.89532 0.37152,1.53247 0,0.65913 -0.18307,1.20841 -0.5492,1.64782 -0.35537,0.42843 -0.82919,0.73602 -1.42146,0.92277 v 0.0329 c 0.3769,0.0549 0.71611,0.16479 1.01763,0.32956 0.3123,0.15379 0.57613,0.35702 0.7915,0.60969 0.22615,0.24168 0.39845,0.5273 0.5169,0.85687 0.11845,0.32956 0.17768,0.68109 0.17768,1.05459 0,0.61519 -0.12922,1.1315 -0.38767,1.54895 -0.25845,0.40647 -0.59227,0.73603 -1.00148,0.9887 -0.40921,0.25266 -0.87227,0.43392 -1.38917,0.54377 -0.50613,0.10985 -1.01225,0.16478 -1.51838,0.16478 h -3.68438 a 1,1 45 0 1 -1,-1 l 0,-9.66647 a 1,1 135 0 1 1,-1 z m 1.51987,4.66333 h 1.82529 c 0.19384,0 0.38229,-0.022 0.56536,-0.0659 0.19384,-0.0439 0.36614,-0.11534 0.5169,-0.21421 0.15076,-0.0989 0.26921,-0.2307 0.35536,-0.39548 0.0969,-0.16478 0.14539,-0.36252 0.14539,-0.59321 0,-0.24168 -0.0538,-0.43942 -0.16153,-0.59322 -0.0969,-0.16478 -0.22615,-0.29111 -0.38768,-0.37899 -0.16153,-0.0879 -0.3446,-0.14831 -0.5492,-0.18127 -0.20461,-0.0439 -0.40383,-0.0659 -0.59766,-0.0659 h -1.71223 z m 0,4.8281 h 2.26143 c 0.19383,0 0.38767,-0.022 0.58151,-0.0659 0.2046,-0.0439 0.38767,-0.12083 0.5492,-0.23069 0.16153,-0.10985 0.29075,-0.25266 0.38768,-0.42843 0.10768,-0.17577 0.16152,-0.38999 0.16152,-0.64266 0,-0.27463 -0.07,-0.49433 -0.20999,-0.65912 -0.12922,-0.17577 -0.29613,-0.30759 -0.50074,-0.39548 -0.20461,-0.0879 -0.42537,-0.1483 -0.66228,-0.18126 -0.23691,-0.033 -0.45766,-0.0495 -0.66227,-0.0495 h -1.90606 z"
         id="path25166-5"
         style="font-weight:800;font-size:18.1239px;line-height:1.25;font-family:Avenir;-inkscape-font-specification:'Avenir, Ultra-Bold';fill:#215c94;fill-opacity:1;stroke-width:0.226594"
         inkscape:path-effect="#path-effect32598"
         inkscape:original-d="m 181.20019,201.37595 h 4.2644 q 0.74304,0 1.48608,0.11535 0.75919,0.0989 1.35685,0.42843 0.59766,0.31309 0.96918,0.88982 0.37152,0.57674 0.37152,1.53247 0,0.9887 -0.5492,1.64782 -0.53305,0.64265 -1.42146,0.92277 v 0.0329 q 0.56535,0.0824 1.01763,0.32956 0.46845,0.23069 0.7915,0.60969 0.33922,0.36252 0.5169,0.85687 0.17768,0.49434 0.17768,1.05459 0,0.92278 -0.38767,1.54895 -0.38767,0.6097 -1.00148,0.9887 -0.61382,0.37899 -1.38917,0.54377 -0.75919,0.16478 -1.51838,0.16478 h -4.68438 z m 2.51987,4.66333 h 1.82529 q 0.29076,0 0.56536,-0.0659 0.29076,-0.0659 0.5169,-0.21421 0.22614,-0.14831 0.35536,-0.39548 0.14539,-0.24717 0.14539,-0.59321 0,-0.36252 -0.16153,-0.59322 -0.14539,-0.24717 -0.38768,-0.37899 -0.2423,-0.13183 -0.5492,-0.18127 -0.30691,-0.0659 -0.59766,-0.0659 h -1.71223 z m 0,4.8281 h 2.26143 q 0.29075,0 0.58151,-0.0659 0.3069,-0.0659 0.5492,-0.23069 0.24229,-0.16478 0.38768,-0.42843 0.16152,-0.26366 0.16152,-0.64266 0,-0.41194 -0.20999,-0.65912 -0.19383,-0.26365 -0.50074,-0.39548 -0.30691,-0.13182 -0.66228,-0.18126 -0.35536,-0.0495 -0.66227,-0.0495 h -1.90606 z" />
      <path
         d="m 198.09697,203.93152 c -0.12756,-0.0888 -0.2646,-0.1662 -0.41113,-0.23215 -0.35536,-0.16478 -0.76995,-0.24717 -1.24378,-0.24717 -0.47382,0 -0.91534,0.0934 -1.32455,0.28013 -0.39844,0.18675 -0.74842,0.45041 -1.04994,0.79096 -0.29076,0.32956 -0.52229,0.72503 -0.69458,1.18642 -0.16153,0.46139 -0.2423,0.96122 -0.2423,1.49951 0,0.54927 0.0808,1.0546 0.2423,1.51599 0.17229,0.45041 0.40382,0.84588 0.69458,1.18643 0.29075,0.32957 0.62997,0.58773 1.01764,0.77448 0.39844,0.18675 0.8238,0.28012 1.27609,0.28012 0.51689,0 0.97456,-0.10985 1.37301,-0.32956 0.19583,-0.10798 0.37475,-0.2372 0.53676,-0.38764 0.2826,-0.26241 0.69795,-0.34531 1.00557,-0.11116 l 0.74718,0.56873 c 0.43946,0.3345 0.54611,0.98514 0.14129,1.35926 -0.35011,0.32355 -0.74578,0.58318 -1.18702,0.77889 -0.74304,0.32956 -1.50762,0.49434 -2.29373,0.49434 -0.8938,0 -1.7176,-0.14281 -2.47141,-0.42844 -0.75381,-0.28562 -1.40532,-0.69208 -1.95452,-1.21938 -0.54921,-0.53829 -0.97995,-1.18643 -1.29224,-1.94442 -0.30153,-0.758 -0.45229,-1.60388 -0.45229,-2.53764 0,-0.93376 0.15076,-1.77964 0.45229,-2.53763 0.31229,-0.758 0.74303,-1.40065 1.29224,-1.92794 0.5492,-0.53829 1.20071,-0.95025 1.95452,-1.23587 0.75381,-0.28562 1.57761,-0.42843 2.47141,-0.42843 0.32306,0 0.65689,0.033 1.00148,0.0989 0.35537,0.0549 0.69997,0.14831 1.0338,0.28013 0.3446,0.13183 0.67304,0.30759 0.98533,0.5273 0.0461,0.0325 0.0916,0.066 0.13629,0.10061 0.43561,0.33714 0.35968,0.99339 -0.0646,1.34689 l -0.63223,0.52671 c -0.29703,0.24745 -0.73124,0.19179 -1.04742,-0.0284 z"
         id="path25168-6"
         style="font-weight:800;font-size:18.1239px;line-height:1.25;font-family:Avenir;-inkscape-font-specification:'Avenir, Ultra-Bold';fill:#499adc;fill-opacity:1;stroke-width:0.226594"
         inkscape:path-effect="#path-effect32638"
         inkscape:original-d="m 198.60657,204.40794 q -0.37152,-0.46139 -0.92073,-0.70857 -0.53304,-0.24717 -1.24378,-0.24717 -0.71073,0 -1.32455,0.28013 -0.59766,0.28013 -1.04994,0.79096 -0.43614,0.49434 -0.69458,1.18642 -0.2423,0.69208 -0.2423,1.49951 0,0.82391 0.2423,1.51599 0.25844,0.67561 0.69458,1.18643 0.43613,0.49435 1.01764,0.77448 0.59766,0.28012 1.27609,0.28012 0.77534,0 1.37301,-0.32956 0.59766,-0.32956 0.98533,-0.92277 l 2.09989,1.59837 q -0.72689,1.03813 -1.84144,1.53248 -1.11456,0.49434 -2.29373,0.49434 -1.3407,0 -2.47141,-0.42844 -1.13072,-0.42843 -1.95452,-1.21938 -0.82381,-0.80743 -1.29224,-1.94442 -0.45229,-1.137 -0.45229,-2.53764 0,-1.40064 0.45229,-2.53763 0.46843,-1.137 1.29224,-1.92794 0.8238,-0.80744 1.95452,-1.23587 1.13071,-0.42843 2.47141,-0.42843 0.48459,0 1.00148,0.0989 0.53305,0.0824 1.0338,0.28013 0.5169,0.19774 0.98533,0.5273 0.46844,0.32956 0.83996,0.80743 z" />
      <path
         d="m 202.12825,201.37595 h 0.51988 a 1,1 45 0 1 1,1 l 0,9.66654 a 1,1 135 0 1 -1,1 h -0.51988 a 1,1 45 0 1 -1,-1 v -9.66654 a 1,1 135 0 1 1,-1 z"
         id="path25170-3"
         style="font-weight:800;font-size:18.1239px;line-height:1.25;font-family:Avenir;-inkscape-font-specification:'Avenir, Ultra-Bold';fill:#499adc;fill-opacity:1;stroke-width:0.226594"
         inkscape:path-effect="#path-effect32678"
         inkscape:original-d="m 201.12825,201.37595 h 2.51988 v 11.66654 h -2.51988 z" />
    </g>
    <rect
       style="display:inline;fill:none;fill-opacity:1;stroke:none;stroke-width:0;stroke-linecap:round;stroke-miterlimit:4;stroke-dasharray:none;stroke-opacity:0.80593"
       id="rect32345-4"
       width="56.132999"
       height="28.207563"
       x="0.17061681"
       y="0.52508813"
       inkscape:export-filename="/Users/febo/Downloads/atbci_logo.png"
       inkscape:export-xdpi="299.88397"
       inkscape:export-ydpi="299.88397" />
  </g>
</svg>
