<?xml version="1.0" encoding="utf-8"?>
<!-- Generator: Adobe Illustrator 25.3.1, SVG Export Plug-In . SVG Version: 6.00 Build 0)  -->
<svg version="1.1" id="Livello_1" xmlns="http://www.w3.org/2000/svg" xmlns:xlink="http://www.w3.org/1999/xlink" x="0px" y="0px"
	 viewBox="0 0 140.2 45" style="enable-background:new 0 0 140.2 45;" xml:space="preserve">
<style type="text/css">
	.st0{fill:#E50000;}
	.st1{fill:#EDEDED;}
	.st2{fill:#A80000;}
	.st3{fill:#008E4D;}
	.st4{fill:#00D24D;}
	.st5{fill:#0027AC;}
	.st6{font-family:'PlayfairDisplay-Regular';}
	.st7{font-size:14.0644px;}
	.st8{font-family:'PlayfairDisplay-Bold';}
	.st9{font-family:'AvenirNext-Medium';}
	.st10{font-size:4.3634px;}
</style>
<g>
	<g>
		<path class="st0" d="M47.7,5.4C43.5,4.6,39.3,3.8,35,3c0,3.6,0,7.2,0,10.9c1.1,0.1,2.1,0.2,3.2,0.3c0,4.9,0,9.8,0,14.7
			c3.2-0.2,6.3-0.5,9.5-0.7C47.7,20.5,47.7,13,47.7,5.4z"/>
		<path class="st1" d="M35,13.8c-2.1-0.2-4.3-0.3-6.4-0.5c0,7.6,0,15.3,0,22.9c-1.1,0.2-2.1,0.3-3.2,0.5c0,1.8,0,3.6,0,5.3
			c4.3-0.8,8.6-1.6,12.8-2.5c0-3.6,0-7.2,0-10.8C37.2,28.9,36.1,29,35,29C35,24,35,18.9,35,13.8z"/>
		<path class="st2" d="M35,13.8c0,5.1,0,10.1,0,15.2c1.1-0.1,2.1-0.2,3.2-0.2c0-4.9,0-9.8,0-14.7C37.2,14,36.1,13.9,35,13.8z"/>
		<path class="st3" d="M28.6,13.3c0-1.7,0-3.5,0-5.2C24.4,7.6,20.1,7,15.8,6.5c0,10.5,0,21.1,0,31.6c3.2-0.5,6.4-0.9,9.6-1.4
			c0-7.9,0-15.8,0-23.6C26.5,13.1,27.6,13.2,28.6,13.3z"/>
		<path class="st4" d="M28.6,13.3c-1.1-0.1-2.1-0.2-3.2-0.3c0,7.9,0,15.8,0,23.6c1.1-0.2,2.1-0.3,3.2-0.5
			C28.6,28.6,28.6,21,28.6,13.3z"/>
	</g>
	<g>
		<path class="st3" d="M6.3,16.8c-1,0-2.1-0.1-3.1-0.1c0-1.1,0-2.2,0-3.3c1,0.1,2.1,0.1,3.1,0.2C6.3,14.6,6.3,15.7,6.3,16.8z"/>
		<path class="st3" d="M10,20.6c-1,0-2.1,0-3.1,0c0-1.1,0-2.1,0-3.2c1,0,2.1,0.1,3.1,0.1C10,18.6,10,19.6,10,20.6z"/>
		<path class="st3" d="M17.5,20.7c-1,0-2.1,0-3.1,0c0-1,0-2,0-3c1,0,2.1,0.1,3.1,0.1C17.5,18.7,17.5,19.7,17.5,20.7z"/>
		<path class="st4" d="M17.5,12.6c-1-0.1-2.1-0.1-3.1-0.2c0-1,0-2,0-3c1,0.1,2.1,0.2,3.1,0.3C17.5,10.6,17.5,11.6,17.5,12.6z"/>
		<path class="st4" d="M6.3,24.4c-1,0-2.1,0-3.1,0c0-1.1,0-2.2,0-3.3c1,0,2.1,0,3.1,0C6.3,22.3,6.3,23.3,6.3,24.4z"/>
		<path class="st3" d="M13.8,27.9c-1,0-2.1,0.1-3.1,0.1c0-1,0-2.1,0-3.1c1,0,2.1,0,3.1-0.1C13.8,25.9,13.8,26.9,13.8,27.9z"/>
		<path class="st4" d="M17.5,31.3c-1,0.1-2.1,0.1-3.1,0.2c0-1,0-2,0-3c1,0,2.1-0.1,3.1-0.1C17.5,29.3,17.5,30.3,17.5,31.3z"/>
		<path class="st4" d="M10,35.5c-1,0.1-2.1,0.2-3.1,0.3c0-1.1,0-2.1,0-3.2c1-0.1,2.1-0.1,3.1-0.2C10,33.4,10,34.5,10,35.5z"/>
		<path class="st3" d="M17.4,34.8c-1,0.1-2.1,0.2-3.1,0.3c0-1,0-2,0-3c1-0.1,2.1-0.1,3.1-0.2C17.4,32.8,17.4,33.8,17.4,34.8z"/>
	</g>
	<g>
		<path class="st0" d="M30.4,7c0-0.8,0-1.6,0-2.4c-0.8-0.1-1.5-0.2-2.3-0.3c0,0.8,0,1.6,0,2.4C28.9,6.9,29.6,6.9,30.4,7z"/>
		<path class="st0" d="M33.2,10.1c0-0.8,0-1.5,0-2.3c-0.8-0.1-1.5-0.2-2.3-0.2c0,0.8,0,1.6,0,2.4C31.6,10,32.4,10,33.2,10.1z"/>
		<path class="st2" d="M33.2,15.6c0-0.8,0-1.5,0-2.3c-0.8,0-1.5-0.1-2.3-0.1c0,0.8,0,1.6,0,2.4C31.6,15.6,32.4,15.6,33.2,15.6z"/>
		<path class="st2" d="M34.4,22c0-0.7,0-1.5,0-2.2c-0.8,0-1.5,0.1-2.3,0.1c0,0.8,0,1.5,0,2.3C32.9,22.1,33.6,22.1,34.4,22z"/>
		<path class="st2" d="M35.9,7.7c0-0.7,0-1.5,0-2.2c-0.8-0.1-1.5-0.2-2.3-0.3c0,0.8,0,1.5,0,2.3C34.4,7.5,35.2,7.6,35.9,7.7z"/>
		<path class="st0" d="M35.9,18.2c0-0.7,0-1.5,0-2.2c-0.8,0-1.5,0-2.3,0c0,0.8,0,1.5,0,2.3C34.4,18.3,35.2,18.3,35.9,18.2z"/>
		<path class="st0" d="M35.9,26.2c0-0.7,0-1.5,0-2.2c-0.8,0.1-1.5,0.2-2.3,0.3c0,0.8,0,1.5,0,2.3C34.4,26.4,35.1,26.3,35.9,26.2z"/>
	</g>
	<text transform="matrix(1 0 0 1 52.4387 28.1709)"><tspan x="0" y="0" class="st5 st6 st7">Italia</tspan><tspan x="33.6" y="0" class="st5 st8 st7">domani</tspan></text>
	<text transform="matrix(1 0 0 1 53.4328 35.3633)"><tspan x="0" y="0" class="st5 st9 st10">PIANO NAZIONALE </tspan><tspan x="0" y="4.2" class="st5 st9 st10">DI RIPRESA E RESILIENZA</tspan></text>
</g>
</svg>
