<!-- Generated by IcoMoon.io -->
<svg version="1.1" xmlns="http://www.w3.org/2000/svg" width="911" height="1024" viewBox="0 0 911 1024">
<g id="icomoon-ignore">
</g>
<path d="M720 293q-8-12-22-8-4 1-8 3-5-4-10-5-10-4-19 2 7-20 12-43 4-23 6-35 9 0 15-8 9-12 1-23-8-12-22-8-15 4-15 19 0 14 14 19l2 1q-4 31-13 58-12 38-31 63-1 1-2.5 3.5t-3.5 3.5q-1-11-3-17-6-28-23-46 13 0 24-6 11-7 17-19 5-8 7-29 2-29-6-71-1-6-4-25 6-2 10-7 9-12 0-23-8-12-22-9-14 5-14 20 0 14 13 19 5 1 9 1 0 1 1 4.5t1 5.5q4 23 5 48 1 19 0 36-2 18-9 28-9 14-27 16-12 0-22-3 2-6 3-14 1-14-3-28 0-1 1-1h2q3-1 8-1 0 1-0.5 2l-0.5 1q0 7 4.5 12t10.5 5q15 2 19-13 4-14-11-20-14-5-21 9h-3q-6-1-11 0-4-13-9-22-6-10-20-29 4-2 6-4h1q15-9 27-8 7 1 13 5-3 3-5 6t-2 8q0 6 4.5 11t10.5 6q15 1 19-13 4-15-11-20-6-3-12 0-7-6-15-8-8-1-17 1 15-19 19-44 3-15 1-33 0-1-0.5-3.5t-0.5-3.5q9-3 12-13 4-14-10-20-15-5-22 8-1 4-1 8 0 7 4 12t10 5h4q3 34-8 59-6 15-19 26-6 4-14 8-9-12-13-21l-1-1q-3-9 2-21 1-3 4-7 3 3 8 3 15 2 19-13 3-14-11-20-15-5-21 9-2 3-2 7 0 7 5 12-2 2-5 6-2 4-4 11-10-23-10-51 0-16 2-26 11 1 18-8 9-12 1-23-8-12-22-8-15 4-15 19 0 14 14 19h1q-1 1-1.5 3.5t-0.5 3.5q-3 14-2 32 1 34 19 66 3 5 8 13-1 0-3.5 1.5t-4.5 2.5q-36 18-55 41l-8 10v-40q2-6 5-12 4-7 10-11 4 7 13 8 15 1 18-13 4-15-10-20-15-5-22 8-1 3-1 8 0 2 1 4-8 5-14 11l-1 1v-7q-1-34-2-51v-37q1 0 4-1 14-4 14-19 0-16-15-19-14-5-22 8-8 12 1 23 5 7 14 8v1q0 3-0.5 9.5t-0.5 9.5q0 7-0.5 20.5t-0.5 20.5q-1 22-1 33-6-7-14-11 1-3 1-5 0-3-2-7-6-14-21-8-6 2-9 7.5t-2 12.5q4 15 19 12 8 0 12-8 6 5 9 10 5 8 5 12 2 9 1 15v13t-1 13q-9-13-19-22-11-10-28-20-10-6-16-9-5-2-8-4 7-10 12-19 16-32 16-67 0-18-4-31h1q13-4 13-19 0-16-14-19-14-5-22 8-8 12 0 23 7 9 18 8l1 2q2 12 2 31-2 23-10 44l-4-8q-3-6-5-9 4-5 4-12 0-5-1-7-7-14-22-9-6 3-9 8.5t-1 11.5q4 15 19 13 4 0 7-3 1 1 1.5 2.5t1.5 2.5q6 12 3 23-1 1-2.5 4t-2.5 4q-1 3-4.5 7.5t-4.5 6.5q-15-8-25-20-9-12-13-30-4-16-3-34 0-4 1-9h3q6 0 10.5-5t4.5-12q0-3-2-7-6-14-21-9-6 3-9 8.5t-2 11.5q2 10 12 13-4 28 2 51 6 19 17 33-6-2-15-1-10 1-16 8-7-3-13 0-6 2-9 8t-2 12q4 15 19 13 7-1 11-6t4-11q0-5-2-8-1-3-5-6 5-4 11-5 13-2 30 8 2 2 7 4-17 23-24 37-4 8-6 14h-7q-2 0-6 1 0-1-1-1-7-13-21-8-6 2-9 8t-2 12q4 15 19 13 6-1 10.5-6t4.5-11q0-2-1-3h5q3 0 6 1-5 20-1 37 0 3 1 5-19 6-33 1-17-6-23-29-3-13-3-35 0-16 2-36 2-12 5-36 4 1 9-1 14-4 14-19t-15-19q-14-5-22 8-8 12 0 23 5 6 11 7-2 6-3 16-7 41-8 65-1 43 19 59 12 9 29 9-14 15-20 35-5 15-6 28-13-15-24-36-13-28-22-65-3-17-5-26 1 0 3-1 14-4 14-19 0-16-15-19-14-5-22 8-8 12 0 23 6 8 16 8 2 17 5 33 5 25 13 45-8-5-16-3-6 1-14 6-3-2-7-4-14-4-22 8t0 24q9 11 23 6 14-4 14-19 0-7-5-12 3-2 6-3 10-4 18 2 3 2 9 11v0.5t1 1.5q6 16 15 28-20-6-33 4-14 9-14 27 0 4 1 9-6 2-9 8t-1 12q3 15 18 13 7-1 11-6t4-11q0-4-1-8-6-11-18-9v-1q-2-19 9-27 12-8 24-5.5t22 12.5q0 9 1 26t5 36q-7 2-11 7-8 13 0 24 9 12 23 7t14-20-15-19q-2-1-7-1-2-13-2-20-2-20-1-34l2 2q26 23 60 28 42 5 62 21 2 1 9 9-10-3-22-2-20 3-33 24-5-2-11 0-6 3-9.5 8.5t-1.5 11.5q4 16 19 13 6 0 10.5-5t4.5-12q0-5-2-7-2-4-6-7 2-3 5-5 12-10 29-8 15 2 22 13 3 5 6 15 1 4 1 13-1 8-1.5 25.5t-0.5 25.5q0 7-0.5 19t-0.5 18q0 3-0.5 7.5t-0.5 6.5h37v-4q0-4-0.5-13t-0.5-13q-1-32-2-47v-38q2-8 5-15 8-12 22-14 9-1 16 1t13 7l6 6q-4 3-6 7-2 3-2 7 0 15 15 17t19-13q4-14-11-20-5-1-11 0l-6-8q-10-13-27-15-12-2-22 1 4-4 9-8 20-16 59-22 17-2 33-8 14-6 28-17l5-5q1 6 1 19-1 20-3 36-4-1-8 1-14 4-14 19 0 14 13.5 19t22.5-7 1-23q-4-6-11-8l4-26q2-20 1-36 23-21 44-8 12 7 12 24 0 3-1 6-12-2-17 9-2 3-2 8 0 6 4.5 11t10.5 6q15 1 19-13 4-15-11-20 1-5 1-7 1-19-12-29-15-10-34-4 8-11 14-24 0-2 1-3.5t1-2.5q10-17 24-14 5 1 9 4-5 5-5 13 0 14 14 19t23-7q5-14-2-24zM350 253q-4-13-2-28 3 3 8.5 10t8.5 10q0 1 1 2.5t2 1.5q-3 1-18 4v0zM374 263q19 0 32 8 12 8 23 22 8 13 14 30 2 5 5 14-14-15-53-39-29-18-39-33 10-2 18-2zM515 302q-30 19-45 36 2-7 3-10 5-14 11-26 16-29 41-36 15-5 37-1-9 14-47 37zM567 253q-9-3-18-3l2-2t1-2q3-3 9-10t9-11q2 16-3 28zM498 194q11-11 28-21 3-2 8-4.5t8-4.5q17 27 23 41 2 8 3 11l-20 20q-13 12-20 14-1 0-2 0.5t-2 0.5q-7 1-15 5 1-3 2-4 2-7 5-18h1q15 1 18-13 4-15-10-20-15-5-22 8-1 4-1 8 0 11 10 15-5 10-8 13-6 10-11 17-1 2-6 7 0 1-1 2l-4 4q-7 7-10 12-1 2-4 6v-8l-2-34q3-30 32-57zM376 164q19 11 26 16 16 11 26 22 13 14 18 29 4 9 5 21-1 7-1 20.5t-1 20.5v-1q-5-8-14-17l-1-2-2-1v-1q-1-1-2-1-2-3-5-8-6-8-11-15-3-5-8-15 10-5 10-16 0-3-2-7-6-14-21-8-6 2-9 8t-1 12q3 15 18 12h1q2 9 5 17 0 1 1 2.5t1 2.5q-1 0-2-0.5l-1-0.5q-7-3-15-4-9-3-20-14l-8-7.5t-12-10.5q0-1-0.5-1t-0.5-1q3-12 7-18 5-12 19-34zM367 373q-31-2-56-21-6-4-11-9 1-2 1.5-7.5t1.5-7.5q9-39 33-54l6-3q9 17 34 35 2 2 11.5 8t14.5 10q-15 0-30 8-8-10-19-6-6 2-9.5 8t-1.5 12q4 15 19 13 6-1 10.5-6t4.5-11q0-4-2-7 1 0 2-0.5l1-0.5q15-4 28-1 11 2 21 11 2 1 3 2 11 13 15 28 2 10 2 25-7-6-16-11-25-14-63-15zM578 368q-13 4-27 5-16 0-31 4-29 6-48 22-1-16 2-25 0-1 0.5-3.5t1.5-3.5q5-12 15-23h1q8-7 20-11 13-3 27 0 1 0 2.5 0.5t2.5 0.5q-1 4-1 7 0 7 4 12t11 5q15 2 18-13 4-14-10-20-13-4-20 6-3-1-6-3-10-4-23-5 2-1 14.5-9.5t18.5-13.5q15-11 23-23 2-3 4-7 22 11 32 36 7 16 9 37-21 18-40 25zM0 765l10-11q14 11 29 11 17 0 17-11 0-10-21-15-16-3-23.5-9t-7.5-18v-1q0-11 9-18.5t23-7.5q19 0 33 11l-9 12q-12-9-25-9-15 0-15 11 0 6 4.5 9t17.5 6q30 7 30 27v1q0 13-9 20t-24 7q-22 0-39-15zM121 685h15l41 94h-17l-10-23h-44l-9 23h-16zM144 742l-16-37-16 37h32zM192 685h15l49 65v-65h17v94h-14l-52-67v67h-15v-94zM318 701h-30v-16h76v16h-30v78h-16v-78zM401 685h15l41 94h-17l-10-23h-44l-9 23h-17zM424 742l-16-37-16 37h32zM510 685h16v79h49v15h-65v-94zM587 739v-54h16v53q0 27 23.5 27t23.5-26v-54h16v53q0 20-10.5 31t-29.5 11q-18 0-28.5-10.5t-10.5-30.5zM684 732q0-20 13.5-34t34.5-14q22 0 36 14l-11 12q-13-11-26-11t-21.5 9-8.5 23v1q0 14 8.5 23.5t21.5 9.5q14 0 27-12l11 11q-16 16-38 16-20 0-33.5-14t-13.5-34zM785 685h17v93h-17v-93zM858 685h16l41 94h-18l-9-23h-44l-10 23h-16zM882 742l-16-37-16 37h32z"></path>
</svg>
