<?xml version="1.0" encoding="UTF-8" standalone="no"?>
<!-- Created with Inkscape (http://www.inkscape.org/) -->

<svg
   width="28.760418mm"
   height="25.62261mm"
   viewBox="0 0 28.760418 25.62261"
   version="1.1"
   id="svg36764"
   inkscape:version="1.1.2 (b8e25be8, 2022-02-05)"
   sodipodi:docname="atbci_icon_v1.0.svg"
   xmlns:inkscape="http://www.inkscape.org/namespaces/inkscape"
   xmlns:sodipodi="http://sodipodi.sourceforge.net/DTD/sodipodi-0.dtd"
   xmlns="http://www.w3.org/2000/svg"
   xmlns:svg="http://www.w3.org/2000/svg">
  <sodipodi:namedview
     id="namedview36766"
     pagecolor="#ffffff"
     bordercolor="#666666"
     borderopacity="1.0"
     inkscape:pageshadow="2"
     inkscape:pageopacity="0.0"
     inkscape:pagecheckerboard="0"
     inkscape:document-units="mm"
     showgrid="false"
     fit-margin-top="0"
     fit-margin-left="0"
     fit-margin-right="0"
     fit-margin-bottom="0"
     inkscape:zoom="2.3756898"
     inkscape:cx="62.92909"
     inkscape:cy="135.32911"
     inkscape:window-width="1312"
     inkscape:window-height="1081"
     inkscape:window-x="941"
     inkscape:window-y="59"
     inkscape:window-maximized="0"
     inkscape:current-layer="layer1" />
  <defs
     id="defs36761">
    <inkscape:path-effect
       effect="fillet_chamfer"
       id="path-effect32596"
       is_visible="true"
       lpeversion="1"
       satellites_param="F,0,1,1,0,0.7,0,1 @ F,0,1,1,0,0.7,0,1 @ F,0,1,1,0,1,0,1 @ F,0,1,1,0,0.5,0,1 @ F,0,0,1,0,0,0,1 @ F,0,0,1,0,0,0,1 @ F,0,1,1,0,0.5,0,1 @ F,0,1,1,0,1,0,1 | F,0,1,1,0,1,0,1 @ F,0,0,1,0,0,0,1 @ F,0,0,1,0,0,0,1"
       unit="mm"
       method="auto"
       mode="F"
       radius="1"
       chamfer_steps="1"
       flexible="false"
       use_knot_distance="true"
       apply_no_radius="true"
       apply_with_radius="true"
       only_selected="true"
       hide_knots="false" />
    <inkscape:path-effect
       effect="fillet_chamfer"
       id="path-effect32594"
       is_visible="true"
       lpeversion="1"
       satellites_param="F,0,0,1,0,0,0,1 @ F,0,1,1,0,1,0,1 @ F,0,1,1,0,1,0,1 @ F,0,1,1,0,1,0,1 @ F,0,1,1,0,1,0,1 @ F,0,0,1,0,0,0,1 @ F,0,1,1,0,1,0,1 @ F,0,1,1,0,1,0,1"
       unit="mm"
       method="auto"
       mode="F"
       radius="1"
       chamfer_steps="1"
       flexible="false"
       use_knot_distance="true"
       apply_no_radius="true"
       apply_with_radius="true"
       only_selected="true"
       hide_knots="false" />
    <inkscape:path-effect
       effect="fillet_chamfer"
       id="path-effect32598"
       is_visible="true"
       lpeversion="1"
       satellites_param="F,0,0,1,0,1,0,1 @ F,0,0,1,0,0,0,1 @ F,0,0,1,0,0,0,1 @ F,0,0,1,0,0,0,1 @ F,0,0,1,0,0,0,1 @ F,0,0,1,0,0,0,1 @ F,0,0,1,0,0,0,1 @ F,0,1,1,0,0,0,1 @ F,0,1,1,0,0,0,1 @ F,0,0,1,0,0,0,1 @ F,0,0,1,0,0,0,1 @ F,0,0,1,0,0,0,1 @ F,0,0,1,0,0,0,1 @ F,0,0,1,0,0,0,1 @ F,0,0,1,0,0,0,1 @ F,0,0,1,0,0,0,1 @ F,0,0,1,0,0,0,1 @ F,0,0,1,0,1,0,1 | F,0,0,1,0,0,0,1 @ F,0,0,1,0,0,0,1 @ F,0,0,1,0,0,0,1 @ F,0,0,1,0,0,0,1 @ F,0,0,1,0,0,0,1 @ F,0,0,1,0,0,0,1 @ F,0,0,1,0,0,0,1 @ F,0,0,1,0,0,0,1 @ F,0,0,1,0,0,0,1 @ F,0,0,1,0,0,0,1 @ F,0,0,1,0,0,0,1 | F,0,0,1,0,0,0,1 @ F,0,0,1,0,0,0,1 @ F,0,0,1,0,0,0,1 @ F,0,0,1,0,0,0,1 @ F,0,0,1,0,0,0,1 @ F,0,0,1,0,0,0,1 @ F,0,0,1,0,0,0,1 @ F,0,0,1,0,0,0,1 @ F,0,0,1,0,0,0,1 @ F,0,0,1,0,0,0,1 @ F,0,0,1,0,0,0,1"
       unit="mm"
       method="auto"
       mode="F"
       radius="0"
       chamfer_steps="1"
       flexible="false"
       use_knot_distance="true"
       apply_no_radius="true"
       apply_with_radius="true"
       only_selected="true"
       hide_knots="false" />
    <inkscape:path-effect
       effect="fillet_chamfer"
       id="path-effect32638"
       is_visible="true"
       lpeversion="1"
       satellites_param="F,0,1,1,0,0.7,0,1 @ F,0,0,1,0,0,0,1 @ F,0,0,1,0,0,0,1 @ F,0,0,1,0,0,0,1 @ F,0,0,1,0,0,0,1 @ F,0,0,1,0,0,0,1 @ F,0,0,1,0,0,0,1 @ F,0,0,1,0,0,0,1 @ F,0,0,1,0,0,0,1 @ F,0,0,1,0,0,0,1 @ F,0,0,1,0,0,0,1 @ F,0,0,1,0,0,0,1 @ F,0,1,1,0,0.7,0,1 @ F,0,1,1,0,1,0,1 @ F,0,0,1,0,0,0,1 @ F,0,0,1,0,0,0,1 @ F,0,0,1,0,0,0,1 @ F,0,0,1,0,0,0,1 @ F,0,0,1,0,0,0,1 @ F,0,0,1,0,0,0,1 @ F,0,0,1,0,0,0,1 @ F,0,0,1,0,0,0,1 @ F,0,0,1,0,0,0,1 @ F,0,0,1,0,0,0,1 @ F,0,0,1,0,0,0,1 @ F,0,0,1,0,0,0,1 @ F,0,0,1,0,0,0,1 @ F,0,1,1,0,1,0,1"
       unit="mm"
       method="auto"
       mode="F"
       radius="1"
       chamfer_steps="1"
       flexible="false"
       use_knot_distance="true"
       apply_no_radius="true"
       apply_with_radius="true"
       only_selected="true"
       hide_knots="false" />
    <inkscape:path-effect
       effect="fillet_chamfer"
       id="path-effect32678"
       is_visible="true"
       lpeversion="1"
       satellites_param="F,0,0,1,0,1,0,1 @ F,0,0,1,0,1,0,1 @ F,0,0,1,0,1,0,1 @ F,0,0,1,0,1,0,1"
       unit="mm"
       method="auto"
       mode="F"
       radius="1"
       chamfer_steps="1"
       flexible="false"
       use_knot_distance="true"
       apply_no_radius="true"
       apply_with_radius="true"
       only_selected="false"
       hide_knots="false" />
  </defs>
  <g
     inkscape:groupmode="layer"
     id="layer5"
     inkscape:label="bg"
     style="display:none"
     transform="translate(-1.4944501,-1.4457971)">
    <rect
       style="fill:#000000;stroke:none;stroke-width:0;stroke-linecap:round;stroke-opacity:0.80593"
       id="rect36941"
       width="56.133003"
       height="28.207563"
       x="-4.4465516e-09"
       y="1.4277699e-09" />
  </g>
  <g
     inkscape:label="Layer 1"
     inkscape:groupmode="layer"
     id="layer1"
     transform="translate(-1.6650669,-1.9708852)">
    <path
       id="rect23904-7"
       style="fill:#499adc;fill-opacity:1;stroke:#4942dc;stroke-width:0;stroke-linecap:round;stroke-miterlimit:4;stroke-dasharray:none;stroke-opacity:0.80593"
       d="M 58.568359 0.85546875 C 58.555131 0.85546875 58.542298 0.85742188 58.529297 0.85742188 L 44.146484 0.85742188 L 44.144531 0.85742188 C 28.309671 0.96740613 21.056925 10.677349 18.294922 13.636719 C 16.856131 15.178237 16.10795 16.974452 15.304688 19.076172 C 14.501425 21.177854 13.779812 23.559688 13.105469 25.949219 C 11.75682 30.728205 10.503613 35.740948 9.8203125 37.449219 C 9.1579503 39.105143 7.0143158 42.504738 5.0878906 45.4375 C 4.124678 46.903881 3.2152889 48.28997 2.5039062 49.490234 C 2.1482527 50.09031 1.8426675 50.63509 1.5820312 51.216797 C 1.3216218 51.798542 0.82416073 52.175773 1.1171875 53.933594 C 1.5043623 56.256718 2.7044094 56.649689 3.5 57.203125 C 4.2955528 57.756561 5.1182496 58.206085 5.9375 58.666016 C 7.2554969 59.405934 8.5465144 60.284774 9.1054688 60.726562 C 9.1243664 60.896641 9.3719852 61.545483 9.421875 62.378906 C 9.5004892 63.693577 9.487213 65.494187 9.5019531 67.40625 C 9.5170712 69.318275 9.5618584 71.346752 9.8339844 73.296875 C 10.10611 75.24696 10.506834 77.189734 11.931641 78.943359 C 13.309543 80.639233 15.290788 81.381794 16.951172 81.660156 C 18.611556 81.938707 20.134599 81.890313 21.519531 81.904297 C 24.289396 81.930754 26.017028 82.095177 27.240234 83.447266 C 30.214193 86.734207 28.119141 90.607422 28.119141 90.607422 A 3.2729954 3.2729954 0 0 0 29.582031 95 A 3.2729954 3.2729954 0 0 0 33.972656 93.537109 C 33.972656 93.537109 37.865857 85.436495 32.091797 79.054688 C 28.940994 75.572193 24.571386 75.393177 21.585938 75.363281 C 20.093213 75.348163 18.820807 75.340512 18.035156 75.208984 C 17.249544 75.077079 17.128254 74.956512 17.009766 74.810547 C 16.938333 74.722484 16.512035 73.791028 16.316406 72.388672 C 16.121005 70.986278 16.064766 69.182429 16.050781 67.353516 C 16.035663 65.52464 16.062229 63.680754 15.960938 61.988281 C 15.859646 60.295809 16.024824 58.794673 14.492188 56.878906 C 12.839929 54.813583 10.782679 53.880849 9.140625 52.958984 C 8.8008455 52.768118 8.6383153 52.661158 8.3515625 52.494141 C 8.925257 51.548276 9.678493 50.373046 10.558594 49.033203 C 12.488232 46.095528 14.723018 42.82724 15.902344 39.878906 C 17.060731 36.982994 18.109444 32.322807 19.408203 27.720703 C 20.057602 25.419613 20.745101 23.186118 21.423828 21.410156 C 22.102593 19.634232 22.905401 18.28657 23.078125 18.101562 C 26.762068 14.154413 30.786379 7.4992264 44.189453 7.40625 C 47.502294 7.3832443 50.379832 7.7054096 52.900391 8.2949219 L 52.900391 10.373047 L 52.900391 16.214844 C 54.725392 16.674824 56.158762 17.43919 57.203125 18.255859 C 58.811083 19.51323 59.648438 21.15625 59.648438 21.15625 A 2.9347561 3.152693 0 0 1 58.34375 25.386719 A 2.9347561 3.152693 0 0 1 54.40625 23.984375 C 54.40625 23.984375 54.420229 23.882639 53.746094 23.355469 C 53.528355 23.185197 53.25299 22.999377 52.900391 22.822266 L 52.900391 28.980469 C 54.725392 29.442638 56.158762 30.208722 57.203125 31.025391 C 58.811083 32.28276 59.648437 33.919922 59.648438 33.919922 A 2.9347561 3.152693 0 0 1 58.34375 38.15625 A 2.9347561 3.152693 0 0 1 54.40625 36.753906 C 54.40625 36.753906 54.420229 36.646343 53.746094 36.119141 C 53.528355 35.948873 53.253043 35.761112 52.900391 35.583984 L 52.900391 36.990234 L 52.900391 89.810547 C 52.900391 92.876386 55.42758 95.34375 58.568359 95.34375 L 101.88086 95.34375 C 105.02165 95.34375 107.55078 92.876386 107.55078 89.810547 L 107.55078 6.390625 C 107.55078 3.3247951 105.02165 0.85546875 101.88086 0.85546875 L 58.568359 0.85546875 z M 52.900391 35.583984 L 52.900391 28.980469 C 51.91557 28.731069 50.816284 28.571193 49.601562 28.539062 C 45.067331 28.419251 42.146195 31.894594 39.796875 34.451172 C 37.447528 37.007724 35.576415 38.585314 34.595703 38.578125 C 32.499347 38.563007 31.39495 37.910135 30.71875 37.359375 C 30.0426 36.808584 29.970703 36.576172 29.970703 36.576172 A 2.9347561 3.152693 0 0 0 26.005859 35.263672 A 2.9347561 3.152693 0 0 0 24.783203 39.521484 C 24.783203 39.521484 25.601998 41.106438 27.173828 42.386719 C 28.745698 43.667026 31.243366 44.856633 34.560547 44.880859 C 38.993324 44.914875 41.666082 41.39304 43.974609 38.880859 C 46.283111 36.368683 48.132442 34.806757 49.458984 34.841797 C 51.080455 34.884808 52.161221 35.212691 52.900391 35.583984 z M 52.900391 22.822266 L 52.900391 16.214844 C 51.915578 15.966624 50.816284 15.807501 49.601562 15.775391 C 45.067331 15.655581 42.146195 19.13095 39.796875 21.6875 C 37.447528 24.24409 35.576415 25.821633 34.595703 25.814453 C 32.499347 25.799353 31.39495 25.146493 30.71875 24.595703 C 30.0426 24.044953 29.970703 23.814453 29.970703 23.814453 A 2.9347561 3.152693 0 0 0 26.005859 22.492188 A 2.9347561 3.152693 0 0 0 24.783203 26.751953 C 24.783203 26.751953 25.601998 28.342727 27.173828 29.623047 C 28.745698 30.903357 31.243366 32.09491 34.560547 32.119141 C 38.993324 32.153156 41.666082 28.629327 43.974609 26.117188 C 46.283111 23.605007 48.132442 22.043095 49.458984 22.078125 C 51.080542 22.121125 52.161228 22.450947 52.900391 22.822266 z M 73.123047 18.53125 L 73.125 18.53125 L 73.125 18.533203 L 93.501953 18.605469 C 94.979896 18.609475 96.169922 19.807158 96.169922 21.298828 L 96.169922 32.853516 C 96.169922 37.501658 92.270301 40.607168 88.568359 40.599609 L 85.654297 40.591797 C 85.436974 40.812521 80.140324 46.191849 76.814453 49.669922 C 75.940173 50.44869 75.478559 50.49034 75.375 49.4375 C 75.076417 46.250111 74.651964 40.731702 74.640625 40.570312 L 68.162109 40.558594 C 66.684129 40.555593 65.497081 39.356904 65.494141 37.865234 L 65.470703 26.210938 C 65.462766 22.156488 69.145438 18.51991 73.123047 18.53125 z M 72.492188 58.513672 C 72.572994 58.510671 72.656543 58.513045 72.742188 58.521484 C 73.77003 58.622398 75.13357 59.510102 76.513672 60.337891 C 78.353799 61.44163 80.195018 62.544695 82.035156 63.648438 C 83.875299 64.752165 85.714515 65.855215 87.554688 66.958984 C 87.554688 66.958984 91.640362 69.222809 91.669922 70.230469 C 91.700158 71.238129 87.554687 73.582031 87.554688 73.582031 L 82.033203 76.890625 C 82.033203 76.890625 78.20255 79.166371 76.513672 80.201172 C 74.824779 81.235973 72.685328 82.578895 71.755859 81.984375 C 70.826398 81.389893 70.992078 77.994213 70.992188 76.890625 C 70.992271 75.787082 70.991999 72.476658 70.992188 70.269531 C 70.99238 68.062359 70.994141 65.855564 70.994141 63.648438 C 70.994318 61.441307 70.814625 59.404385 71.837891 58.714844 C 72.029815 58.585584 72.249648 58.523045 72.492188 58.513672 z "
       transform="matrix(0.26458333,0,0,0.26458333,1.6650669,1.9708852)" />
    <rect
       style="display:inline;fill:none;fill-opacity:1;stroke:none;stroke-width:0;stroke-linecap:round;stroke-miterlimit:4;stroke-dasharray:none;stroke-opacity:0.80593"
       id="rect32345-4"
       width="56.132999"
       height="28.207563"
       x="0.17061681"
       y="0.52508813"
       inkscape:export-filename="/Users/febo/Downloads/atbci_logo.png"
       inkscape:export-xdpi="299.88397"
       inkscape:export-ydpi="299.88397" />
  </g>
</svg>
