<?xml version="1.0" encoding="UTF-8" standalone="no"?>
<!-- Created with Inkscape (http://www.inkscape.org/) -->

<svg
   width="56.132999mm"
   height="28.207563mm"
   viewBox="0 0 56.132999 28.207563"
   version="1.1"
   id="svg36764"
   inkscape:version="1.1.2 (b8e25be8, 2022-02-05)"
   sodipodi:docname="atbci_logo_v1.0-dark.svg"
   inkscape:export-filename="/Users/febo/Documents/code/at-bci-proj/atbci-website/docs/img/atbci_logo_v1.0-dark.png"
   inkscape:export-xdpi="299.88397"
   inkscape:export-ydpi="299.88397"
   xmlns:inkscape="http://www.inkscape.org/namespaces/inkscape"
   xmlns:sodipodi="http://sodipodi.sourceforge.net/DTD/sodipodi-0.dtd"
   xmlns="http://www.w3.org/2000/svg"
   xmlns:svg="http://www.w3.org/2000/svg">
  <sodipodi:namedview
     id="namedview36766"
     pagecolor="#ffffff"
     bordercolor="#666666"
     borderopacity="1.0"
     inkscape:pageshadow="2"
     inkscape:pageopacity="0.0"
     inkscape:pagecheckerboard="0"
     inkscape:document-units="mm"
     showgrid="false"
     fit-margin-top="0"
     fit-margin-left="0"
     fit-margin-right="0"
     fit-margin-bottom="0"
     inkscape:zoom="0.98631343"
     inkscape:cx="-15.715086"
     inkscape:cy="355.36371"
     inkscape:window-width="1312"
     inkscape:window-height="1081"
     inkscape:window-x="941"
     inkscape:window-y="31"
     inkscape:window-maximized="0"
     inkscape:current-layer="layer1" />
  <defs
     id="defs36761">
    <inkscape:path-effect
       effect="fillet_chamfer"
       id="path-effect32596"
       is_visible="true"
       lpeversion="1"
       satellites_param="F,0,1,1,0,0.7,0,1 @ F,0,1,1,0,0.7,0,1 @ F,0,1,1,0,1,0,1 @ F,0,1,1,0,0.5,0,1 @ F,0,0,1,0,0,0,1 @ F,0,0,1,0,0,0,1 @ F,0,1,1,0,0.5,0,1 @ F,0,1,1,0,1,0,1 | F,0,1,1,0,1,0,1 @ F,0,0,1,0,0,0,1 @ F,0,0,1,0,0,0,1"
       unit="mm"
       method="auto"
       mode="F"
       radius="1"
       chamfer_steps="1"
       flexible="false"
       use_knot_distance="true"
       apply_no_radius="true"
       apply_with_radius="true"
       only_selected="true"
       hide_knots="false" />
    <inkscape:path-effect
       effect="fillet_chamfer"
       id="path-effect32594"
       is_visible="true"
       lpeversion="1"
       satellites_param="F,0,0,1,0,0,0,1 @ F,0,1,1,0,1,0,1 @ F,0,1,1,0,1,0,1 @ F,0,1,1,0,1,0,1 @ F,0,1,1,0,1,0,1 @ F,0,0,1,0,0,0,1 @ F,0,1,1,0,1,0,1 @ F,0,1,1,0,1,0,1"
       unit="mm"
       method="auto"
       mode="F"
       radius="1"
       chamfer_steps="1"
       flexible="false"
       use_knot_distance="true"
       apply_no_radius="true"
       apply_with_radius="true"
       only_selected="true"
       hide_knots="false" />
    <inkscape:path-effect
       effect="fillet_chamfer"
       id="path-effect32598"
       is_visible="true"
       lpeversion="1"
       satellites_param="F,0,0,1,0,1,0,1 @ F,0,0,1,0,0,0,1 @ F,0,0,1,0,0,0,1 @ F,0,0,1,0,0,0,1 @ F,0,0,1,0,0,0,1 @ F,0,0,1,0,0,0,1 @ F,0,0,1,0,0,0,1 @ F,0,1,1,0,0,0,1 @ F,0,1,1,0,0,0,1 @ F,0,0,1,0,0,0,1 @ F,0,0,1,0,0,0,1 @ F,0,0,1,0,0,0,1 @ F,0,0,1,0,0,0,1 @ F,0,0,1,0,0,0,1 @ F,0,0,1,0,0,0,1 @ F,0,0,1,0,0,0,1 @ F,0,0,1,0,0,0,1 @ F,0,0,1,0,1,0,1 | F,0,0,1,0,0,0,1 @ F,0,0,1,0,0,0,1 @ F,0,0,1,0,0,0,1 @ F,0,0,1,0,0,0,1 @ F,0,0,1,0,0,0,1 @ F,0,0,1,0,0,0,1 @ F,0,0,1,0,0,0,1 @ F,0,0,1,0,0,0,1 @ F,0,0,1,0,0,0,1 @ F,0,0,1,0,0,0,1 @ F,0,0,1,0,0,0,1 | F,0,0,1,0,0,0,1 @ F,0,0,1,0,0,0,1 @ F,0,0,1,0,0,0,1 @ F,0,0,1,0,0,0,1 @ F,0,0,1,0,0,0,1 @ F,0,0,1,0,0,0,1 @ F,0,0,1,0,0,0,1 @ F,0,0,1,0,0,0,1 @ F,0,0,1,0,0,0,1 @ F,0,0,1,0,0,0,1 @ F,0,0,1,0,0,0,1"
       unit="mm"
       method="auto"
       mode="F"
       radius="0"
       chamfer_steps="1"
       flexible="false"
       use_knot_distance="true"
       apply_no_radius="true"
       apply_with_radius="true"
       only_selected="true"
       hide_knots="false" />
    <inkscape:path-effect
       effect="fillet_chamfer"
       id="path-effect32638"
       is_visible="true"
       lpeversion="1"
       satellites_param="F,0,1,1,0,0.7,0,1 @ F,0,0,1,0,0,0,1 @ F,0,0,1,0,0,0,1 @ F,0,0,1,0,0,0,1 @ F,0,0,1,0,0,0,1 @ F,0,0,1,0,0,0,1 @ F,0,0,1,0,0,0,1 @ F,0,0,1,0,0,0,1 @ F,0,0,1,0,0,0,1 @ F,0,0,1,0,0,0,1 @ F,0,0,1,0,0,0,1 @ F,0,0,1,0,0,0,1 @ F,0,1,1,0,0.7,0,1 @ F,0,1,1,0,1,0,1 @ F,0,0,1,0,0,0,1 @ F,0,0,1,0,0,0,1 @ F,0,0,1,0,0,0,1 @ F,0,0,1,0,0,0,1 @ F,0,0,1,0,0,0,1 @ F,0,0,1,0,0,0,1 @ F,0,0,1,0,0,0,1 @ F,0,0,1,0,0,0,1 @ F,0,0,1,0,0,0,1 @ F,0,0,1,0,0,0,1 @ F,0,0,1,0,0,0,1 @ F,0,0,1,0,0,0,1 @ F,0,0,1,0,0,0,1 @ F,0,1,1,0,1,0,1"
       unit="mm"
       method="auto"
       mode="F"
       radius="1"
       chamfer_steps="1"
       flexible="false"
       use_knot_distance="true"
       apply_no_radius="true"
       apply_with_radius="true"
       only_selected="true"
       hide_knots="false" />
    <inkscape:path-effect
       effect="fillet_chamfer"
       id="path-effect32678"
       is_visible="true"
       lpeversion="1"
       satellites_param="F,0,0,1,0,1,0,1 @ F,0,0,1,0,1,0,1 @ F,0,0,1,0,1,0,1 @ F,0,0,1,0,1,0,1"
       unit="mm"
       method="auto"
       mode="F"
       radius="1"
       chamfer_steps="1"
       flexible="false"
       use_knot_distance="true"
       apply_no_radius="true"
       apply_with_radius="true"
       only_selected="false"
       hide_knots="false" />
  </defs>
  <g
     inkscape:groupmode="layer"
     id="layer5"
     inkscape:label="bg"
     style="display:none">
    <rect
       style="fill:#000000;stroke:none;stroke-width:0;stroke-linecap:round;stroke-opacity:0.80593"
       id="rect36941"
       width="56.133003"
       height="28.207563"
       x="-4.4465516e-09"
       y="1.4277699e-09" />
  </g>
  <g
     inkscape:label="Layer 1"
     inkscape:groupmode="layer"
     id="layer1"
     transform="translate(-0.17061681,-0.52508813)">
    <path
       id="rect23904-7"
       style="fill:#7dc5fe;fill-opacity:1;stroke:#4942dc;stroke-width:0;stroke-linecap:round;stroke-miterlimit:4;stroke-dasharray:none;stroke-opacity:0.80593"
       d="m 17.161311,2.1973375 c -0.0035,0 -0.0069,5.159e-4 -0.01034,5.159e-4 H 13.345519 13.34499 C 9.1553547,2.2269534 7.236399,4.7960422 6.5056188,5.5790422 6.124939,5.9869024 5.9269828,6.462151 5.7144528,7.018231 5.5019228,7.5743011 5.3109962,8.2044946 5.1325761,8.8367244 4.775746,10.101164 4.4441686,11.427453 4.2633786,11.879433 c -0.17525,0.43813 -0.7424201,1.337606 -1.25212,2.113566 -0.25485,0.38798 -0.4954592,0.754716 -0.6836792,1.072286 -0.0941,0.15877 -0.1749527,0.30291 -0.2439127,0.45682 -0.0689,0.15392 -0.2005199,0.253729 -0.1229899,0.718819 0.10244,0.61466 0.4199524,0.718633 0.6304524,0.865063 0.21049,0.14643 0.4281619,0.265367 0.644922,0.387057 0.3487198,0.19577 0.6903016,0.428296 0.8381915,0.545186 0.005,0.045 0.070516,0.216673 0.083716,0.437183 0.020801,0.34784 0.017288,0.824251 0.021188,1.330151 0.004,0.50589 0.015849,1.042591 0.08785,1.558561 0.072,0.51596 0.1780249,1.029986 0.5550048,1.493966 0.3645699,0.4487 0.8887743,0.645169 1.3280842,0.718819 0.4393102,0.0737 0.8422818,0.06089 1.2087119,0.0646 0.7328599,0.007 1.1899628,0.0505 1.5136027,0.408243 0.78686,0.86967 0.2325439,1.894458 0.2325439,1.894458 a 0.86598002,0.86598002 0 0 0 0.3870565,1.162202 0.86598002,0.86598002 0 0 0 1.1616863,-0.387055 c 0,0 1.030076,-2.143288 -0.497644,-3.831808 -0.8336502,-0.92141 -1.9897754,-0.968774 -2.7796754,-0.976684 -0.3949499,-0.004 -0.7316076,-0.006 -0.9394775,-0.04083 -0.2078601,-0.0349 -0.2399514,-0.0668 -0.2713014,-0.105419 -0.018899,-0.0233 -0.1316913,-0.269748 -0.1834512,-0.640788 -0.0517,-0.37105 -0.06658,-0.848319 -0.07028,-1.332219 -0.004,-0.48389 0.00303,-0.971751 -0.02377,-1.419551 -0.0268,-0.4478 0.016904,-0.844976 -0.3886068,-1.351856 -0.4371496,-0.546449 -0.9814639,-0.793235 -1.415924,-1.037145 -0.0899,-0.0505 -0.1329026,-0.0788 -0.2087727,-0.12299 0.1517893,-0.250259 0.351083,-0.561205 0.583943,-0.915705 0.5105501,-0.77726 1.1018372,-1.641994 1.4138672,-2.422075 C 6.1790844,11.756078 6.4565563,10.523071 6.8001863,9.3054307 6.9720062,8.6966006 7.153907,8.1056551 7.3334871,7.6357651 7.513077,7.1658852 7.7254864,6.8093163 7.7711862,6.7603663 8.7458964,5.7160165 9.810662,3.9551649 13.356892,3.930565 c 0.876544,-0.00609 1.637859,0.079145 2.304769,0.2351278 v 0.5498373 1.5456421 c 0.482865,0.1217027 0.862111,0.3239413 1.138431,0.5400185 0.42544,0.3326792 0.646989,0.7673951 0.646989,0.7673951 A 0.77648754,0.83415001 0 0 1 17.101883,8.6878971 0.77648754,0.83415001 0 0 1 16.060086,8.3168606 c 0,0 0.0037,-0.026918 -0.174666,-0.1663983 -0.05761,-0.045051 -0.130467,-0.094216 -0.223759,-0.1410767 v 1.6293579 c 0.482865,0.1222825 0.862111,0.3249753 1.138431,0.5410525 0.42544,0.332679 0.646989,0.765845 0.646989,0.765845 a 0.77648754,0.83415001 0 0 1 -0.345198,1.120861 0.77648754,0.83415001 0 0 1 -1.041797,-0.371036 c 0,0 0.0037,-0.02846 -0.174666,-0.167949 -0.05761,-0.04505 -0.130453,-0.09473 -0.223759,-0.141593 v 0.37207 13.975374 c 0,0.81117 0.668652,1.463993 1.49965,1.463993 h 11.459766 c 0.831001,0 1.500166,-0.652823 1.500166,-1.463993 V 3.6618476 c 0,-0.8111676 -0.669165,-1.4645101 -1.500166,-1.4645101 z m -1.49965,9.1885865 V 9.6387435 c -0.260567,-0.065987 -0.55142,-0.1082876 -0.872815,-0.1167887 -1.199682,-0.0317 -1.972566,0.8878172 -2.594157,1.5642462 -0.621598,0.67642 -1.116664,1.093824 -1.376143,1.091923 -0.554661,-0.004 -0.8468665,-0.176739 -1.0257775,-0.322461 C 9.6138705,11.709932 9.5948477,11.64844 9.5948477,11.64844 A 0.77648754,0.83415001 0 0 0 8.5458161,11.301175 0.77648754,0.83415001 0 0 0 8.2223217,12.427721 c 0,0 0.2166393,0.419352 0.6325195,0.758093 0.4158906,0.338748 1.0767317,0.653498 1.9544028,0.659908 1.172839,0.009 1.880006,-0.922819 2.490804,-1.5875 0.610791,-0.66468 1.100093,-1.07794 1.451074,-1.068669 0.429014,0.01138 0.714967,0.09813 0.910539,0.196371 z m 0,-3.3765384 V 6.2611722 C 15.401096,6.1954973 15.110241,6.1533957 14.788846,6.1449 13.589164,6.1132002 12.81628,7.0327252 12.194689,7.7091457 11.573091,8.3855768 11.078025,8.8029684 10.818546,8.8010687 10.263885,8.7970735 9.9716795,8.6243376 9.7927685,8.4786078 9.6138705,8.3328885 9.5948477,8.271902 9.5948477,8.271902 A 0.77648754,0.83415001 0 0 0 8.5458161,7.9220525 0.77648754,0.83415001 0 0 0 8.2223217,9.0491156 c 0,0 0.2166393,0.4208922 0.6325195,0.7596436 0.4158906,0.3387488 1.0767317,0.6540138 1.9544028,0.6604248 1.172839,0.009 1.880006,-0.9233466 2.490804,-1.5880169 0.610791,-0.664681 1.100093,-1.0779369 1.451074,-1.0686685 0.429037,0.011377 0.714969,0.098643 0.910539,0.196887 z m 5.350577,-1.135331 h 5.3e-4 v 5.292e-4 l 5.391402,0.019121 c 0.391038,0.00106 0.7059,0.3179471 0.7059,0.7126181 v 3.0571781 c 0,1.229821 -1.031775,2.051487 -2.011247,2.049487 l -0.771013,-0.0021 c -0.0575,0.0584 -1.458905,1.48168 -2.338875,2.40192 -0.23132,0.206049 -0.353455,0.217069 -0.380855,-0.0615 -0.079,-0.84333 -0.191304,-2.303409 -0.194304,-2.34611 l -1.714107,-0.0031 c -0.391049,-7.94e-4 -0.705122,-0.317947 -0.7059,-0.712618 l -0.0062,-3.0835332 C 18.985477,7.8332485 19.959841,6.8710706 21.01225,6.874071 Z M 20.845324,17.452737 c 0.02138,-7.94e-4 0.04348,-1.66e-4 0.06614,0.0021 0.271951,0.0267 0.63272,0.261572 0.997872,0.48059 0.486867,0.292032 0.974023,0.583884 1.460893,0.875916 0.486871,0.292028 0.973497,0.583877 1.460376,0.875916 0,0 1.081001,0.59897 1.088822,0.86558 0.008,0.26661 -1.088822,0.886767 -1.088822,0.886767 l -1.460893,0.875399 c 0,0 -1.013527,0.602125 -1.460376,0.875916 -0.446853,0.273791 -1.012916,0.629105 -1.258838,0.471806 -0.24592,-0.157291 -0.202084,-1.055731 -0.202054,-1.347722 2.2e-5,-0.291979 -5e-5,-1.167862 0,-1.751831 5.1e-5,-0.583981 5.29e-4,-1.167862 5.29e-4,-1.751831 4.7e-5,-0.58397 -0.0475,-1.122906 0.223242,-1.305346 0.05078,-0.0342 0.108944,-0.05075 0.173116,-0.05323 z" />
    <path
       d="m 37.90544,2.18674 h 0.90213 a 1.1035966,1.1035966 32.386537 0 1 0.998343,0.6332388 L 44.577926,12.948663 A 0.63428973,0.63428973 122.38654 0 1 44.00413,13.85329 H 42.36324 A 0.76655765,0.76655765 33.11507 0 1 41.661708,13.395704 L 40.77463,11.38156 h -4.90764 l -0.856958,2.011727 A 0.75646538,0.75646538 146.53654 0 1 34.31408,13.85329 h -1.5695 A 0.63604904,0.63604904 57.541639 0 1 32.168515,12.947597 L 36.908685,2.8207248 A 1.1005441,1.1005441 147.54164 0 1 37.90544,2.18674 Z M 37.886342,6.502115 36.74145,9.20644 H 39.8288 L 38.669893,6.5004821 a 0.4258157,0.4258157 179.88059 0 0 -0.783551,0.00163 z"
       id="path27933-3"
       style="font-weight:800;font-size:19.05px;line-height:1.25;font-family:Avenir;-inkscape-font-specification:'Avenir, Ultra-Bold';fill:#d1eafe;fill-opacity:1;stroke-width:0.238172"
       inkscape:path-effect="#path-effect32596"
       inkscape:original-d="m 37.20544,2.18674 h 2.30213 l 5.49656,11.66655 h -3.14089 l -1.08861,-2.47173 h -4.90764 l -1.05291,2.47173 h -3.0695 z m 1.07076,3.3945 -1.53475,3.6252 h 3.08735 z" />
    <path
       d="m 47.1796,4.46072 h -3.50503 a 1,1 45 0 1 -1,-1 V 3.18674 a 1,1 135 0 1 1,-1 h 9.69338 a 1,1 45 0 1 1,1 v 0.27398 a 1,1 135 0 1 -1,1 h -3.40438 v 8.39257 a 1,1 135 0 1 -1,1 H 48.1796 a 1,1 45 0 1 -1,-1 z"
       id="path27930-2"
       style="font-weight:800;font-size:19.05px;line-height:1.25;font-family:Avenir;-inkscape-font-specification:'Avenir, Ultra-Bold';fill:#7dc5fe;fill-opacity:1;stroke-width:0.238172"
       inkscape:path-effect="#path-effect32594"
       inkscape:original-d="M 47.1796,4.46072 H 42.67457 V 2.18674 h 11.69338 v 2.27398 h -4.40438 v 9.39257 H 47.1796 Z"
       sodipodi:nodetypes="ccccccccc" />
    <path
       d="m 32.93976,15.51604 h 3.2644 c 0.49536,0 0.99072,0.03845 1.48608,0.11535 0.506127,0.06593 0.95841,0.208743 1.35685,0.42843 0.39844,0.208727 0.7215,0.505333 0.96918,0.88982 0.24768,0.384493 0.37152,0.895317 0.37152,1.53247 0,0.659133 -0.183067,1.208407 -0.5492,1.64782 -0.355367,0.428433 -0.829187,0.736023 -1.42146,0.92277 v 0.0329 c 0.3769,0.05493 0.71611,0.164787 1.01763,0.32956 0.3123,0.153793 0.576133,0.357023 0.7915,0.60969 0.226147,0.24168 0.398447,0.527303 0.5169,0.85687 0.118453,0.32956 0.17768,0.68109 0.17768,1.05459 0,0.615187 -0.129223,1.131503 -0.38767,1.54895 -0.258447,0.406467 -0.592273,0.736033 -1.00148,0.9887 -0.409213,0.25266 -0.87227,0.433917 -1.38917,0.54377 -0.506127,0.109853 -1.012253,0.16478 -1.51838,0.16478 h -3.68438 a 1,1 45 0 1 -1,-1 v -9.66647 a 1,1 135 0 1 1,-1 z m 1.51987,4.66333 h 1.82529 c 0.19384,0 0.382293,-0.02197 0.56536,-0.0659 0.19384,-0.04393 0.36614,-0.115337 0.5169,-0.21421 0.15076,-0.09887 0.269213,-0.2307 0.35536,-0.39548 0.09693,-0.16478 0.14539,-0.362517 0.14539,-0.59321 0,-0.24168 -0.05384,-0.43942 -0.16153,-0.59322 -0.09693,-0.16478 -0.226153,-0.29111 -0.38768,-0.37899 -0.161533,-0.08789 -0.3446,-0.14831 -0.5492,-0.18127 -0.204607,-0.04393 -0.403827,-0.0659 -0.59766,-0.0659 h -1.71223 z m 0,4.8281 h 2.26143 c 0.193833,0 0.38767,-0.02197 0.58151,-0.0659 0.2046,-0.04393 0.387667,-0.12083 0.5492,-0.23069 0.161527,-0.109853 0.290753,-0.252663 0.38768,-0.42843 0.10768,-0.175773 0.16152,-0.389993 0.16152,-0.64266 0,-0.274627 -0.07,-0.494333 -0.20999,-0.65912 -0.12922,-0.175767 -0.296133,-0.307593 -0.50074,-0.39548 -0.204607,-0.08788 -0.425367,-0.1483 -0.66228,-0.18126 -0.236907,-0.033 -0.457663,-0.0495 -0.66227,-0.0495 h -1.90606 z"
       id="path25166-5"
       style="font-weight:800;font-size:18.1239px;line-height:1.25;font-family:Avenir;-inkscape-font-specification:'Avenir, Ultra-Bold';fill:#d1eafe;fill-opacity:1;stroke-width:0.226594"
       inkscape:path-effect="#path-effect32598"
       inkscape:original-d="m 31.93976,15.51604 h 4.2644 q 0.74304,0 1.48608,0.11535 0.75919,0.0989 1.35685,0.42843 0.59766,0.31309 0.96918,0.88982 0.37152,0.57674 0.37152,1.53247 0,0.9887 -0.5492,1.64782 -0.53305,0.64265 -1.42146,0.92277 v 0.0329 q 0.56535,0.0824 1.01763,0.32956 0.46845,0.23069 0.7915,0.60969 0.33922,0.36252 0.5169,0.85687 0.17768,0.49434 0.17768,1.05459 0,0.92278 -0.38767,1.54895 -0.38767,0.6097 -1.00148,0.9887 -0.61382,0.37899 -1.38917,0.54377 -0.75919,0.16478 -1.51838,0.16478 h -4.68438 z m 2.51987,4.66333 h 1.82529 q 0.29076,0 0.56536,-0.0659 0.29076,-0.0659 0.5169,-0.21421 0.22614,-0.14831 0.35536,-0.39548 0.14539,-0.24717 0.14539,-0.59321 0,-0.36252 -0.16153,-0.59322 -0.14539,-0.24717 -0.38768,-0.37899 -0.2423,-0.13183 -0.5492,-0.18127 -0.30691,-0.0659 -0.59766,-0.0659 h -1.71223 z m 0,4.8281 h 2.26143 q 0.29075,0 0.58151,-0.0659 0.3069,-0.0659 0.5492,-0.23069 0.24229,-0.16478 0.38768,-0.42843 0.16152,-0.26366 0.16152,-0.64266 0,-0.41194 -0.20999,-0.65912 -0.19383,-0.26365 -0.50074,-0.39548 -0.30691,-0.13182 -0.66228,-0.18126 -0.35536,-0.0495 -0.66227,-0.0495 h -1.90606 z" />
    <path
       d="M 48.836536,18.071609 C 48.70898,17.98279 48.571938,17.905407 48.42541,17.83946 c -0.35536,-0.16478 -0.769953,-0.24717 -1.24378,-0.24717 -0.47382,0 -0.915337,0.09338 -1.32455,0.28013 -0.39844,0.186753 -0.74842,0.450407 -1.04994,0.79096 -0.29076,0.32956 -0.522287,0.725033 -0.69458,1.18642 -0.161533,0.461387 -0.2423,0.961223 -0.2423,1.49951 0,0.549273 0.08077,1.054603 0.2423,1.51599 0.172293,0.450407 0.40382,0.845883 0.69458,1.18643 0.290753,0.329567 0.629967,0.587727 1.01764,0.77448 0.39844,0.186747 0.823803,0.28012 1.27609,0.28012 0.516893,0 0.974563,-0.109853 1.37301,-0.32956 0.19583,-0.107984 0.374751,-0.237197 0.536763,-0.38764 0.282594,-0.262413 0.697944,-0.345312 1.005567,-0.111159 l 0.747176,0.568727 c 0.439461,0.334503 0.546117,0.985145 0.141289,1.359267 -0.350103,0.323548 -0.745775,0.583176 -1.187015,0.778885 -0.74304,0.32956 -1.507617,0.49434 -2.29373,0.49434 -0.8938,0 -1.717603,-0.142813 -2.47141,-0.42844 -0.753813,-0.28562 -1.40532,-0.69208 -1.95452,-1.21938 -0.549207,-0.538287 -0.979953,-1.186427 -1.29224,-1.94442 -0.301527,-0.758 -0.45229,-1.60388 -0.45229,-2.53764 0,-0.93376 0.150763,-1.779637 0.45229,-2.53763 0.312287,-0.758 0.743033,-1.400647 1.29224,-1.92794 0.5492,-0.538293 1.200707,-0.95025 1.95452,-1.23587 0.753807,-0.28562 1.57761,-0.42843 2.47141,-0.42843 0.32306,0 0.656887,0.03297 1.00148,0.0989 0.355367,0.05493 0.699967,0.14831 1.0338,0.28013 0.3446,0.131827 0.673043,0.307593 0.98533,0.5273 0.04614,0.03246 0.09157,0.066 0.136295,0.100612 0.435603,0.337139 0.35968,0.993389 -0.06465,1.346892 l -0.632228,0.526704 c -0.297029,0.247452 -0.731239,0.191794 -1.047423,-0.02837 z"
       id="path25168-6"
       style="font-weight:800;font-size:18.1239px;line-height:1.25;font-family:Avenir;-inkscape-font-specification:'Avenir, Ultra-Bold';fill:#7dc5fe;fill-opacity:1;stroke-width:0.226594"
       inkscape:path-effect="#path-effect32638"
       inkscape:original-d="m 49.34614,18.54803 q -0.37152,-0.46139 -0.92073,-0.70857 -0.53304,-0.24717 -1.24378,-0.24717 -0.71073,0 -1.32455,0.28013 -0.59766,0.28013 -1.04994,0.79096 -0.43614,0.49434 -0.69458,1.18642 -0.2423,0.69208 -0.2423,1.49951 0,0.82391 0.2423,1.51599 0.25844,0.67561 0.69458,1.18643 0.43613,0.49435 1.01764,0.77448 0.59766,0.28012 1.27609,0.28012 0.77534,0 1.37301,-0.32956 0.59766,-0.32956 0.98533,-0.92277 l 2.09989,1.59837 q -0.72689,1.03813 -1.84144,1.53248 -1.11456,0.49434 -2.29373,0.49434 -1.3407,0 -2.47141,-0.42844 -1.13072,-0.42843 -1.95452,-1.21938 -0.82381,-0.80743 -1.29224,-1.94442 -0.45229,-1.137 -0.45229,-2.53764 0,-1.40064 0.45229,-2.53763 0.46843,-1.137 1.29224,-1.92794 0.8238,-0.80744 1.95452,-1.23587 1.13071,-0.42843 2.47141,-0.42843 0.48459,0 1.00148,0.0989 0.53305,0.0824 1.0338,0.28013 0.5169,0.19774 0.98533,0.5273 0.46844,0.32956 0.83996,0.80743 z" />
    <path
       d="m 52.86782,15.51604 h 0.51988 a 1,1 45 0 1 1,1 v 9.66654 a 1,1 135 0 1 -1,1 h -0.51988 a 1,1 45 0 1 -1,-1 v -9.66654 a 1,1 135 0 1 1,-1 z"
       id="path25170-3"
       style="font-weight:800;font-size:18.1239px;line-height:1.25;font-family:Avenir;-inkscape-font-specification:'Avenir, Ultra-Bold';fill:#7dc5fe;fill-opacity:1;stroke-width:0.226594"
       inkscape:path-effect="#path-effect32678"
       inkscape:original-d="M 51.86782,15.51604 H 54.3877 V 27.18258 H 51.86782 Z" />
  </g>
</svg>
