<?xml version="1.0" encoding="UTF-8" standalone="no"?>
<!-- Created with Inkscape (http://www.inkscape.org/) -->

<svg
   width="56.132999mm"
   height="28.207563mm"
   viewBox="0 0 56.132999 28.207563"
   version="1.1"
   id="svg36764"
   inkscape:version="1.1.2 (b8e25be8, 2022-02-05)"
   sodipodi:docname="atbci_logo_v1.0-dark.svg"
   xmlns:inkscape="http://www.inkscape.org/namespaces/inkscape"
   xmlns:sodipodi="http://sodipodi.sourceforge.net/DTD/sodipodi-0.dtd"
   xmlns="http://www.w3.org/2000/svg"
   xmlns:svg="http://www.w3.org/2000/svg">
  <sodipodi:namedview
     id="namedview36766"
     pagecolor="#ffffff"
     bordercolor="#666666"
     borderopacity="1.0"
     inkscape:pageshadow="2"
     inkscape:pageopacity="0.0"
     inkscape:pagecheckerboard="0"
     inkscape:document-units="mm"
     showgrid="false"
     fit-margin-top="0"
     fit-margin-left="0"
     fit-margin-right="0"
     fit-margin-bottom="0"
     inkscape:zoom="0.98631343"
     inkscape:cx="63.874219"
     inkscape:cy="343.19719"
     inkscape:window-width="1312"
     inkscape:window-height="1081"
     inkscape:window-x="941"
     inkscape:window-y="59"
     inkscape:window-maximized="0"
     inkscape:current-layer="layer1" />
  <defs
     id="defs36761">
    <inkscape:path-effect
       effect="fillet_chamfer"
       id="path-effect32596"
       is_visible="true"
       lpeversion="1"
       satellites_param="F,0,1,1,0,0.7,0,1 @ F,0,1,1,0,0.7,0,1 @ F,0,1,1,0,1,0,1 @ F,0,1,1,0,0.5,0,1 @ F,0,0,1,0,0,0,1 @ F,0,0,1,0,0,0,1 @ F,0,1,1,0,0.5,0,1 @ F,0,1,1,0,1,0,1 | F,0,1,1,0,1,0,1 @ F,0,0,1,0,0,0,1 @ F,0,0,1,0,0,0,1"
       unit="mm"
       method="auto"
       mode="F"
       radius="1"
       chamfer_steps="1"
       flexible="false"
       use_knot_distance="true"
       apply_no_radius="true"
       apply_with_radius="true"
       only_selected="true"
       hide_knots="false" />
    <inkscape:path-effect
       effect="fillet_chamfer"
       id="path-effect32594"
       is_visible="true"
       lpeversion="1"
       satellites_param="F,0,0,1,0,0,0,1 @ F,0,1,1,0,1,0,1 @ F,0,1,1,0,1,0,1 @ F,0,1,1,0,1,0,1 @ F,0,1,1,0,1,0,1 @ F,0,0,1,0,0,0,1 @ F,0,1,1,0,1,0,1 @ F,0,1,1,0,1,0,1"
       unit="mm"
       method="auto"
       mode="F"
       radius="1"
       chamfer_steps="1"
       flexible="false"
       use_knot_distance="true"
       apply_no_radius="true"
       apply_with_radius="true"
       only_selected="true"
       hide_knots="false" />
    <inkscape:path-effect
       effect="fillet_chamfer"
       id="path-effect32598"
       is_visible="true"
       lpeversion="1"
       satellites_param="F,0,0,1,0,1,0,1 @ F,0,0,1,0,0,0,1 @ F,0,0,1,0,0,0,1 @ F,0,0,1,0,0,0,1 @ F,0,0,1,0,0,0,1 @ F,0,0,1,0,0,0,1 @ F,0,0,1,0,0,0,1 @ F,0,1,1,0,0,0,1 @ F,0,1,1,0,0,0,1 @ F,0,0,1,0,0,0,1 @ F,0,0,1,0,0,0,1 @ F,0,0,1,0,0,0,1 @ F,0,0,1,0,0,0,1 @ F,0,0,1,0,0,0,1 @ F,0,0,1,0,0,0,1 @ F,0,0,1,0,0,0,1 @ F,0,0,1,0,0,0,1 @ F,0,0,1,0,1,0,1 | F,0,0,1,0,0,0,1 @ F,0,0,1,0,0,0,1 @ F,0,0,1,0,0,0,1 @ F,0,0,1,0,0,0,1 @ F,0,0,1,0,0,0,1 @ F,0,0,1,0,0,0,1 @ F,0,0,1,0,0,0,1 @ F,0,0,1,0,0,0,1 @ F,0,0,1,0,0,0,1 @ F,0,0,1,0,0,0,1 @ F,0,0,1,0,0,0,1 | F,0,0,1,0,0,0,1 @ F,0,0,1,0,0,0,1 @ F,0,0,1,0,0,0,1 @ F,0,0,1,0,0,0,1 @ F,0,0,1,0,0,0,1 @ F,0,0,1,0,0,0,1 @ F,0,0,1,0,0,0,1 @ F,0,0,1,0,0,0,1 @ F,0,0,1,0,0,0,1 @ F,0,0,1,0,0,0,1 @ F,0,0,1,0,0,0,1"
       unit="mm"
       method="auto"
       mode="F"
       radius="0"
       chamfer_steps="1"
       flexible="false"
       use_knot_distance="true"
       apply_no_radius="true"
       apply_with_radius="true"
       only_selected="true"
       hide_knots="false" />
    <inkscape:path-effect
       effect="fillet_chamfer"
       id="path-effect32638"
       is_visible="true"
       lpeversion="1"
       satellites_param="F,0,1,1,0,0.7,0,1 @ F,0,0,1,0,0,0,1 @ F,0,0,1,0,0,0,1 @ F,0,0,1,0,0,0,1 @ F,0,0,1,0,0,0,1 @ F,0,0,1,0,0,0,1 @ F,0,0,1,0,0,0,1 @ F,0,0,1,0,0,0,1 @ F,0,0,1,0,0,0,1 @ F,0,0,1,0,0,0,1 @ F,0,0,1,0,0,0,1 @ F,0,0,1,0,0,0,1 @ F,0,1,1,0,0.7,0,1 @ F,0,1,1,0,1,0,1 @ F,0,0,1,0,0,0,1 @ F,0,0,1,0,0,0,1 @ F,0,0,1,0,0,0,1 @ F,0,0,1,0,0,0,1 @ F,0,0,1,0,0,0,1 @ F,0,0,1,0,0,0,1 @ F,0,0,1,0,0,0,1 @ F,0,0,1,0,0,0,1 @ F,0,0,1,0,0,0,1 @ F,0,0,1,0,0,0,1 @ F,0,0,1,0,0,0,1 @ F,0,0,1,0,0,0,1 @ F,0,0,1,0,0,0,1 @ F,0,1,1,0,1,0,1"
       unit="mm"
       method="auto"
       mode="F"
       radius="1"
       chamfer_steps="1"
       flexible="false"
       use_knot_distance="true"
       apply_no_radius="true"
       apply_with_radius="true"
       only_selected="true"
       hide_knots="false" />
    <inkscape:path-effect
       effect="fillet_chamfer"
       id="path-effect32678"
       is_visible="true"
       lpeversion="1"
       satellites_param="F,0,0,1,0,1,0,1 @ F,0,0,1,0,1,0,1 @ F,0,0,1,0,1,0,1 @ F,0,0,1,0,1,0,1"
       unit="mm"
       method="auto"
       mode="F"
       radius="1"
       chamfer_steps="1"
       flexible="false"
       use_knot_distance="true"
       apply_no_radius="true"
       apply_with_radius="true"
       only_selected="false"
       hide_knots="false" />
  </defs>
  <g
     inkscape:groupmode="layer"
     id="layer5"
     inkscape:label="bg"
     style="display:none">
    <rect
       style="fill:#000000;stroke:none;stroke-width:0;stroke-linecap:round;stroke-opacity:0.80593"
       id="rect36941"
       width="56.133003"
       height="28.207563"
       x="-4.4465516e-09"
       y="1.4277699e-09" />
  </g>
  <g
     inkscape:label="Layer 1"
     inkscape:groupmode="layer"
     id="layer1"
     transform="translate(-0.17061681,-0.52508813)">
    <g
       id="g1263">
      <path
         id="rect23904-7"
         style="fill:#499adc;fill-opacity:1;stroke:#4942dc;stroke-width:0;stroke-linecap:round;stroke-miterlimit:4;stroke-dasharray:none;stroke-opacity:0.80593"
         d="M 64.216797 6.3203125 C 64.203569 6.3203125 64.190736 6.3222656 64.177734 6.3222656 L 49.794922 6.3222656 L 49.792969 6.3222656 C 33.958109 6.4322499 26.705363 16.142192 23.943359 19.101562 C 22.504569 20.643081 21.756388 22.439296 20.953125 24.541016 C 20.149862 26.642698 19.42825 29.024532 18.753906 31.414062 C 17.405257 36.193048 16.152051 41.205792 15.46875 42.914062 C 14.806388 44.569987 12.662753 47.969582 10.736328 50.902344 C 9.7731155 52.368725 8.8637264 53.754814 8.1523438 54.955078 C 7.7966902 55.555154 7.491105 56.099934 7.2304688 56.681641 C 6.9700593 57.263386 6.4725982 57.640617 6.765625 59.398438 C 7.1527998 61.721562 8.3528469 62.114533 9.1484375 62.667969 C 9.9439903 63.221405 10.766687 63.670929 11.585938 64.130859 C 12.903934 64.870777 14.194952 65.749617 14.753906 66.191406 C 14.772804 66.361485 15.020423 67.010326 15.070312 67.84375 C 15.148927 69.158421 15.13565 70.959031 15.150391 72.871094 C 15.165509 74.783119 15.210296 76.811596 15.482422 78.761719 C 15.754548 80.711804 16.155272 82.654578 17.580078 84.408203 C 18.95798 86.104077 20.939225 86.846638 22.599609 87.125 C 24.259994 87.403551 25.783036 87.355156 27.167969 87.369141 C 29.937833 87.395597 31.665466 87.560021 32.888672 88.912109 C 35.862631 92.199051 33.767578 96.072266 33.767578 96.072266 A 3.2729954 3.2729954 0 0 0 35.230469 100.46484 A 3.2729954 3.2729954 0 0 0 39.621094 99.001953 C 39.621094 99.001953 43.514294 90.901339 37.740234 84.519531 C 34.589431 81.037037 30.219824 80.858021 27.234375 80.828125 C 25.741651 80.813007 24.469244 80.805356 23.683594 80.673828 C 22.897981 80.541923 22.776691 80.421356 22.658203 80.275391 C 22.58677 80.187328 22.160472 79.255872 21.964844 77.853516 C 21.769442 76.451122 21.713203 74.647273 21.699219 72.818359 C 21.684101 70.989484 21.710666 69.145597 21.609375 67.453125 C 21.508084 65.760653 21.673261 64.259517 20.140625 62.34375 C 18.488367 60.278427 16.431116 59.345693 14.789062 58.423828 C 14.449283 58.232962 14.286753 58.126002 14 57.958984 C 14.573694 57.01312 15.32693 55.837889 16.207031 54.498047 C 18.136669 51.560371 20.371455 48.292084 21.550781 45.34375 C 22.709169 42.447838 23.757882 37.787651 25.056641 33.185547 C 25.706039 30.884457 26.393538 28.650962 27.072266 26.875 C 27.751031 25.099076 28.553838 23.751414 28.726562 23.566406 C 32.410506 19.619257 36.434817 12.96407 49.837891 12.871094 C 53.150815 12.848087 56.028224 13.170225 58.548828 13.759766 L 58.548828 15.837891 L 58.548828 21.679688 C 60.37383 22.139667 61.8072 22.904033 62.851562 23.720703 C 64.459521 24.978073 65.296875 26.621094 65.296875 26.621094 A 2.9347561 3.152693 0 0 1 63.992188 30.851562 A 2.9347561 3.152693 0 0 1 60.054688 29.449219 C 60.054688 29.449219 60.068667 29.347483 59.394531 28.820312 C 59.176793 28.650041 58.901428 28.464221 58.548828 28.287109 L 58.548828 34.445312 C 60.37383 34.907482 61.8072 35.673565 62.851562 36.490234 C 64.459521 37.747604 65.296875 39.384766 65.296875 39.384766 A 2.9347561 3.152693 0 0 1 63.992188 43.621094 A 2.9347561 3.152693 0 0 1 60.054688 42.21875 C 60.054688 42.21875 60.068667 42.111187 59.394531 41.583984 C 59.176793 41.413717 58.901481 41.225956 58.548828 41.048828 L 58.548828 42.455078 L 58.548828 95.275391 C 58.548828 98.34123 61.076017 100.80859 64.216797 100.80859 L 107.5293 100.80859 C 110.67009 100.80859 113.19922 98.34123 113.19922 95.275391 L 113.19922 11.855469 C 113.19922 8.7896388 110.67009 6.3203125 107.5293 6.3203125 L 64.216797 6.3203125 z M 58.548828 41.048828 L 58.548828 34.445312 C 57.564008 34.195913 56.464721 34.036036 55.25 34.003906 C 50.715769 33.884095 47.794633 37.359437 45.445312 39.916016 C 43.095966 42.472567 41.224852 44.050157 40.244141 44.042969 C 38.147784 44.027851 37.043387 43.374979 36.367188 42.824219 C 35.691038 42.273428 35.619141 42.041016 35.619141 42.041016 A 2.9347561 3.152693 0 0 0 31.654297 40.728516 A 2.9347561 3.152693 0 0 0 30.431641 44.986328 C 30.431641 44.986328 31.250435 46.571282 32.822266 47.851562 C 34.394136 49.13187 36.891803 50.321476 40.208984 50.345703 C 44.641762 50.379719 47.314519 46.857883 49.623047 44.345703 C 51.931548 41.833527 53.78088 40.271601 55.107422 40.306641 C 56.728892 40.349652 57.809658 40.677535 58.548828 41.048828 z M 58.548828 28.287109 L 58.548828 21.679688 C 57.564016 21.431468 56.464721 21.272344 55.25 21.240234 C 50.715769 21.120424 47.794633 24.595794 45.445312 27.152344 C 43.095966 29.708934 41.224852 31.286477 40.244141 31.279297 C 38.147784 31.264197 37.043387 30.611337 36.367188 30.060547 C 35.691038 29.509797 35.619141 29.279297 35.619141 29.279297 A 2.9347561 3.152693 0 0 0 31.654297 27.957031 A 2.9347561 3.152693 0 0 0 30.431641 32.216797 C 30.431641 32.216797 31.250435 33.807571 32.822266 35.087891 C 34.394136 36.368201 36.891803 37.559754 40.208984 37.583984 C 44.641762 37.618 47.314519 34.094171 49.623047 31.582031 C 51.931548 29.069851 53.78088 27.507939 55.107422 27.542969 C 56.728979 27.585968 57.809666 27.915791 58.548828 28.287109 z M 78.771484 23.996094 L 78.773438 23.996094 L 78.773438 23.998047 L 99.150391 24.070312 C 100.62833 24.074319 101.81836 25.272002 101.81836 26.763672 L 101.81836 38.318359 C 101.81836 42.966502 97.918738 46.072012 94.216797 46.064453 L 91.302734 46.056641 C 91.085412 46.277365 85.788761 51.656693 82.462891 55.134766 C 81.58861 55.913533 81.126997 55.955184 81.023438 54.902344 C 80.724855 51.714955 80.300401 46.196546 80.289062 46.035156 L 73.810547 46.023438 C 72.332566 46.020437 71.145519 44.821748 71.142578 43.330078 L 71.119141 31.675781 C 71.111204 27.621332 74.793876 23.984754 78.771484 23.996094 z M 78.140625 63.978516 C 78.221431 63.975515 78.304981 63.977888 78.390625 63.986328 C 79.418468 64.087242 80.782007 64.974946 82.162109 65.802734 C 84.002237 66.906474 85.843455 68.009538 87.683594 69.113281 C 89.523736 70.217009 91.362952 71.320059 93.203125 72.423828 C 93.203125 72.423828 97.2888 74.687653 97.318359 75.695312 C 97.348596 76.702972 93.203125 79.046875 93.203125 79.046875 L 87.681641 82.355469 C 87.681641 82.355469 83.850987 84.631215 82.162109 85.666016 C 80.473216 86.700816 78.333766 88.043738 77.404297 87.449219 C 76.474835 86.854737 76.640515 83.459057 76.640625 82.355469 C 76.640708 81.251926 76.640436 77.941502 76.640625 75.734375 C 76.640818 73.527203 76.642578 71.320408 76.642578 69.113281 C 76.642756 66.906151 76.463063 64.869228 77.486328 64.179688 C 77.678253 64.050428 77.898085 63.987889 78.140625 63.978516 z "
         transform="matrix(0.26458333,0,0,0.26458333,0.17061681,0.52508813)" />
      <path
         d="m 37.90544,2.18674 h 0.90213 a 1.1035966,1.1035966 32.386537 0 1 0.998343,0.6332388 L 44.577926,12.948663 A 0.63428973,0.63428973 122.38654 0 1 44.00413,13.85329 l -1.64089,0 A 0.76655765,0.76655765 33.11507 0 1 41.661708,13.395704 L 40.77463,11.38156 h -4.90764 l -0.856958,2.011727 A 0.75646538,0.75646538 146.53654 0 1 34.31408,13.85329 l -1.5695,0 A 0.63604904,0.63604904 57.541639 0 1 32.168515,12.947597 L 36.908685,2.8207248 A 1.1005441,1.1005441 147.54164 0 1 37.90544,2.18674 Z M 37.886342,6.502115 36.74145,9.20644 H 39.8288 L 38.669893,6.5004821 a 0.4258157,0.4258157 179.88059 0 0 -0.783551,0.00163 z"
         id="path27933-3"
         style="font-weight:800;font-size:19.05px;line-height:1.25;font-family:Avenir;-inkscape-font-specification:'Avenir, Ultra-Bold';fill:#94c9f5;fill-opacity:1;stroke-width:0.238172"
         inkscape:path-effect="#path-effect32596"
         inkscape:original-d="m 37.20544,2.18674 h 2.30213 l 5.49656,11.66655 h -3.14089 l -1.08861,-2.47173 h -4.90764 l -1.05291,2.47173 h -3.0695 z m 1.07076,3.3945 -1.53475,3.6252 h 3.08735 z" />
      <path
         d="m 47.1796,4.46072 h -3.50503 a 1,1 45 0 1 -1,-1 V 3.18674 a 1,1 135 0 1 1,-1 h 9.69338 a 1,1 45 0 1 1,1 l 0,0.27398 a 1,1 135 0 1 -1,1 h -3.40438 v 8.39257 a 1,1 135 0 1 -1,1 H 48.1796 a 1,1 45 0 1 -1,-1 z"
         id="path27930-2"
         style="font-weight:800;font-size:19.05px;line-height:1.25;font-family:Avenir;-inkscape-font-specification:'Avenir, Ultra-Bold';fill:#499adc;fill-opacity:1;stroke-width:0.238172"
         inkscape:path-effect="#path-effect32594"
         inkscape:original-d="M 47.1796,4.46072 H 42.67457 V 2.18674 h 11.69338 v 2.27398 h -4.40438 v 9.39257 H 47.1796 Z"
         sodipodi:nodetypes="ccccccccc" />
      <path
         d="m 32.93976,15.51604 h 3.2644 c 0.49536,0 0.99072,0.03845 1.48608,0.11535 0.506127,0.06593 0.95841,0.208743 1.35685,0.42843 0.39844,0.208727 0.7215,0.505333 0.96918,0.88982 0.24768,0.384493 0.37152,0.895317 0.37152,1.53247 0,0.659133 -0.183067,1.208407 -0.5492,1.64782 -0.355367,0.428433 -0.829187,0.736023 -1.42146,0.92277 v 0.0329 c 0.3769,0.05493 0.71611,0.164787 1.01763,0.32956 0.3123,0.153793 0.576133,0.357023 0.7915,0.60969 0.226147,0.24168 0.398447,0.527303 0.5169,0.85687 0.118453,0.32956 0.17768,0.68109 0.17768,1.05459 0,0.615187 -0.129223,1.131503 -0.38767,1.54895 -0.258447,0.406467 -0.592273,0.736033 -1.00148,0.9887 -0.409213,0.25266 -0.87227,0.433917 -1.38917,0.54377 -0.506127,0.109853 -1.012253,0.16478 -1.51838,0.16478 l -3.68438,0 a 1,1 45 0 1 -1,-1 v -9.66647 a 1,1 135 0 1 1,-1 z m 1.51987,4.66333 h 1.82529 c 0.19384,0 0.382293,-0.02197 0.56536,-0.0659 0.19384,-0.04393 0.36614,-0.115337 0.5169,-0.21421 0.15076,-0.09887 0.269213,-0.2307 0.35536,-0.39548 0.09693,-0.16478 0.14539,-0.362517 0.14539,-0.59321 0,-0.24168 -0.05384,-0.43942 -0.16153,-0.59322 -0.09693,-0.16478 -0.226153,-0.29111 -0.38768,-0.37899 -0.161533,-0.08789 -0.3446,-0.14831 -0.5492,-0.18127 -0.204607,-0.04393 -0.403827,-0.0659 -0.59766,-0.0659 h -1.71223 z m 0,4.8281 h 2.26143 c 0.193833,0 0.38767,-0.02197 0.58151,-0.0659 0.2046,-0.04393 0.387667,-0.12083 0.5492,-0.23069 0.161527,-0.109853 0.290753,-0.252663 0.38768,-0.42843 0.10768,-0.175773 0.16152,-0.389993 0.16152,-0.64266 0,-0.274627 -0.07,-0.494333 -0.20999,-0.65912 -0.12922,-0.175767 -0.296133,-0.307593 -0.50074,-0.39548 -0.204607,-0.08788 -0.425367,-0.1483 -0.66228,-0.18126 -0.236907,-0.033 -0.457663,-0.0495 -0.66227,-0.0495 h -1.90606 z"
         id="path25166-5"
         style="font-weight:800;font-size:18.1239px;line-height:1.25;font-family:Avenir;-inkscape-font-specification:'Avenir, Ultra-Bold';fill:#94c9f5;fill-opacity:1;stroke-width:0.226594"
         inkscape:path-effect="#path-effect32598"
         inkscape:original-d="m 31.93976,15.51604 h 4.2644 q 0.74304,0 1.48608,0.11535 0.75919,0.0989 1.35685,0.42843 0.59766,0.31309 0.96918,0.88982 0.37152,0.57674 0.37152,1.53247 0,0.9887 -0.5492,1.64782 -0.53305,0.64265 -1.42146,0.92277 v 0.0329 q 0.56535,0.0824 1.01763,0.32956 0.46845,0.23069 0.7915,0.60969 0.33922,0.36252 0.5169,0.85687 0.17768,0.49434 0.17768,1.05459 0,0.92278 -0.38767,1.54895 -0.38767,0.6097 -1.00148,0.9887 -0.61382,0.37899 -1.38917,0.54377 -0.75919,0.16478 -1.51838,0.16478 h -4.68438 z m 2.51987,4.66333 h 1.82529 q 0.29076,0 0.56536,-0.0659 0.29076,-0.0659 0.5169,-0.21421 0.22614,-0.14831 0.35536,-0.39548 0.14539,-0.24717 0.14539,-0.59321 0,-0.36252 -0.16153,-0.59322 -0.14539,-0.24717 -0.38768,-0.37899 -0.2423,-0.13183 -0.5492,-0.18127 -0.30691,-0.0659 -0.59766,-0.0659 h -1.71223 z m 0,4.8281 h 2.26143 q 0.29075,0 0.58151,-0.0659 0.3069,-0.0659 0.5492,-0.23069 0.24229,-0.16478 0.38768,-0.42843 0.16152,-0.26366 0.16152,-0.64266 0,-0.41194 -0.20999,-0.65912 -0.19383,-0.26365 -0.50074,-0.39548 -0.30691,-0.13182 -0.66228,-0.18126 -0.35536,-0.0495 -0.66227,-0.0495 h -1.90606 z" />
      <path
         d="M 48.836536,18.071609 C 48.70898,17.98279 48.571938,17.905407 48.42541,17.83946 c -0.35536,-0.16478 -0.769953,-0.24717 -1.24378,-0.24717 -0.47382,0 -0.915337,0.09338 -1.32455,0.28013 -0.39844,0.186753 -0.74842,0.450407 -1.04994,0.79096 -0.29076,0.32956 -0.522287,0.725033 -0.69458,1.18642 -0.161533,0.461387 -0.2423,0.961223 -0.2423,1.49951 0,0.549273 0.08077,1.054603 0.2423,1.51599 0.172293,0.450407 0.40382,0.845883 0.69458,1.18643 0.290753,0.329567 0.629967,0.587727 1.01764,0.77448 0.39844,0.186747 0.823803,0.28012 1.27609,0.28012 0.516893,0 0.974563,-0.109853 1.37301,-0.32956 0.19583,-0.107984 0.374751,-0.237197 0.536763,-0.38764 0.282594,-0.262413 0.697944,-0.345312 1.005567,-0.111159 l 0.747176,0.568727 c 0.439461,0.334503 0.546117,0.985145 0.141289,1.359267 -0.350103,0.323548 -0.745775,0.583176 -1.187015,0.778885 -0.74304,0.32956 -1.507617,0.49434 -2.29373,0.49434 -0.8938,0 -1.717603,-0.142813 -2.47141,-0.42844 -0.753813,-0.28562 -1.40532,-0.69208 -1.95452,-1.21938 -0.549207,-0.538287 -0.979953,-1.186427 -1.29224,-1.94442 -0.301527,-0.758 -0.45229,-1.60388 -0.45229,-2.53764 0,-0.93376 0.150763,-1.779637 0.45229,-2.53763 0.312287,-0.758 0.743033,-1.400647 1.29224,-1.92794 0.5492,-0.538293 1.200707,-0.95025 1.95452,-1.23587 0.753807,-0.28562 1.57761,-0.42843 2.47141,-0.42843 0.32306,0 0.656887,0.03297 1.00148,0.0989 0.355367,0.05493 0.699967,0.14831 1.0338,0.28013 0.3446,0.131827 0.673043,0.307593 0.98533,0.5273 0.04614,0.03246 0.09157,0.066 0.136295,0.100612 0.435603,0.337139 0.35968,0.993389 -0.06465,1.346892 l -0.632228,0.526704 c -0.297029,0.247452 -0.731239,0.191794 -1.047423,-0.02837 z"
         id="path25168-6"
         style="font-weight:800;font-size:18.1239px;line-height:1.25;font-family:Avenir;-inkscape-font-specification:'Avenir, Ultra-Bold';fill:#499adc;fill-opacity:1;stroke-width:0.226594"
         inkscape:path-effect="#path-effect32638"
         inkscape:original-d="m 49.34614,18.54803 q -0.37152,-0.46139 -0.92073,-0.70857 -0.53304,-0.24717 -1.24378,-0.24717 -0.71073,0 -1.32455,0.28013 -0.59766,0.28013 -1.04994,0.79096 -0.43614,0.49434 -0.69458,1.18642 -0.2423,0.69208 -0.2423,1.49951 0,0.82391 0.2423,1.51599 0.25844,0.67561 0.69458,1.18643 0.43613,0.49435 1.01764,0.77448 0.59766,0.28012 1.27609,0.28012 0.77534,0 1.37301,-0.32956 0.59766,-0.32956 0.98533,-0.92277 l 2.09989,1.59837 q -0.72689,1.03813 -1.84144,1.53248 -1.11456,0.49434 -2.29373,0.49434 -1.3407,0 -2.47141,-0.42844 -1.13072,-0.42843 -1.95452,-1.21938 -0.82381,-0.80743 -1.29224,-1.94442 -0.45229,-1.137 -0.45229,-2.53764 0,-1.40064 0.45229,-2.53763 0.46843,-1.137 1.29224,-1.92794 0.8238,-0.80744 1.95452,-1.23587 1.13071,-0.42843 2.47141,-0.42843 0.48459,0 1.00148,0.0989 0.53305,0.0824 1.0338,0.28013 0.5169,0.19774 0.98533,0.5273 0.46844,0.32956 0.83996,0.80743 z" />
      <path
         d="m 52.86782,15.51604 0.51988,0 a 1,1 45 0 1 1,1 l 0,9.66654 a 1,1 135 0 1 -1,1 h -0.51988 a 1,1 45 0 1 -1,-1 v -9.66654 a 1,1 135 0 1 1,-1 z"
         id="path25170-3"
         style="font-weight:800;font-size:18.1239px;line-height:1.25;font-family:Avenir;-inkscape-font-specification:'Avenir, Ultra-Bold';fill:#499adc;fill-opacity:1;stroke-width:0.226594"
         inkscape:path-effect="#path-effect32678"
         inkscape:original-d="M 51.86782,15.51604 H 54.3877 V 27.18258 H 51.86782 Z" />
      <rect
         style="display:inline;fill:none;fill-opacity:1;stroke:none;stroke-width:0;stroke-linecap:round;stroke-miterlimit:4;stroke-dasharray:none;stroke-opacity:0.80593"
         id="rect32345-4"
         width="56.132999"
         height="28.207563"
         x="0.17061681"
         y="0.52508813"
         inkscape:export-filename="/Users/febo/Downloads/atbci_logo.png"
         inkscape:export-xdpi="299.88397"
         inkscape:export-ydpi="299.88397" />
    </g>
  </g>
</svg>
